<?xml version="1.0" encoding="utf-8"?>
<!-- Generator: Adobe Illustrator 19.1.0, SVG Export Plug-In . SVG Version: 6.00 Build 0)  -->
<svg version="1.1" id="Layer_1" xmlns="http://www.w3.org/2000/svg" xmlns:xlink="http://www.w3.org/1999/xlink" x="0px" y="0px"
	 viewBox="0 0 39.7 40.6" style="enable-background:new 0 0 39.7 40.6;" xml:space="preserve">
<style type="text/css">
	.st0{fill:#FFFFFF;}
</style>
<path d="M1.9,16.1C2,16,2.2,15.9,2.4,15.8c-0.2-0.1-0.3-0.1-0.4-0.2c0,0,0,0,0-0.1c0.1,0,0.2,0,0.3,0c-0.2-0.2-0.3-0.3-0.4-0.4
	c0.2,0.4-0.2,0.3-0.3,0.4c0.1,0.1,0.2,0.3,0.3,0.4c0,0,0,0.1,0,0.1c-0.3-0.1-0.5-0.2-0.8-0.2c0,0,0-0.1,0-0.1c0.1,0,0.2,0,0.4-0.1
	c-0.2-0.2-0.4-0.4,0-0.7c0,0.1,0.1,0.3,0.1,0.4c0.3,0,0.2-0.7,0.7-0.4c0-0.3-0.3-0.4-0.8-0.2c0.1-0.1,0.1-0.3,0.2-0.4
	c0.3,0.1,0.5,0.2,0.8,0.3c-0.1-0.4-0.3-0.6-0.7-0.8c0.1-0.1,0.2-0.3,0.3-0.4c0,0,0.1,0,0.1,0.1c0-0.1,0-0.2-0.1-0.2
	c0.2,0,0.5-0.1,0.8-0.1c0-0.1,0-0.2,0-0.3c-0.1,0-0.2,0-0.3-0.1c0.1-0.1,0.1-0.1,0.2-0.2c0-0.1,0-0.2,0-0.3c0.1,0,0.2,0,0.3,0
	c0,0,0,0,0-0.1C2.8,12,2.7,12,2.6,12c0.2-0.2,0.4-0.4,0.7-0.7c-0.1,0-0.1,0-0.3-0.1c0.2-0.2,0.4-0.4,0.6-0.6c0,0.1,0.1,0.2,0.1,0.4
	c0.1-0.3,0.2-0.4,0.2-0.6c-0.4-0.3-0.3-0.3,0.1-1.1c0.1,0.1,0.1,0.2,0.2,0.3c0,0,0,0,0.1,0c0-0.2-0.1-0.4-0.1-0.7c0,0,0,0,0.1,0
	C4.4,9,4.4,9,4.5,9.1C4.6,9,4.7,8.9,4.8,8.8c-0.1,0-0.2,0.1-0.3,0.1C4.3,8.4,4.7,8.2,4.9,8C4.8,7.8,4.7,7.6,4.8,7.6
	C5,7.4,5.2,7.3,5.4,7.6C5.5,7.5,5.6,7.3,5.7,7C5.6,7.1,5.5,7.2,5.4,7.2C5.3,7,5.3,7,5.8,6.5C6,6.3,6.3,6.2,6.7,6.1
	C6.6,6,6.5,5.9,6.4,5.8c0.2-0.2,0.5-0.5,0.9-0.9c0,0.2,0,0.4-0.1,0.5C7.3,5.3,7.5,5.2,7.5,5c0-0.2,0.2-0.5,0.3-0.7
	C8,4.4,8.1,4.6,8.2,4.6c0.2-0.1,0.4-0.2,0.4-0.4c0.1-0.1,0-0.3,0-0.5c0-0.3,0.1-0.3,0.4-0.3c0-0.1,0-0.1,0-0.3
	c0.1,0.1,0.2,0.2,0.3,0.2c0-0.4,0.4-0.7,0.8-0.8c0.1,0,0.3-0.1,0.5-0.2c0,0,0.1,0.1,0.2,0.2c0-0.1,0-0.3,0.1-0.4
	c0.1,0,0.3,0.1,0.4,0.1c0.2-0.3,0.6-0.5,1-0.3c0.1-0.1,0.2-0.2,0.3-0.3c0,0,0.1,0,0.1,0.1c0,0.2,0,0.4-0.1,0.6c0.4-0.4,0.7-0.7,1-1
	c0.2-0.2,0.3-0.2,0.5,0.1c0.1,0.3,0.4,0.2,0.7-0.1c-0.1-0.1-0.2-0.2-0.3-0.3c0,0,0,0,0-0.1C14.6,0.9,14.8,0.9,15,1c0,0,0-0.1,0-0.1
	c0.1-0.1,0.2-0.2,0.4-0.2C16,0.4,16.4,1,16.9,1.3c0.2,0.1,0.1,0.3-0.1,0.4c-0.2,0.1-0.4,0.1-0.7,0.1c0.1-0.1,0.2-0.2,0.2-0.3
	c-0.1-0.1-0.2-0.2-0.4-0.4c-0.1,0.1-0.3,0.3-0.4,0.4c0,0.1-0.1,0.2-0.1,0.3c-0.1,0-0.2,0-0.4,0.1c0,0.1,0,0.2,0,0.2
	c-1,0.3-2,0.6-3,0.8c0-0.1,0.1-0.3,0.2-0.5c0,0-0.1,0-0.1,0C12.1,2.4,12,2.5,12,2.6c-0.1,0-0.2,0-0.3,0c0,0.2-0.1,0.4-0.1,0.7
	c-0.7,0-1.1,0.4-1.5,0.8C9.9,4.3,9.6,4.3,9.4,4.3c0,0.1,0,0.4-0.2,0.4C9.1,4.9,8.9,4.8,8.6,4.9C8.8,4.9,8.9,5,9,5
	C8.7,5.3,8.5,5.5,8.2,5.7c0,0,0,0,0-0.1C8.1,5.8,8.1,5.9,8,6.1C7.9,5.9,7.8,5.8,7.7,5.7c0,0-0.1,0-0.1,0.1C7.7,5.8,7.8,6,7.8,6.1
	C7.5,6.2,7.4,6.7,6.9,6.3C7,6.4,7,6.6,7.1,6.6c0.2,0,0.4-0.1,0.6-0.1c0,0.1,0,0.3,0.1,0.5C7.9,6.8,8,6.7,8.1,6.6
	C8,6.5,7.9,6.5,7.8,6.4c0.3-0.1,0.6-0.2,0.9-0.2c0.1,0,0.3,0.1,0.5,0.2C9.1,6.1,9,5.9,9,5.7C8.8,5.8,8.7,5.8,8.6,5.9
	c0.2-0.4,0.3-0.4,0.5-0.1C9.2,6,9.4,6.1,9.5,6.3C9.2,6.4,9,6.6,8.7,6.8c0,0,0,0.1,0,0.1c0.1,0,0.2-0.1,0.3-0.1c0,0,0,0,0,0.1
	C8.8,7,8.6,7.1,8.4,7.3c-0.1,0-0.1,0-0.2,0C8.3,7.2,8.4,7.1,8.5,7c0,0-0.1,0-0.1,0C8.1,7,7.9,7.1,7.8,7.2c0,0,0,0.1,0,0.1
	c0.1,0,0.1,0,0.2,0C7.9,7.4,7.9,7.5,7.8,7.8C7.7,7.6,7.7,7.5,7.6,7.4c-0.4,0-0.7,0.1-1.2,0.2c0.3,0.2,0.4,0.4,0.7,0.6
	C7,8.3,6.8,8.4,6.6,8.6c0,0,0,0-0.1,0c0.1-0.1,0.1-0.2,0.2-0.4C6.6,8.1,6.4,8,6.1,7.8C6.1,8,6.2,8.1,6.2,8.2c-0.1,0-0.2,0-0.3,0
	c0,0.1,0.1,0.2,0.1,0.3c0.1,0.2,0.3,0.3,0.4,0.5c0,0.1,0,0.2-0.1,0.2C6.1,9.4,5.8,9.7,5.6,9.9c-0.1,0-0.1-0.1-0.2-0.2
	c0,0.1,0,0.2,0,0.2c-0.1,0.2-0.3,0.3-0.4,0.5c0,0-0.1-0.1-0.2-0.1c0,0.1,0.1,0.3,0.1,0.4c-0.2,0.1-0.4,0.1-0.3,0.5
	c0,0.1-0.3,0.3-0.5,0.5C4,11.8,4.4,11.7,4.2,12c-0.1,0.1,0.1,0.4,0.1,0.7c-0.1-0.1-0.2-0.2-0.3-0.2c0,0.1,0,0.1,0,0.2
	c0.3,0.3,0,0.3-0.2,0.3C3.9,13,4,13,4,13c0,0,0,0.1,0,0.1c-0.2,0-0.4-0.1-0.6-0.1c0.2,0.3,0.3,0.5,0.5,0.8c-0.1,0-0.2,0.1-0.4,0.1
	C3.6,13.9,3.7,14,3.7,14c0,0,0,0,0,0.1c-0.2-0.1-0.4-0.1-0.6-0.2c0.1,0.2,0.2,0.4,0.3,0.6c0,0,0.1,0,0.3-0.1c0,0.1-0.1,0.2-0.1,0.4
	c0.1-0.1,0.2-0.1,0.3-0.2c-0.1,0.7-0.2,1.3-0.3,1.9c-0.1-0.1-0.1-0.1-0.2-0.2c-0.1,0.1-0.2,0.3-0.3,0.4c0.1,0.4,0.3,0.8,0.4,1.2
	c0,0-0.1,0-0.1,0c-0.1-0.1-0.2-0.2-0.4-0.3c0,0,0,0-0.1,0.1c0.1,0.1,0.1,0.1,0.2,0.2C3.1,18,3,18,3,18c0.1,0.2,0.2,0.3,0.3,0.5
	c-0.2,0.2-0.4,0.4-0.6,0.6c0.1,0.1,0.1,0.2,0.2,0.4c-0.1,0,0,0,0,0c0.2,0,0.3,0,0.5,0c0.2,0,0.3,0,0.3,0.2c0,0.2-0.1,0.3-0.1,0.5
	c-0.1,0-0.2,0.1-0.4,0.1c-0.1,0.2,0.3,0.4-0.1,0.6c0.1,0,0.1,0,0.2,0c-0.1,0.1-0.1,0.2-0.2,0.3c0,0,0.1,0,0.1,0
	c0,0.1,0.1,0.1,0.1,0.2c0,0.1,0.1,0.2,0.1,0.4c0.1,0,0.1,0,0.2-0.1c-0.1-0.3-0.2-0.5-0.3-0.8c0.1-0.1,0.1-0.2,0.2-0.3
	C4,21,3.6,21.7,3.9,22.2c-0.2-0.1-0.4-0.2-0.6-0.3c0,0,0,0.1-0.1,0.1c0.1,0.1,0.2,0.1,0.4,0.2c0,0,0,0.1,0,0.2
	c0.2,0,0.3,0.1,0.5,0.1C4.1,22.8,4,22.9,4,23c0.1,0.1,0.2,0.2,0.2,0.3c0.1,0.2,0.1,0.4,0.1,0.6c-0.3-0.2-0.5-0.3-0.7-0.4
	c0,0-0.1,0.1-0.1,0.1c0.1,0.1,0.3,0.2,0.5,0.3C4,24,4,24.1,4,24c0.1,0.3,0.1,0.5,0.2,0.6c0,0.1,0.2,0.1,0.3,0.1
	c0.3,0,0.4,0.2,0.3,0.5c-0.1,0.2-0.1,0.4-0.2,0.7c0.2-0.1,0.3-0.1,0.3-0.2c0,0.3-0.1,0.5-0.1,0.8c-0.2,0.1-0.2,0.1-0.4-0.2
	c-0.1-0.1-0.2-0.1-0.4-0.2c0.1-0.1,0.2-0.2,0.3-0.4c-0.1-0.1-0.2-0.3-0.3-0.4c0,0.1-0.1,0.2-0.1,0.2c-0.1-0.3-0.3-0.6-0.5-1
	c0.2,0.1,0.3,0.1,0.4,0.2c0,0,0,0,0-0.1c-0.1-0.1-0.2-0.2-0.3-0.3c0.1-0.1,0.1-0.1,0.3-0.2c-0.2-0.1-0.3-0.2-0.5-0.2
	c-0.2,0-0.3-0.1-0.4-0.4C3,23.4,2.9,23,2.8,22.6c0.1-0.1,0.3-0.2,0.4-0.3c-0.2-0.1-0.3-0.2-0.4-0.4c0,0,0,0,0,0
	c0.1,0.1,0.2,0.2,0.2,0.2c0,0,0,0.1-0.1,0.1c-0.1-0.1-0.2-0.2-0.4-0.2c0.1-0.1,0.3-0.3,0.4-0.4c0,0.1,0-0.3-0.2,0
	c0,0-0.2-0.1-0.2-0.1c-0.1-0.4-0.2-0.8-0.3-1.3c0-0.1,0.2-0.2,0.3-0.4c-0.4,0-0.5-0.1-0.4-0.5c0.1-0.2-0.1-0.5-0.1-0.8
	c0-0.3-0.1-0.7-0.1-1c0.1,0.1,0.2,0.2,0.4,0.3c-0.1-0.6-0.2-1.2-0.3-1.7C2.1,16.1,2,16.1,1.9,16.1L1.9,16.1z M3.2,15.4
	C3.2,15.4,3.2,15.4,3.2,15.4c-0.2-0.1-0.4-0.1-0.7,0c0.2,0.2,0.4,0.6,0.8,0.2c-0.1,0-0.2-0.1-0.3-0.1c0,0,0,0,0-0.1
	C3,15.5,3.1,15.5,3.2,15.4z M6.6,7.2C6.7,7,6.8,6.9,6.9,6.7c-0.1,0-0.3-0.1-0.5-0.1C6.5,6.8,6.6,7.1,6.6,7.2z"/>
<path d="M37.5,16.6c0.2,0,0.3,0,0.5,0c0,0.2,0,0.3,0,0.5c0,0.1-0.1,0.3-0.1,0.5c0.1-0.1,0.2-0.2,0.3-0.2c0.1,0.2,0.2,0.4,0.4,0.7
	c-0.2,0-0.4,0.1-0.5,0.1c0,0,0,0,0,0.1c0.1,0,0.2,0,0.4,0.1c-0.1,0.1-0.1,0.2-0.2,0.2c-0.2,0.2-0.1,0.4,0,0.6
	c0.1,0.2,0.2,0.3,0.2,0.5c-0.2,0.1-0.1,0.3-0.2,0.4c0,0.1-0.1,0.3-0.2,0.5c0,0-0.1,0-0.3,0c0.2,0.5,0.2,1.1,0.1,1.6
	c0.1,0,0.2,0.1,0.3,0.1c-0.1,0.6-0.1,1.1-0.2,1.7c-0.1,0-0.2,0.1-0.4,0.2c0,0,0,0.1,0.1,0.1c0.1-0.1,0.2-0.1,0.2-0.2
	c0.3,0.4,0.1,0.7,0,1c0.1,0.1,0.2,0.1,0.3,0.2c-0.1,0.1-0.1,0.3-0.3,0.4c-0.1,0.1-0.2,0-0.4,0c0,0.1,0.1,0.3,0.1,0.5
	c0-0.1,0.1-0.1,0.1-0.2c0.4,0.2,0.1,0.5,0.3,0.8c-0.1,0-0.2,0-0.2,0c0,0.3-0.3,0.4-0.5,0.6c-0.1,0.1-0.1,0.2-0.2,0.3
	c0.1,0,0.2,0,0.3,0.1c0,0.2-0.1,0.4-0.2,0.6c-0.1,0.2-0.3,0.4-0.4,0.6c0,0.4,0.1,0.7-0.3,1c0-0.1,0-0.2,0-0.3c-0.1,0-0.2,0-0.2,0.1
	c-0.1,0.1-0.2,0.2-0.2,0.4c0.1,0.2,0.2,0.4,0.3,0.6c0.1,0.2,0.1,0.3-0.2,0.4c0,0,0,0.2,0,0.3c-0.1-0.1-0.2-0.2-0.3-0.3
	c0.2,0.6,0.1,0.9-0.4,1.3c-0.1,0.1-0.1,0.2-0.2,0.4c-0.1,0-0.2,0-0.3,0c0,0.1,0.1,0.3,0.1,0.4c-0.1,0.1-0.3,0.1-0.4,0.2
	c-0.1,0.2-0.3,0.5-0.3,0.5c-0.3-0.1-0.2,0.6-0.5,0.2c0,0.2-0.1,0.3-0.1,0.5c0,0-0.1,0-0.1,0c-0.1-0.2-0.1-0.4-0.2-0.6
	c0,0-0.1,0-0.1,0c-0.1,0.3-0.1,0.5-0.2,0.8c0,0.1-0.1,0.2-0.3,0.3c0,0.1,0,0.3,0,0.4c-0.1,0-0.2,0-0.4-0.1c-0.2-0.1-0.4,0-0.6,0.4
	c0.1,0.1,0.2,0.1,0.5,0.3C32,36,31.8,36,31.6,36c0,0,0.1,0.1,0.1,0.1c-0.1,0.1-0.2,0.3-0.3,0.4c-0.3,0.2-0.8,0.3-1.1,0.7
	c-0.2,0.2-0.4,0.1-0.5-0.1c-0.1-0.2-0.2-0.3-0.3-0.5c0-0.4,0.1-0.6,0.6-0.7c0,0.1-0.1,0.1-0.1,0.2c0,0.1,0,0.1,0,0.2
	c0.2,0,0.4,0,0.6,0c-0.1-0.2-0.3-0.4-0.4-0.6c0.3-0.2,0.6-0.3,0.8-0.5c0-0.1,0-0.2,0-0.2c0.2-0.1,0.6-0.2,0.6-0.3
	c0.1-0.4,0.5-0.4,0.7-0.7c0.2-0.2,0.4-0.4,0.7-0.6c0,0,0.1,0,0.3,0c-0.1-0.1-0.1-0.1-0.2-0.1c0.1-0.1,0.2-0.2,0.2-0.4
	c0,0,0.1,0,0.1,0c0,0.2,0.1,0.4,0.1,0.6c0.1,0,0.1,0,0.2,0c0-0.1-0.1-0.2-0.1-0.3c0.1-0.1,0.2-0.1,0.3-0.2c0,0,0,0,0-0.1
	c-0.1,0-0.1,0-0.2,0c0.1-0.2,0.1-0.3,0.2-0.5c0,0-0.1,0-0.3,0c0.7-0.4,1-0.9,1.1-1.6c0-0.1,0.2-0.1,0.2-0.2c0.1-0.1,0.2-0.1,0.4-0.2
	c-0.3-0.4-0.3-0.5,0.4-0.9c-0.1,0-0.2,0-0.4,0.1c0.1-0.3,0.2-0.6,0.4-0.9c0,0,0.1,0,0.1,0c0-0.2,0-0.3-0.1-0.5
	c0.2,0.1,0.3,0.1,0.5,0.2c0,0,0-0.1,0-0.1c-0.1-0.1-0.2-0.1-0.4-0.2c0.3-0.8,0.3-0.8,0.7-0.7c-0.1-0.1-0.2-0.2-0.4-0.2
	c-0.3,0-0.6,0-0.9,0.1c0-0.6,0.7,0.1,0.7-0.4c-0.4-0.3-0.7,0-1,0.3c0.1-0.2,0.2-0.4,0.3-0.6c0.1,0,0.2,0,0.3,0.1
	c0-0.2-0.1-0.3-0.1-0.5c0-0.1,0.3-0.1,0.4-0.1c0.2-0.1,0.5-0.2,0.7-0.3c-0.2-0.3-0.4-0.2-0.8,0.1c0-0.1-0.1-0.2,0-0.2
	c0.2-0.1,0.3-0.3,0.5-0.3c0.4,0,0.4-0.2,0.2-0.5c0,0,0-0.1,0-0.2c-0.1,0.2-0.2,0.4-0.4,0.6c0.1-0.4,0.1-0.7,0.2-1
	c0.2,0.2,0.3,0.3,0.5,0.5c0,0,0,0,0.1,0c-0.1-0.2-0.2-0.4-0.3-0.7c0.2-0.3,0.1-0.8,0-1.3c0.1,0,0.2,0,0.3,0
	c-0.1-0.1-0.1-0.2-0.2-0.3c0.1-0.2,0.4-0.3,0-0.5c0,0,0-0.3,0.1-0.4c0-0.1,0.2,0,0.4-0.1c0-0.2-0.1-0.3-0.1-0.6
	c-0.1,0.1-0.2,0.2-0.2,0.3c-0.1-0.2-0.3-0.5-0.4-0.7c0.1-0.1,0.2-0.1,0.3-0.2c-0.1,0-0.1,0-0.2,0c0.1-0.2,0.3-0.4,0.4-0.7
	c-0.2,0-0.3,0-0.5,0c-0.1-0.1-0.2-0.2-0.3-0.3c0.1-0.1,0.2-0.2,0.4-0.3c-0.1,0-0.2-0.1-0.3-0.1c0.2,0,0.4-0.1,0.6-0.1
	c-0.2-0.2-0.3-0.3-0.5-0.5c-0.1,0-0.2,0-0.4,0c0,0,0,0.1-0.1,0.2c0,0-0.1,0-0.1,0c0-0.3,0-0.6-0.1-0.9c0-0.1-0.1-0.2-0.2-0.3
	c-0.1-0.2-0.2-0.4-0.3-0.7c0.1,0.1,0.2,0.2,0.3,0.2c0-0.2,0.1-0.4,0.1-0.5c-0.3-0.3-0.6-0.6-0.9-1c0.3,0,0.4,0.1,0.6,0.1
	c-0.2-0.2-0.3-0.3-0.4-0.5c-0.1,0-0.2,0-0.3,0.1c-0.1-0.1-0.1-0.2-0.1-0.3c0.1-0.3,0.2-0.5,0.3-0.8c-0.1-0.1-0.2-0.2-0.3-0.2
	c-0.3,0.1-0.6,0.2-0.8,0.1c-0.3-0.1-0.2-0.6,0.1-0.9c-0.1-0.2-0.2-0.3-0.3-0.6c-0.1,0.2-0.1,0.3-0.1,0.5c-0.6-0.3-0.6-1-1.1-1.3
	c0.2-0.2,0.6,0.2,0.7-0.3c0,0,0,0,0,0c0.1,0,0.1,0,0.3,0c-0.1-0.1-0.1-0.1-0.2-0.1c0,0,0-0.1,0-0.1c0.2,0,0.3,0.1,0.5,0.1
	c-0.1,0.2-0.2,0.4-0.3,0.5c0-0.1,0.1,0.3,0.2-0.1c0.2,0.1,0.3,0.1,0.4,0.2c0.3,0.3,0.5,0.6,0.7,0.9c-0.1,0.1-0.1,0.3-0.2,0.4
	c0.3-0.1,0.5-0.1,0.5,0.2c0,0.1,0.2,0.3,0.3,0.4c0.1,0.2,0.3,0.4,0.4,0.6c0.1,0.2,0.2,0.4,0.3,0.6c0,0,0,0.1,0,0.2c0,0-0.1,0-0.1,0
	c-0.1,0-0.1,0-0.2,0c0,0.1,0,0.2,0,0.2c0.4,0.3,0.5,0.8,0.8,1.2c0.1,0.2,0.1,0.4,0.2,0.5c0.1,0.2,0.3,0.3,0.4,0.5c0.1,0,0.2,0,0.2,0
	C37.4,17,37.4,16.8,37.5,16.6z M36.5,19.2c0.4,0,0.7-0.1,1.1-0.1c0-0.1,0-0.3,0-0.5c-0.1-0.1-0.2-0.1-0.2-0.1
	C37.1,18.8,36.8,19,36.5,19.2z M36.4,16.7C36.4,16.7,36.4,16.7,36.4,16.7c-0.2,0-0.4,0.2-0.6,0.3c0.1,0.1,0.2,0.2,0.4,0.4
	c0.1-0.1,0.3-0.3,0.5-0.5c-0.2,0-0.3,0-0.5,0.1c0,0,0,0,0-0.1C36.3,16.8,36.3,16.8,36.4,16.7z M36.9,17.9c0.1,0.2,0.7-0.1,0.5,0.5
	c0.2-0.2,0.3-0.2,0.4-0.3C37.5,17.7,37.3,17.6,36.9,17.9z"/>
<path d="M5,32.4c-0.1,0-0.3,0.1-0.4,0.1c0.2,0.2,0.3,0.3,0.5,0.5c0-0.1-0.1-0.2-0.1-0.3c0.4,0.1,0.5,0.3,0.4,0.9
	c0.1-0.1,0.2-0.2,0.2-0.3c0.1,0.1,0.2,0.1,0.4,0.2c0,0,0,0,0,0.1c-0.1,0-0.2,0-0.3-0.1C5.8,33.8,6,34,6.3,34c0.1,0,0.3,0.1,0.3,0.2
	c-0.1,0.4,0.1,0.5,0.5,0.4C7,34.6,7,34.5,7,34.5c0,0,0-0.1,0-0.1c0.1,0.1,0.3,0.1,0.5,0.2c-0.2,0-0.2,0-0.3,0.1
	c0,0.1,0.1,0.3,0.1,0.5C7.4,35,7.5,35,7.7,34.8c0,0.5,0,0.5,0.3,0.7c0.2-0.1,0.4-0.1,0.6-0.2c0,0.2-0.1,0.4,0,0.5
	c0.1,0.1,0.3,0,0.4,0.1c0.2,0.1,0.3,0.2,0.4,0.3c0-0.1,0-0.2-0.1-0.3c0.1,0.2,0.1,0.5,0.2,0.7c-0.1,0-0.3,0.4-0.5-0.1
	C9,36.6,9,36.7,8.9,36.8c-0.1,0.1-0.3,0.2-0.4-0.1c0-0.2-0.2-0.3-0.4-0.3c-0.2,0-0.4-0.1-0.6-0.1c0,0,0-0.1,0-0.1
	c0.1,0,0.2-0.1,0.4-0.1c-0.2-0.1-0.4-0.2-0.5-0.2c-0.3,0-0.6,0.1-0.7,0c-0.3-0.2-0.5-0.5-0.7-0.8c0.1,0.1,0.2,0.1,0.5,0.2
	C6.3,35,6.2,34.7,6,34.6c-0.1-0.1-0.3,0.1-0.5,0.1c0-0.1,0.1-0.2,0.1-0.3c0.2-0.4-0.2-0.5-0.3-0.6c-0.1-0.1-0.1-0.1-0.2-0.2
	c-0.2-0.2-0.3-0.4-0.6-0.4c0,0-0.1-0.2-0.2-0.3c0,0-0.1,0,0,0c-0.1-0.2-0.2-0.4-0.3-0.5c-0.2-0.3-0.4-0.5-0.6-0.7
	c-0.5,0.1-0.5,0.1-0.6-0.4c0-0.1-0.1-0.3-0.1-0.5c0,0.2-0.1,0.3-0.1,0.4C2.4,31,2.2,30.8,2,30.6c0.2-0.1,0.3-0.2,0.4-0.3
	c0,0,0,0,0-0.1c-0.1,0-0.2,0.1-0.4,0.1c0-0.2,0.1-0.3,0.1-0.5C2,30,1.9,30,1.9,30.1c0,0-0.1-0.1-0.1-0.1C1.9,29.9,2,29.8,2,29.8
	c-0.2-0.2-0.4-0.4-0.6-0.6c-0.1-0.1-0.1-0.3-0.1-0.4c-0.1-0.3-0.3-0.6-0.3-1c0-0.5-0.4-0.8-0.3-1.3c-0.1,0-0.2,0-0.3,0
	c-0.1-0.2-0.2-0.4-0.2-0.6c0.1-0.1,0.2-0.3,0.3-0.5c-0.2,0-0.3,0-0.4,0.1c0-0.2,0-0.4,0-0.5c0,0-0.1,0-0.1,0c0,0.1,0,0.2,0,0.3
	C-0.3,25-0.3,25-0.1,24.9c0.3-0.2,0.3-0.2,0.1-0.4c-0.1,0.1-0.2,0.2-0.3,0.3c-0.2-0.4-0.5-0.7,0.1-1.1c0,0.1-0.1,0.2-0.1,0.3
	c0,0,0.1,0,0.1-0.1c0.1-0.1,0.2-0.3,0.1-0.3c-0.2-0.3-0.4-0.5,0.1-0.7c0,0,0-0.2,0-0.2c0.2-0.1,0.5-0.1,0.8-0.2
	c-0.2,0.2-0.3,0.4-0.4,0.6c0.1,0.1,0.2,0.2,0.4,0.4c0-0.2,0-0.4,0.1-0.6c0,0,0,0,0,0c0.1,0.3,0.1,0.6,0.2,0.9
	c-0.3-0.1-0.6-0.2-1-0.4c0.2,0.3,0.8,0.4,0.6,0.9c-0.2-0.1-0.4-0.2-0.6-0.3c-0.1,0-0.1,0-0.2,0c0,0.1,0,0.2,0.1,0.2
	c0.1,0.1,0.2,0.2,0.3,0.2c0.2-0.1,0.4-0.1,0.6-0.2c0,0,0.1,0,0.1,0.1C1,24.6,0.9,24.7,0.7,25c0.2,0.1,0.3,0.1,0.5,0.2
	c0,0.1,0,0.3,0,0.6c-0.1-0.1-0.2-0.2-0.4-0.3c0.1,0.3,0.1,0.5,0.2,0.7c0,0,0.2,0,0.4,0c-0.1,0.2-0.2,0.5-0.3,0.7c0,0,0.1,0,0.1,0
	c0,0,0.1-0.1,0.2-0.1c-0.1,0.2-0.2,0.4-0.3,0.6c0,0,0.1,0,0.1,0c0.1-0.1,0.2-0.3,0.3-0.4C2,27.2,2,27.7,1.8,28
	c0.3,0.2,0.7,0.2,0.7,0.7c-0.1-0.1-0.3-0.1-0.5-0.2c0,0,0-0.1,0-0.2c0,0-0.1,0-0.1,0C2,28.5,2,28.7,2.1,29c0.2-0.1,0.3-0.2,0.4-0.3
	c0,0.1,0,0.2-0.1,0.4c0.1-0.1,0.2-0.2,0.3-0.3c0,0.2,0.1,0.4,0.1,0.5c0.3,0.2,0.5,0.3,0.7,0.5c0,0.2-0.1,0.3-0.2,0.6
	c0.2,0,0.3-0.1,0.4-0.1c-0.1,0.1-0.1,0.1-0.2,0.3c0.1,0,0.2-0.1,0.3-0.1c0,0.2-0.1,0.4-0.1,0.6c0.1,0,0.2,0,0.5,0
	C4.1,31.1,4,31.1,4,31.2c0.2,0.2,0.2,0.2,0.4-0.1c0.1,0.1,0.2,0.1,0.4,0.2c0,0.1-0.1,0.2-0.1,0.2c-0.5,0-0.4,0.4-0.3,0.7
	c0.2-0.2,0.4-0.4,0.5-0.5C4.8,31.9,4.9,32.2,5,32.4C5,32.4,5,32.4,5,32.4z"/>
<path d="M29.8,5.6c-0.1-0.2-0.2-0.3-0.3-0.5c-0.1,0.1-0.1,0.2-0.1,0.3C29.2,5,28.8,4.9,28.3,5c0-0.2,0.1-0.3,0.1-0.5
	c-0.1,0.1-0.3,0.1-0.4,0.2c-0.1-0.1-0.2-0.3-0.4-0.4c0.1-0.2,0.1-0.4,0.2-0.6c0,0-0.1-0.1-0.1-0.1c-0.1,0.7-0.6,0.2-0.9,0.4
	c0,0-0.1-0.1-0.1-0.2c-0.1-0.2-0.1-0.4-0.2-0.6c-0.1,0.1-0.1,0.3-0.2,0.4c-0.8-0.1-0.9-0.1-0.9-0.6C25.2,3,25,2.9,24.8,3.4
	c0-0.1-0.1-0.2-0.1-0.2C24.4,3.1,24,3,23.6,2.9c0.2-0.4,0.2-0.4-0.3-0.6c-0.1,0.2-0.1,0.3-0.2,0.5c-0.1-0.1-0.2-0.2-0.3-0.4
	c0,0,0,0-0.1,0c0,0.2,0.1,0.3,0.1,0.5c-0.2,0-0.4-0.1-0.7-0.1c0.2-0.1,0.3-0.2,0.5-0.3c-0.1-0.1-0.2-0.2-0.5-0.2
	c-0.1,0-0.2-0.1-0.3-0.2c0,0.1-0.1,0.1-0.2,0.2C21.5,2.2,21,2,20.8,2.2c-0.2-0.1-0.4-0.2-0.6-0.4C20,1.9,20,2,20.2,2.2
	c0.1,0,0.2,0.2,0.3,0.2c0,0.1-0.1,0.1-0.1,0.2c-0.1-0.1-0.3-0.2-0.4-0.2c-0.2-0.1-0.4-0.3-0.5-0.4c-0.1,0-0.1-0.4-0.4-0.1
	c0-0.1-0.1-0.1-0.1-0.3c0.2,0,0.3,0.1,0.5,0.1c-0.1-0.1-0.1-0.2-0.2-0.2c-0.1-0.1-0.3-0.2-0.3-0.4c0-0.1,0.2-0.2,0.3-0.4
	c0,0.2,0.1,0.3,0.1,0.4c0,0,0.1,0,0.1,0c0-0.1-0.1-0.3-0.1-0.5C19.5,0.7,19.7,0.8,20,1c0,0.1,0,0.1-0.1,0.2c0.1,0,0.2,0,0.3,0
	c0-0.2,0-0.3,0-0.4c0.1,0,0.1,0,0.2,0c0,0.2,0.1,0.4,0.2,0.7c0.2-0.2,0.3-0.3,0.5-0.5c0,0,0.2,0,0.3,0.1c-0.1,0.1-0.2,0.1-0.2,0.2
	c0,0,0.1,0,0.1,0c0.1,0.3,0.3,0.5,0.4,0.8c0.1-0.3,0.1-0.5,0.2-0.7c0,0-0.1-0.1-0.2-0.2c0.2,0,0.5,0.1,0.7,0.1
	c0,0.1,0.1,0.3,0.1,0.4c0.1,0,0.3,0,0.3,0c0.2-0.1,0.4-0.1,0.7-0.2c0,0.2,0,0.4,0,0.5c0.3-0.1,0.7-0.2,1.1-0.3c0,0,0,0,0,0.1
	c-0.1,0.1-0.2,0.2-0.3,0.3c0,0,0,0,0,0c0.1,0,0.1-0.1,0.3-0.1c0,0.1,0,0.2-0.1,0.2c0,0,0.1,0,0.1,0C24.7,2.1,24.8,2,25,2
	c0.3,0,0.6,0.1,0.9,0.1c0.1,0,0.2,0.2,0.2,0.2c0.2,0,0.4-0.1,0.7-0.1c-0.1,0.2-0.2,0.3-0.3,0.4C26.8,2.8,27,2.9,27.1,3
	c0-0.1,0-0.3,0.1-0.5c0,0,0.1,0,0.1,0c0,0.2,0.1,0.4,0.1,0.6c0.1-0.1,0.3-0.2,0.4-0.3c0,0,0.1,0.1,0.2,0.2c0,0-0.1,0.1-0.1,0.2
	c-0.1,0.1-0.1,0.2-0.1,0.3c0.2-0.1,0.3-0.2,0.5-0.4c0,0.1,0,0.2,0.1,0.4c0.2-0.1,0.3-0.1,0.5-0.2c0,0,0-0.1,0-0.1
	c-0.1,0-0.1,0-0.3,0c0-0.1,0.1-0.2,0.1-0.3c0.1,0.1,0.2,0.2,0.4,0.3C29,3.2,29.1,3.1,29.2,3c0.3,0.4,0.5,0.8,0.8,1.1
	c0,0-0.1,0.1-0.1,0.1c-0.1-0.1-0.3-0.1-0.4-0.2c0,0-0.1,0.1-0.1,0.1c0.2,0.2,0.5,0.5,0.7,0.7c0,0,0,0.1-0.1,0.1
	c-0.1,0-0.2-0.1-0.3-0.1c0,0.1,0,0.1,0,0.2c0.2,0,0.3,0,0.5,0.1C30.1,5.2,30,5.4,29.8,5.6C29.8,5.6,29.8,5.6,29.8,5.6z M28.9,3.5
	c-0.1,0-0.1,0-0.2,0c0,0.2,0,0.3,0,0.5c-0.1,0-0.3,0-0.5,0c0,0.1-0.1,0.2-0.1,0.4c0.2,0,0.3-0.1,0.5-0.1c0.5,0,0.7-0.1,0.7-0.6
	c0,0,0-0.1,0-0.2c-0.1,0.1-0.2,0.1-0.2,0.2C29,3.6,29,3.6,28.9,3.7c0,0,0,0,0,0C28.9,3.6,28.9,3.5,28.9,3.5z"/>
<path d="M28,37.6c-0.1,0.2-0.3,0.4-0.3,0.6c-0.1,0.3-0.2,0.2-0.4,0.1c-0.1-0.1-0.2-0.1-0.4-0.1c0,0,0-0.1,0-0.2
	c-0.1,0-0.2,0.1-0.2,0.1c0.1,0.1,0.1,0.3,0.2,0.4c0,0-0.1,0.1-0.1,0.1c-0.1-0.1-0.2-0.2-0.4-0.3c-0.1,0-0.2,0.1-0.3,0.1
	c0,0.1,0.1,0.2,0.1,0.4c-0.2,0-0.3,0.1-0.5,0.1c0.1-0.2,0.5-0.4,0.1-0.7c0,0.1,0,0.1,0,0.1c0,0.1,0,0.2,0,0.3
	c-0.1,0-0.2-0.1-0.3-0.1c-0.2-0.2-0.3-0.3-0.5-0.5c0,0-0.1,0.1-0.1,0.1c0.1,0.1,0.2,0.2,0.4,0.4c0,0.1,0,0.2-0.1,0.3
	c0.1,0,0.2,0,0.2,0c0,0,0,0.1,0,0.1c-0.2,0.1-0.5,0.1-0.7,0.2c-0.1-0.2-0.3-0.5-0.6-0.2c0,0-0.1,0-0.1,0c0,0.3-0.3,0.2-0.4,0.3
	c0-0.1-0.1-0.3-0.1-0.4c0,0,0,0-0.1-0.1c-0.3,0.3-0.6,0.6-0.9,0.9c0,0,0,0-0.1-0.1c0-0.2,0.1-0.3,0.1-0.5c0,0,0,0-0.1,0
	c0,0.1-0.1,0.1-0.2,0.2c0-0.1,0-0.2,0-0.2c-0.2,0-0.3,0-0.5-0.1c-0.1,0-0.2,0-0.3,0c0,0.1,0,0.1,0,0.2c0.1,0,0.1,0,0.2-0.1
	c0,0.1,0,0.2,0.1,0.4c-0.2,0.1-0.5,0.2-0.8,0.2c-0.1,0-0.3,0-0.4-0.1c0,0,0-0.1,0-0.1c0.1,0,0.1-0.1,0.2-0.1
	c-0.2-0.1-0.4-0.3-0.7-0.4c-0.1,0.1-0.2,0.1-0.3,0.3c0.2,0.1,0.5-0.1,0.4,0.3c-0.2,0-0.5,0-0.7,0c0,0.1,0,0.1,0,0.2
	c-0.3-0.1-0.5-0.2-0.7-0.3c0,0,0-0.1,0-0.4c-0.1,0.2-0.1,0.3-0.2,0.4c-0.3,0-0.5,0.1-0.9,0.1c0.1-0.2,0.2-0.4,0.4-0.6
	c0,0,0-0.2,0-0.3c-0.3,0.2-0.6,0.5-0.9,0.7c-0.2-0.1-0.5-0.2-0.8-0.3c-0.1,0-0.2,0-0.3,0c0.1-0.1,0.1-0.2,0.2-0.4
	c-0.3,0.1-0.4,0.2-0.6,0.2c0.1-0.2,0.2-0.4,0.3-0.7c0.3,0.2,0.6,0.5,0.8,0.7c0-0.1,0-0.2,0-0.3c-0.1-0.1-0.3-0.2-0.4-0.3
	c0,0,0-0.1,0.1-0.1c0.3,0.2,0.7,0.2,1.2-0.2c0,0.2,0.1,0.3,0.1,0.5c0,0,0.1,0,0.2-0.1c0.1-0.1,0.1-0.2,0.2-0.3
	c0.1,0.2,0.5,0,0.4,0.4c0,0,0.2,0.2,0.2,0.1c0.2-0.1,0.5-0.2,0.7-0.4c0.1,0,0.2-0.1,0.3-0.1c0,0.1,0,0.2,0,0.4
	c0.1,0,0.2,0.1,0.5,0.3c0-0.2-0.1-0.3-0.1-0.5c0.3-0.1,0.5-0.2,0.8-0.2c0.1,0,0.2,0.2,0.2,0.3c-0.2,0-0.4,0-0.6,0c0,0,0,0.1,0,0.1
	c0.2,0.1,0.4,0.1,0.7,0.2c0,0,0-0.1,0-0.2c0.2,0,0.4,0,0.6,0c0-0.1-0.1-0.3-0.1-0.6c0.1,0.1,0.2,0.2,0.3,0.2
	c0.1-0.1,0.2-0.2,0.3-0.3c0,0.2,0,0.4,0,0.5c0.2-0.2,0.4-0.3,0.6-0.5c0.1,0.5,0.4,0.6,0.8,0.2c0.1-0.1,0.2-0.1,0.3-0.1
	c0,0,0.1,0.2,0.2,0.3c0-0.2,0.1-0.3,0.1-0.5c0.4-0.3,0.5,0.2,0.8,0.5c0-0.2-0.1-0.3-0.1-0.4c0-0.1-0.1-0.3,0-0.3
	c0.1-0.1,0.2-0.1,0.4-0.1c0.1,0,0.2,0.1,0.4,0.2c0.1,0,0.2,0,0.4,0.1c0-0.1,0-0.3,0.1-0.5c0.2,0,0.5,0,0.7-0.3
	c0.1-0.1,0.4-0.3,0.7,0C27.4,37.5,27.8,37.5,28,37.6C28,37.6,28,37.6,28,37.6z"/>
<path d="M10,36.5c0.2,0.2,0.3,0.5,0.5,0.7c0.2-0.2,0.4-0.3,0.6-0.5c-0.2,0.5-0.2,0.5,0.1,0.7c0-0.1,0-0.1,0-0.1c0.6,0,1.2,0,1.9,0
	c-0.1,0.1-0.2,0.2-0.3,0.3c0.3,0.1,0.6,0.1,1,0.2c0,0.1-0.1,0.1-0.1,0.2c0.2,0,0.3,0,0.4-0.1c0-0.1-0.1-0.1-0.1-0.2
	c0.2,0,0.4,0,0.5,0.1c0.1,0.1,0.2,0.2,0.4,0.3c0,0,0.1-0.1,0.1-0.2c0,0,0.1,0,0.1,0.1c0,0.3-0.1,0.5-0.3,0.6c-0.1,0-0.2-0.1-0.3-0.1
	c-0.1,0.1-0.3,0.2-0.4,0.3c0,0,0,0-0.1-0.1c0.1,0,0.1-0.1,0.2-0.2c-0.5,0-0.9,0-1.3,0c0.1-0.1,0.1-0.2,0.2-0.3
	c-0.2-0.1-0.3-0.2-0.5-0.3c-0.1,0.1-0.3,0.2-0.4,0.3c0,0-0.1-0.1-0.2-0.2c-0.4,0.2-0.8,0-1-0.5c-0.1,0.1-0.1,0.2-0.2,0.3
	c-0.3-0.6-0.9-0.7-1.5-0.8C9.5,36.9,9.8,36.7,10,36.5z"/>
<path d="M30.4,5.7c0.2,0.1,0.5-0.1,0.5,0.3c0.1,0,0.2-0.1,0.3-0.1c0,0,0,0.1,0,0.1c0.4,0.2,0.8,0.4,1.2,0.6c-0.1,0-0.2,0.1-0.3,0.2
	c0.1,0.2,0.2,0.3,0.3,0.5c0.2,0,0.3-0.1,0.5-0.1c0.1,0,0.1,0.2,0.2,0.3c0,0,0.1,0,0.1,0c0,0.1-0.1,0.2-0.1,0.3c0,0,0,0,0.1,0
	c0.1-0.1,0.1-0.2,0.2-0.4c0.1,0.3,0.3,0.5,0.4,0.8c0,0,0.1,0,0.2-0.1c0.1,0.6,0.5,0.9,1,1.3c-0.2,0.1-0.3,0.2-0.5,0.3c0,0,0,0,0,0
	c-0.1,0-0.3,0-0.4,0.1c-0.1-0.3-0.1-0.6-0.2-0.9c-0.1,0.1-0.1,0.1-0.2,0.1c-0.1,0-0.2,0-0.2,0.1c0-0.1,0-0.2,0-0.2
	c0-0.1,0-0.2,0-0.3c-0.2,0.1-0.3-0.2-0.5-0.2c-0.4-0.1-0.8-0.3-1.2-0.5c0.1-0.1,0.2-0.2,0.3-0.2c-0.2-0.2-0.4-0.3-0.7-0.5
	c0,0,0.1-0.1,0.2-0.1c0,0,0-0.1,0-0.1c-0.1,0-0.3,0-0.4,0c0,0,0,0.1,0,0.1c-0.2-0.1-0.3-0.2-0.5-0.4c0-0.1,0-0.2,0-0.4
	c-0.1,0.1-0.2,0.1-0.2,0.2c0,0,0,0-0.1,0C30.3,6,30.3,5.9,30.4,5.7L30.4,5.7z"/>
<path d="M33,11c-0.1,0-0.2,0-0.4,0c0,0-0.1-0.1-0.1-0.3c-0.1,0-0.3,0.1-0.5,0.1c0-0.4,0-0.7,0-1.1c-0.1,0-0.3,0-0.5-0.1
	c0-0.1,0-0.2,0.1-0.3c-0.2,0-0.3-0.1-0.5-0.1C31,9.2,31,9.1,31,9c-0.2,0.1-0.4,0.1-0.6,0.2c-0.3,0.1-0.4-0.1-0.4-0.3
	C30.1,8.6,30,8.3,30,8c-0.1,0.1-0.2,0.2-0.3,0.3c-0.1-0.3-0.2-0.5-0.3-0.8c0.1-0.2,0.1-0.2,0.4,0c0.1,0.1,0.3,0,0.5,0
	c0,0.1,0,0.3-0.1,0.5c0.1,0.1,0.3,0.2,0.5,0.4c0-0.2-0.1-0.3-0.1-0.3c0.3,0.2,0.5,0.4,0.8,0.7c0,0,0,0,0,0.1c-0.1,0-0.3,0-0.4,0
	c0,0,0,0.1,0,0.1c0.1,0,0.3,0,0.3,0.1c0.1,0.1,0,0.2,0,0.4c0.1,0,0.2,0,0.4-0.1c0.5-0.2,0.7,0.2,0.9,0.5c0.1,0.1,0.1,0.1,0.2,0.2
	c0.2,0.2,0.3,0.4,0.2,0.7C33,10.8,33,10.9,33,11C33,11,33,11,33,11z"/>
<path d="M37.5,16.6c0,0.2-0.1,0.4-0.1,0.5c0,0-0.1,0-0.2,0c-0.1-0.3-0.2-0.6-0.3-0.8c0,0,0,0,0.1,0c0.1,0.1,0.1,0.2,0.2,0.4
	c0,0,0.1,0,0.1-0.1c-0.1-0.3-0.2-0.5-0.3-0.8c-0.3,0.1-0.4-0.1-0.4-0.5c0.1,0,0.3-0.1,0.3-0.1c-0.1-0.2-0.1-0.4-0.2-0.6
	c0,0.1-0.1,0.2-0.1,0.3c-0.3-0.3-0.2-0.6,0-1c-0.1,0-0.2,0.1-0.3,0.1c-0.1-0.1-0.1-0.2-0.2-0.4c0,0,0,0,0.1,0
	c0.1,0.1,0.1,0.1,0.2,0.2c0.1-0.3,0.1-0.5-0.3-0.7c-0.1,0-0.1-0.2-0.1-0.3c0.1-0.3,0.2-0.5,0.3-0.8c0,0,0,0,0,0
	c0.1,0.2,0.3,0.3,0.3,0.5c0.1,0.4,0.2,0.4,0.5,0.3c0,0,0,0.1,0,0.1c-0.3,0.3-0.3,0.3-0.2,0.7c0.1,0.3,0.2,0.6,0.3,0.9
	c0,0,0.1,0.1,0.1,0.1c0.1,0,0.1,0.1,0.2,0.1c0,0.1-0.1,0.2-0.1,0.2c0.1,0,0.1,0,0.1,0c0,0.2,0.1,0.4,0.1,0.6
	C37.5,16,37.7,16.3,37.5,16.6z"/>
<path d="M36.3,12.2c0-0.2,0-0.4,0-0.6c0,0-0.1,0-0.1,0c0,0.1,0,0.3,0,0.4c0,0.2,0.1,0.5-0.4,0.4c0,0,0,0-0.1,0
	c-0.2,0.1-0.2,0.1-0.3-0.2c0.1,0,0.1,0,0.2,0.1c0-0.2,0-0.3,0.1-0.5c-0.1,0-0.2,0.1-0.2,0.1c-0.1,0-0.1,0-0.2,0c0-0.1,0-0.1,0-0.2
	c0.2-0.3,0.1-0.4-0.3-0.5c0.1,0.2,0.2,0.3,0.3,0.4c0,0,0,0.1,0,0.1c-0.1,0-0.2,0-0.3-0.1c-0.1-0.1-0.2-0.3-0.3-0.5
	c0-0.1,0.2-0.2,0.1-0.4c0-0.1-0.2-0.2-0.3-0.2c-0.1-0.1-0.2-0.1-0.3-0.2c0-0.2,0-0.5,0-0.7c0,0,0,0,0.1-0.1c0,0,0,0,0,0
	c0.2,0.1,0.3,0.2,0.5,0.2c0,0,0,0-0.1,0.1c0.2,0,0.3-0.1,0.5-0.1c0,0.3,0.1,0.6,0.1,0.9c0.1-0.1,0.1-0.2,0.2-0.3
	c0.2,0.2,0.4,0.4,0.5,0.5c0,0,0,0-0.1,0.1c-0.2-0.1-0.3-0.2-0.5-0.2c0,0,0,0.1-0.1,0.1c0.2,0.1,0.2,0.4,0.5,0.4
	c0.2,0,0.4,0.1,0.4,0.2c0.2,0.3,0.3,0.6,0.4,1C36.6,12.3,36.4,12.3,36.3,12.2C36.3,12.2,36.3,12.2,36.3,12.2z"/>
<path d="M16,36.5c0-0.1,0-0.2,0.1-0.4c-0.2,0.2-0.4,0.4-0.6,0.6c-0.1-0.1-0.1-0.2-0.2-0.4c-0.1,0-0.2,0-0.4,0c0-0.1,0-0.2,0-0.3
	c-0.3,0,0.1,0.6-0.4,0.4c0-0.1,0.1-0.1,0.2-0.3c-0.3,0-0.6-0.1-1-0.1c0-0.1-0.1-0.3-0.1-0.4c0.1-0.1,0.2-0.2,0.3-0.2
	c0.1,0.1,0.1,0.3,0.2,0.5c0,0-0.1,0-0.1,0c0.1,0,0.2-0.1,0.4-0.1c0.1,0,0.2,0.1,0.3,0.1c0.1-0.1,0.3-0.3,0.4-0.4c0,0,0,0.1,0.1,0.1
	c-0.1,0.1-0.1,0.1-0.2,0.2c0.3,0.1,0.7-0.1,0.8,0.3c0.2-0.1,0.4-0.2,0.6-0.4c0,0.1,0.1,0.2,0.1,0.2c0.2-0.1,0.4-0.2,0.5-0.3
	c0.2,0.3,0.4,0.6,0.6,0.8c0.2-0.2,0.2-0.3,0.3-0.4c0.2,0.4,0.2,0.4-0.2,0.7c0-0.1-0.1-0.1-0.1-0.2c-0.1,0.1-0.2,0.2-0.3,0.3
	c0,0-0.1-0.1-0.1-0.1c0-0.1,0.1-0.2,0.1-0.4C16.7,36.5,16.5,35.8,16,36.5z"/>
<path d="M27.6,34.5c0-0.1-0.1-0.1-0.1-0.3c0.2,0.1,0.3,0.1,0.5,0.2c-0.1-0.1-0.1-0.2-0.1-0.3c0,0,0-0.1,0-0.1
	c0.2,0.1,0.4,0.2,0.5,0.3c-0.2,0.3-0.5,0.5-0.7,0.8c-0.1-0.1-0.2-0.3-0.2-0.3c-0.2,0-0.3,0-0.5,0c0.1,0.2,0.2,0.4,0.2,0.6
	c0,0-0.1,0-0.1,0.1c-0.1-0.1-0.1-0.2-0.2-0.4c-0.2,0.1-0.3,0.2-0.5,0.3c-0.1-0.1-0.2-0.3-0.4-0.4c0,0-0.1,0-0.1,0.1
	c0,0.1,0.1,0.2,0.1,0.4c0,0,0,0-0.1,0c0-0.1-0.1-0.1-0.2-0.2c0,0.2,0,0.3,0.1,0.4c-0.4,0-0.6-0.1-0.5-0.5c0-0.1,0.1-0.2,0.2-0.2
	c0.2-0.1,0.5-0.2,0.7-0.2c0.1,0,0.2,0,0.3,0c0.1,0,0.2,0,0.4,0C27.2,34.6,27.4,34.6,27.6,34.5z"/>
<path d="M22,36c0.2,0,0.5-0.1,0.7-0.1c0,0,0,0,0-0.1c-0.1,0-0.2,0-0.3,0c0,0,0,0,0-0.1c0.2-0.1,0.5-0.1,0.8-0.2
	c0,0.1-0.1,0.2-0.1,0.3c0.2,0,0.4,0.1,0.6,0.1c0,0,0-0.1,0-0.1c-0.1,0-0.1,0-0.2-0.1c0.1-0.1,0.3-0.2,0.5-0.4
	c-0.1,0.2-0.1,0.3-0.1,0.4c0.3,0.3,0.9,0.1,1.1,0.6c-0.2,0.1-0.5-0.4-0.7,0.1c-0.1-0.1-0.2-0.2-0.3-0.3c0,0-0.1,0-0.1,0.1
	c0.1,0.1,0.2,0.2,0.3,0.4c-0.2,0-0.5,0-0.7,0c0-0.1,0.1-0.3,0.2-0.5c-0.2,0.1-0.3,0.1-0.5,0.2c0,0.1,0.1,0.2,0.2,0.3
	c-0.3,0.1-0.6-0.5-0.8-0.1c-0.2-0.1-0.3-0.2-0.5-0.3C22,36.1,22,36.1,22,36z"/>
<path d="M29.5,36.6c0.1,0.2,0.2,0.3,0.3,0.5c0,0.1,0,0.2-0.1,0.3c-0.1,0.1-0.2,0.3-0.2,0.3c-0.4-0.1-0.6,0-0.9,0.2
	c-0.3,0.1-0.4,0-0.5-0.2c0,0,0,0,0,0c0-0.1,0-0.3-0.1-0.5c0.2,0.2,0.2,0.2,0.3,0.3c0-0.2,0-0.4,0-0.7c0.2,0.1,0.3,0.2,0.4,0.2
	c-0.2-0.6,0.4-0.4,0.6-0.7c0,0.2,0,0.3,0,0.5c0,0,0.1,0,0.1,0C29.4,36.7,29.4,36.7,29.5,36.6z"/>
<path d="M10.6,5.4c0,0.1,0,0.2-0.1,0.2c0,0-0.1,0-0.1,0c-0.1-0.3-0.2-0.5-0.2-0.7c0.4-0.3,0.7-0.5,1-0.7c0,0,0,0.1,0.1,0.1
	c-0.1,0-0.1,0.1-0.3,0.2c0.3,0.1,0.4,0.1,0.6,0.1c0,0,0-0.1,0-0.1c-0.1,0-0.1,0-0.3,0.1c0.2-0.3,0.3-0.5,0.4-0.7
	c0,0,0.1,0.1,0.1,0.1c0,0.1-0.1,0.2-0.2,0.3c0.2,0,0.5-0.4,0.7,0c-0.1,0-0.2,0.1-0.3,0.1c0.1,0.1,0.1,0.2,0.2,0.3
	c-0.2,0-0.5-0.3-0.5,0.2c-0.1-0.1-0.2-0.2-0.2-0.2c-0.1,0.2-0.3,0.4-0.4,0.6C11,5.3,11,5.2,11,5.1c0,0,0,0,0,0c0,0.2,0.1,0.4,0,0.5
	c-0.2,0.3-0.3,0.1-0.3-0.2C10.6,5.4,10.6,5.4,10.6,5.4z"/>
<path d="M16.9,1.4c0.1-0.3,0.1-0.6,0.2-0.8c0-0.1,0.2-0.2,0.2-0.1c0.3,0.1,0.5,0.2,0.8,0.3c0.2,0.1,0.4,0,0.7,0.1
	c-0.1,0.2-0.1,0.4-0.1,0.5c-0.2,0.1-0.4,0.2-0.6,0.3c0,0,0,0,0,0c0,0-0.1-0.1-0.1-0.2c-0.1,0.6-0.5,0.2-0.8,0.4
	c0-0.2,0.1-0.3,0.1-0.5C17.2,1.3,17.1,1.3,16.9,1.4z"/>
<path d="M20.6,37c-0.4-0.4-0.8,0.1-1.2-0.1c0.1,0,0.1,0,0.3-0.1c-0.2-0.1-0.3-0.2-0.4-0.3c0,0,0,0.1-0.1,0.1c0.1,0,0.1,0,0.3,0.1
	c-0.3,0.2-0.5,0.3-0.7,0.4c0,0-0.1-0.1-0.1-0.1c0.1-0.1,0.1-0.2,0.2-0.2c-0.2-0.1-0.3-0.1-0.5-0.2c0,0,0-0.1,0.1-0.1
	c0.1,0,0.1,0,0.3,0.1c-0.1-0.2-0.1-0.3-0.2-0.5c0.1,0.1,0.3,0.3,0.4,0.4c0.1-0.1,0.2-0.1,0.3-0.2c0,0.1,0.1,0.2,0.1,0.2
	c0.2-0.1,0.4-0.2,0.6-0.4c0,0.2,0,0.2,0.1,0.4c0.1-0.2,0.1-0.4,0.2-0.4c0.3-0.1,0.3,0,0.1,0.4c0.2-0.1,0.3-0.2,0.4-0.3
	C20.6,36.5,20.6,36.7,20.6,37C20.6,37,20.6,37,20.6,37z"/>
<path d="M35.3,28.7c-0.3,0-0.8-0.2-0.7,0.4c-0.1,0-0.3,0-0.4,0c0-0.1,0-0.3,0-0.4c-0.1,0-0.2,0-0.3,0c0.2-0.2,0.6-0.3,0.5-0.7
	c0.1,0,0.2,0.1,0.3,0.1c0,0,0-0.1,0.1-0.1c-0.1-0.1-0.1-0.2-0.2-0.2c0.2,0,0.3,0,0.5-0.1c0,0,0-0.1,0-0.1c0.1,0.1,0.1,0.1,0.3,0.2
	c-0.1-0.2-0.2-0.3-0.2-0.5c0.6,0.1,0.8,0.6,0.4,1c-0.1,0.1-0.3,0-0.5,0C35,28.4,35.1,28.5,35.3,28.7z"/>
<path d="M0.8,20.9c-0.5-0.1-0.6,0.3-0.8,0.5c0,0,0.1,0.1,0.1,0.1c0.3-0.2,0.6-0.4,0.9-0.6c0,0.1,0.1,0.2,0.1,0.3
	c-0.2,0-0.3,0.1-0.4,0.1c0.1,0.1,0.3,0.2,0.4,0.3C1.1,21.8,1,21.9,0.9,22c-0.2,0.2-0.3,0.3-0.6,0.6c0-0.2-0.1-0.3-0.1-0.5
	c-0.1,0-0.2,0-0.3-0.1c0-0.2,0.1-0.4,0-0.6c-0.1-0.4,0.1-0.6,0.5-0.7c0.1,0,0.2-0.1,0.4-0.1C0.7,20.7,0.8,20.8,0.8,20.9z"/>
<path d="M14.5,3.7c0-0.1,0-0.2,0-0.3c0,0,0.1,0,0.1,0c0,0.1,0,0.1,0.1,0.3c0.1-0.3,0.2-0.6,0.3-0.8c0.1,0.1,0.2,0.2,0.3,0.3
	c0.1,0,0.2-0.1,0.4-0.2c0.1,0.1,0.1,0.2,0.2,0.3c0-0.1,0.1-0.2,0.1-0.2c-0.1-0.4-0.1-0.4,0.3-0.5c-0.1,0.1-0.1,0.2-0.2,0.2
	c0,0,0,0.1,0,0.1c0.2-0.1,0.4-0.2,0.7-0.2c0,0,0.1-0.1,0.1-0.1C17,2.7,17,2.7,17.1,2.8c0.1,0.1,0.1,0.1,0.2,0.2
	c-0.1,0.1-0.1,0.3-0.2,0.4c-0.1-0.2-0.2-0.3-0.2-0.5c-0.2-0.1-0.3,0.5-0.6,0.2c-0.1,0.2-0.1,0.4-0.2,0.6c0,0-0.1,0-0.1,0
	C16,3.6,16,3.5,16,3.5c-0.3,0-0.6,0-0.9,0.1c-0.2,0.1-0.3,0.3-0.4,0.5C14.6,4,14.6,3.8,14.5,3.7C14.5,3.7,14.5,3.7,14.5,3.7z"/>
<path d="M0.2,19.2c0.2,0,0.3-0.1,0.5-0.1c0.1-0.2,0.2-0.4,0.4-0.7c0.1,0.1,0.2,0.2,0.3,0.4c0.1-0.1,0.2-0.1,0.3-0.2
	c0,0.1,0,0.1,0,0.1c-0.2,0.3-0.3,0.5-0.5,0.8c-0.1,0.3-0.3,0.7,0,1.1c-0.3,0-0.6,0-0.6-0.1c-0.1-0.2-0.2-0.4-0.2-0.7
	c0-0.1,0.3-0.2,0.5-0.3C0.5,19.4,0.4,19.3,0.2,19.2z"/>
<path d="M19.4,2.2c0,0.1,0.1,0.1,0.1,0.2c-0.1,0-0.2,0-0.3,0c0.1,0.2,0.2,0.4,0.3,0.6c-0.2-0.1-0.3-0.3-0.4-0.3
	c-0.1,0-0.2,0.1-0.4,0.2c0,0,0-0.1,0-0.1c-0.3-0.1-0.3,0.7-0.7,0.3c-0.1,0.1-0.2,0.2-0.3,0.3c0,0-0.1,0-0.1-0.1
	c0-0.1,0.1-0.2,0.1-0.3c0,0,0,0-0.1,0c-0.1,0.2-0.3,0.3-0.4,0.5c-0.2-0.3,0.4-0.4,0.1-0.7c0.3-0.3,0.4-0.3,0.5,0
	c0-0.1,0.1-0.2,0.1-0.4c0.2,0.1,0.5,0.2,0.7,0.3c-0.1-0.2-0.2-0.4-0.1-0.4C18.7,2.1,18.9,2,19.1,2c0,0,0,0.1,0.1,0.1
	C19,2.1,19,2.2,18.9,2.3c0,0,0,0.1,0.1,0.1C19.1,2.3,19.3,2.3,19.4,2.2C19.4,2.2,19.4,2.2,19.4,2.2z"/>
<path d="M31.5,33c-0.2,0-0.3,0-0.4-0.1c0,0.1,0,0.2,0,0.2c-0.4,0-0.8-0.1-1.2-0.1c0.5-0.8,0.9-0.9,1.2-0.3c0-0.2,0-0.5,0-0.7
	c0-0.1,0.1-0.3,0.1-0.3c0.1,0,0.3,0,0.4,0.1c0.2,0.1,0.4,0.4,0.7,0.2c0,0,0,0.1,0,0.1c-0.1,0.1-0.2,0.2-0.4,0.3
	c-0.2-0.2-0.4-0.4-0.6-0.6C31.3,32.2,31.4,32.6,31.5,33z"/>
<path d="M12.3,35.8c-0.3,0-0.5,0-0.7,0c0,0,0-0.1,0-0.1c0.1,0,0.2,0,0.2-0.1c-0.1-0.2-0.1-0.4-0.2-0.5c0.2,0,0.4,0,0.5,0
	c0.3,0.2,0.5,0,0.7,0c0,0,0.1,0.1,0.1,0.2c0.1,0,0.2-0.1,0.3-0.2c0,0,0,0.1,0.1,0.1c-0.1,0.1-0.1,0.1-0.2,0.2c0,0,0,0,0,0.1
	c0.2-0.1,0.3-0.2,0.6-0.3c-0.1,0.1-0.1,0.2-0.2,0.3c-0.1,0.1-0.4,0.1-0.2,0.3c-0.1,0-0.2,0.1-0.3,0.1c-0.1,0-0.2-0.1-0.3-0.2
	c0,0-0.1,0.1-0.1,0.1c-0.4,0-0.2-0.6-0.7-0.4C12.1,35.6,12.2,35.7,12.3,35.8z"/>
<path d="M32.3,31.6c-0.5,0.3-0.7,0.3-0.8,0c0-0.1,0.2-0.3,0.3-0.5c0.1,0.2,0.2,0.3,0.2,0.3c0.2,0,0.3-0.1,0.6-0.1
	c-0.1,0-0.2-0.1-0.3-0.1c0.1-0.1,0.1-0.2,0.2-0.3c0.2,0.1,0.4,0.3,0.6,0.4c0,0-0.1,0.1-0.1,0.1c-0.1,0-0.2-0.1-0.3-0.1
	c0,0,0,0,0,0.1c0.1,0.1,0.2,0.2,0.3,0.3c-0.2,0.1-0.4,0.2-0.6,0.2C32.3,31.8,32.3,31.7,32.3,31.6z"/>
<path d="M14.5,3.7C14.5,3.7,14.5,3.7,14.5,3.7c0,0.2-0.1,0.4-0.1,0.6c-0.1-0.1-0.1-0.2-0.2-0.3c0,0.2,0,0.3-0.1,0.4
	c-0.3-0.2-0.6-0.4-0.9-0.6c-0.1,0.3-0.1,0.4-0.1,0.6c-0.3-0.4-0.3-0.4-0.1-0.8c0.1,0,0.1,0.1,0.1,0.1c0.1-0.1,0.2-0.3,0.3-0.4
	c0,0,0.1,0,0.1,0.1c0,0.1,0,0.2,0,0.4C13.9,3.7,14.2,3.7,14.5,3.7z"/>
<path d="M29.5,34.5c-0.2,0.1-0.4,0.2-0.6,0.3c0-0.1,0.1-0.2,0.1-0.2c-0.2-0.2-0.3-0.3-0.5-0.5c0,0,0-0.2,0.1-0.2
	c0,0,0.1-0.1,0.1-0.1c0,0.1,0.1,0.2,0.1,0.3c0.1-0.1,0.3-0.2,0.4-0.3c0.1,0.1,0.1,0.2,0.2,0.3c0,0,0.1,0,0.1,0c0-0.2,0-0.3,0-0.4
	c0.2,0.1,0.4,0.2,0.7,0.4c-0.5,0.1-0.9,0.5-1.3,0c0,0,0,0.1,0,0.1C29,34.2,29.2,34.3,29.5,34.5z"/>
<path d="M33,30.6c0,0.1-0.1,0.2-0.1,0.2c-0.2-0.1-0.4-0.1-0.6-0.2c0.1-0.2,0.3-0.5,0.5-0.7c0.2-0.2,0.3-0.3,0.5,0
	c-0.1,0.1-0.2,0.1-0.2,0.2c-0.1,0.1-0.1,0.2-0.1,0.3c0.1,0,0.1-0.1,0.2-0.1c0.1,0,0.1,0,0.2,0.1c0.1,0.1,0.1,0.2,0.2,0.4
	C33.4,30.7,33.2,30.6,33,30.6z"/>
<path d="M33.2,29.3c0.1-0.1,0.2-0.2,0.4-0.3c0.1,0.1,0.2,0.2,0.3,0.3c0-0.1,0.1-0.2,0.1-0.3c0.6,0.2,0.6,0.3,0.4,0.6
	c0.1,0,0.1,0,0.2,0c0,0-0.1,0.1-0.1,0.1c0,0-0.1,0-0.2,0.1c0-0.1,0-0.2,0-0.2c0-0.1,0-0.1,0-0.2c-0.2,0.1-0.4,0.3-0.6,0.3
	C33.4,29.8,33.3,29.5,33.2,29.3z"/>
<path d="M0.6,17.8c-0.1,0-0.1,0-0.2,0.1c0.1-0.1,0.1-0.2,0.2-0.3c0.1,0.1,0.2,0.3,0.3,0.4c0.5-0.6,0.5-0.6,0.9-0.2
	c0,0.1-0.1,0.2-0.1,0.4c-0.2-0.1-0.4-0.1-0.7-0.3C1.1,18,1.1,18,1.2,18.1C1,18,0.5,18.5,0.6,17.8z"/>
<path d="M31.2,4.4c0.1-0.1,0.2-0.3,0.3-0.3c0.2,0,0.4,0.1,0.5,0.1c0,0,0,0.2,0,0.3c0.1,0,0.2,0,0.5,0c-0.4,0.2-0.6,0.5-0.9,0.1
	c-0.1-0.1-0.2-0.1-0.3-0.2C31.3,4.5,31.2,4.5,31.2,4.4z"/>
<path d="M6.4,32.5c-0.2,0-0.4,0.1-0.6,0.1c0,0,0,0.1,0,0.1c0.1,0,0.2,0.1,0.4,0.1c0,0,0,0.1,0,0.1c-0.2-0.1-0.4-0.1-0.6-0.2
	c0.1-0.3,0.2-0.5,0.3-0.8c-0.1,0-0.2-0.1-0.2-0.1c0,0,0-0.1,0-0.1c0.2,0.1,0.4,0.1,0.6,0.2c-0.2,0.1-0.3,0.2-0.5,0.4
	c0.3,0,0.6-0.1,0.8-0.1c0,0,0,0.1,0,0.1C6.6,32.4,6.5,32.4,6.4,32.5C6.4,32.5,6.4,32.5,6.4,32.5z"/>
<path d="M8.8,34.1c0.1,0,0.3,0.1,0.4,0.1c0,0.2,0.1,0.3,0.1,0.3c0.3,0.2,0.5,0.3,0.7,0.4C9.9,35,9.9,35,9.9,35
	c-0.3-0.2-0.6-0.2-0.9-0.3C8.9,34.7,8.9,34.3,8.8,34.1L8.8,34.1z"/>
<path d="M1.8,16.1c0,0.2-0.1,0.4-0.1,0.6c0,0.1,0,0.2,0,0.3c0,0.3-0.2,0.3-0.4,0.2c0.1-0.2,0.2-0.4,0.3-0.6c-0.2,0-0.2,0-0.3,0
	c0-0.1,0.1-0.2,0.1-0.2c-0.1-0.3,0-0.3,0.3-0.2C1.7,16.2,1.8,16.2,1.8,16.1C1.9,16.1,1.8,16.1,1.8,16.1z"/>
<path d="M35.7,7.4c0,0.2-0.1,0.4-0.1,0.6c-0.1-0.1-0.2-0.2-0.4-0.3C35,7.7,34.8,7.3,35.1,7c0.2,0.1,0.3,0.2,0.5,0.3
	c-0.2,0.1-0.3,0.1-0.4,0.2c0,0,0,0.1,0,0.1C35.3,7.5,35.5,7.5,35.7,7.4z"/>
<path d="M24.6,35.5c0.1-0.3,0.4-0.2,0.6-0.2c0.1,0,0.2,0.1,0.3,0.1c0,0,0,0.1-0.1,0.1c-0.1,0-0.1-0.1-0.2-0.1
	c-0.1,0-0.2,0.1-0.3,0.1c0.1,0,0.2,0.1,0.2,0.1c0,0.2,0,0.4,0,0.5c0,0-0.1,0-0.1,0C24.9,36,24.7,35.7,24.6,35.5L24.6,35.5z"/>
<path d="M5,32.4c0.1-0.1,0.3-0.2,0.4-0.3C5.3,32,5.2,31.8,5,31.6c0.5-0.2,0.4,0.4,0.7,0.5C5.6,32.6,5.3,32.5,5,32.4
	C5,32.4,5,32.4,5,32.4z"/>
<path d="M30.7,3.6c-0.1,0.3-0.1,0.6-0.2,1c-0.1-0.2-0.3-0.4-0.4-0.6c0.1-0.1,0.3-0.3,0.5-0.5C30.6,3.6,30.6,3.6,30.7,3.6z"/>
<path d="M14.8,39c0.3-0.2,0.1-0.9,0.7-0.8c-0.1,0.2-0.2,0.4-0.2,0.6C15.2,39.1,15,38.9,14.8,39z"/>
<path d="M7.3,32.5c0.1,0.2,0.2,0.3,0.2,0.4c-0.1,0.3-0.6,0.4-0.7,0.4C6.9,33.1,7,32.8,7.3,32.5z"/>
<path d="M28.1,6c0,0.1,0,0.2,0,0.2c0.2,0,0.4,0,0.7,0c0,0,0,0.1,0,0.1c-0.3,0.1-0.7,0.1-1,0.2C27.7,6.3,27.7,6.3,28.1,6z"/>
<path d="M33,5.2c0.2,0.3,0.3,0.5,0.5,0.8c0,0.1,0,0.1,0,0.2c-0.2,0-0.4,0-0.6-0.1C32.9,6.1,32.9,6,33,6C32.9,5.7,32.9,5.5,33,5.2
	C32.9,5.3,32.9,5.2,33,5.2z"/>
<path d="M22,36c0,0.1,0,0.1,0,0.2c0,0-0.1,0.1-0.1,0.1c-0.1-0.1-0.1-0.2-0.2-0.3c0,0-0.1,0-0.1,0c0,0.2,0,0.4,0.1,0.6
	c-0.1,0-0.2,0-0.3,0l0,0c0-0.3,0.1-0.5,0.1-0.8C21.6,35.9,21.8,36,22,36z"/>
<path d="M5,27.9c0.3,0.1,0.6,0.2,0.9,0.3c0,0.2-0.3,0.2-0.5,0.3c0-0.1,0-0.2,0.1-0.2c-0.2-0.1-0.4-0.2-0.5-0.3C4.9,28,5,28,5,27.9z"
	/>
<path d="M8.8,34.1c-0.3,0-0.4,0-0.2-0.3c0.1-0.1,0.1-0.3,0.1-0.4c0.1,0.1,0.3,0.2,0.5,0.4c-0.2,0-0.3,0.1-0.5,0.1
	C8.8,33.8,8.8,34,8.8,34.1C8.8,34.1,8.8,34.1,8.8,34.1z"/>
<path d="M19.5,1.9c0.2,0.1,0.4,0.3,0.5,0.4c0,0.1,0,0.2-0.1,0.3c0,0.1-0.1,0.2-0.2,0.3c0-0.3-0.1-0.5-0.2-0.8c-0.1,0-0.1,0-0.2,0
	c0,0,0,0,0,0C19.4,2.1,19.5,2,19.5,1.9z"/>
<path d="M30.4,5.7c-0.2,0-0.3,0.1-0.5,0c0,0-0.1-0.1-0.1-0.2c0,0,0,0,0,0c0.2-0.1,0.4-0.3,0.6-0.4c0,0,0.1,0,0.2-0.1
	C30.5,5.4,30.5,5.6,30.4,5.7C30.4,5.7,30.4,5.7,30.4,5.7z"/>
<path d="M8.6,34.2c-0.3,0.2-0.5,0.2-0.7,0c-0.1-0.2-0.2-0.4,0-0.6C7.9,34,8.1,34.2,8.6,34.2z"/>
<path d="M15.5,1.8c0-0.1,0.1-0.2,0.1-0.3c0.1-0.1,0.3-0.1,0.4-0.2C16,1.8,15.9,1.9,15.5,1.8z"/>
<path d="M9.5,5.5c0.2,0,0.4,0.1,0.3,0.4c0,0.1,0,0.2,0,0.4c-0.1,0-0.2,0-0.3,0c0-0.2,0-0.3,0.1-0.4C9.5,5.8,9.4,5.7,9.3,5.7
	C9.4,5.6,9.5,5.6,9.5,5.5L9.5,5.5z"/>
<path d="M6.4,32.5c0.2,0,0.3,0,0.5,0c-0.1,0.5-0.1,0.5-0.7,0.2C6.3,32.6,6.4,32.5,6.4,32.5C6.4,32.5,6.4,32.5,6.4,32.5z"/>
<path d="M34,14.1c-0.1-0.1-0.1-0.2-0.1-0.3c0.2-0.1,0.4-0.1,0.6-0.2c0,0.2,0,0.4-0.1,0.6C34.2,14.1,34.3,13.7,34,14.1z"/>
<path d="M29.4,6.7c0,0.2,0.1,0.3,0.1,0.5c-0.2,0.1-0.4,0.2-0.7,0.3c0,0,0,0,0-0.1C29,7.2,29.2,7,29.4,6.7z"/>
<path d="M5.3,27c-0.2,0.1-0.5,0.2-0.7,0.3c0-0.1,0-0.3,0.1-0.4C4.9,26.9,5.1,26.9,5.3,27C5.3,27,5.3,27,5.3,27z"/>
<path d="M10.9,35.2c0.1-0.2,0.3-0.4,0.4-0.6c0,0,0,0,0.1,0.1c-0.1,0.2-0.1,0.5-0.2,0.7c0.1,0.1,0.1,0.2,0.2,0.3
	c-0.1,0-0.1,0.1-0.2,0.1C11.1,35.5,11,35.3,10.9,35.2C11,35.1,10.9,35.1,10.9,35.2C10.9,35.2,10.9,35.2,10.9,35.2L10.9,35.2z"/>
<path d="M21.3,36.7c0.1,0,0.2,0.1,0.3,0.1c-0.1,0.3-0.2,0.3-0.5,0.2c-0.1,0-0.3,0-0.4,0c0,0,0,0,0,0c0.2-0.4,0.5-0.2,0.9,0
	C21.4,36.9,21.3,36.8,21.3,36.7C21.3,36.7,21.3,36.7,21.3,36.7z"/>
<path d="M9.5,5.5c-0.1,0-0.2,0-0.3,0C9.3,5.2,9.3,5.2,10,5c0,0,0,0.1,0,0.1C9.9,5.2,9.7,5.2,9.5,5.3C9.5,5.3,9.5,5.4,9.5,5.5
	C9.5,5.5,9.5,5.5,9.5,5.5z"/>
<path d="M31.2,4.4c0,0,0.1,0.1,0.1,0.1c-0.3,0.4,0.3,0.1,0.2,0.3c-0.6,0-0.9-0.2-0.7-0.6c0,0.1,0,0.2,0,0.4
	C30.9,4.6,31.1,4.5,31.2,4.4z"/>
<path d="M5.4,27.9c-0.2-0.1-0.4-0.2-0.7-0.3c0.2-0.1,0.3-0.1,0.5-0.2C5.3,27.5,5.3,27.7,5.4,27.9z"/>
<path d="M30.1,33.8c-0.2-0.1-0.4-0.2-0.5-0.3c0,0,0-0.1,0-0.1c0.1,0,0.2,0,0.4-0.1C30.1,33.4,30.1,33.6,30.1,33.8
	C30.2,33.7,30.1,33.8,30.1,33.8z"/>
<path class="st0" d="M20.8,38.8c0,0.1,0,0.2,0,0.2c-0.3-0.1-0.5-0.1-0.7-0.2c0,0,0-0.1,0-0.1c0.2,0,0.4,0,0.6,0
	C20.7,38.8,20.7,38.8,20.8,38.8z"/>
<path d="M20.8,2.4C21,2.9,21,2.9,20.4,3C20.5,2.8,20.6,2.6,20.8,2.4z"/>
<path d="M10.2,34.7c0.1-0.5,0.1-0.5,0.6-0.4C10.6,34.5,10.4,34.6,10.2,34.7z"/>
<path d="M10.9,35.2c0,0.1,0,0.1-0.1,0.2c-0.1-0.2-0.3-0.4-0.4-0.6C10.7,34.8,11,34.8,10.9,35.2C10.9,35.2,10.9,35.2,10.9,35.2z"/>
<path d="M24.6,35.5c0,0.1,0,0.2,0,0.4c-0.2,0-0.4-0.1-0.5-0.1c0,0,0-0.1,0-0.2C24.2,35.5,24.4,35.5,24.6,35.5
	C24.6,35.5,24.6,35.5,24.6,35.5z"/>
<path class="st0" d="M3.2,15.4c-0.1,0-0.1,0-0.2,0c0,0,0,0,0,0.1c0.1,0,0.2,0.1,0.3,0.1c-0.4,0.4-0.5-0.1-0.8-0.2
	C2.7,15.4,3,15.4,3.2,15.4C3.2,15.4,3.2,15.4,3.2,15.4z"/>
<path class="st0" d="M6.6,7.2C6.6,7.1,6.5,6.8,6.4,6.6c0.2,0,0.4,0.1,0.5,0.1C6.8,6.9,6.7,7,6.6,7.2z"/>
<path class="st0" d="M3.3,20.9c0.1,0.3,0.2,0.5,0.3,0.8c-0.1,0-0.1,0-0.2,0.1c0-0.1-0.1-0.2-0.1-0.4c0-0.1-0.1-0.1-0.1-0.2
	c0,0-0.1,0-0.1,0C3.2,21.1,3.3,21,3.3,20.9C3.3,20.9,3.3,20.9,3.3,20.9z"/>
<path class="st0" d="M36.5,19.2c0.3-0.2,0.5-0.4,0.8-0.7c0,0,0.1,0.1,0.2,0.1c0,0.2,0,0.4,0,0.5C37.3,19.1,36.9,19.2,36.5,19.2z"/>
<path class="st0" d="M36.4,16.7c-0.1,0.1-0.1,0.1-0.2,0.2c0,0,0,0,0,0.1c0.1,0,0.2,0,0.5-0.1c-0.2,0.2-0.4,0.3-0.5,0.5
	c-0.1-0.1-0.2-0.2-0.4-0.4C36,16.9,36.2,16.8,36.4,16.7C36.4,16.7,36.4,16.7,36.4,16.7z"/>
<path class="st0" d="M36.9,17.9c0.4-0.3,0.6-0.2,0.9,0.2c-0.1,0.1-0.2,0.1-0.4,0.3C37.6,17.7,37,18.1,36.9,17.9z"/>
<path class="st0" d="M2.5,28.7c-0.1,0.1-0.3,0.2-0.4,0.3C2,28.7,2,28.5,1.9,28.3c0,0,0.1,0,0.1,0c0,0.1,0,0.2,0,0.2
	C2.2,28.6,2.4,28.7,2.5,28.7C2.5,28.7,2.5,28.7,2.5,28.7z"/>
<path class="st0" d="M28.9,3.5c0,0.1,0,0.1-0.1,0.2c0,0,0,0,0,0c0-0.1,0.1-0.1,0.1-0.2c0.1,0,0.1-0.1,0.2-0.2c0,0.1,0,0.2,0,0.2
	c0,0.5-0.2,0.6-0.7,0.6c-0.2,0-0.3,0.1-0.5,0.1c0.1-0.2,0.1-0.3,0.1-0.4c0.2,0,0.3,0,0.5,0c0-0.2,0-0.3,0-0.5
	C28.8,3.4,28.9,3.4,28.9,3.5z"/>
</svg>
