<?xml version="1.0" encoding="utf-8"?>
<!-- Generator: Adobe Illustrator 19.1.0, SVG Export Plug-In . SVG Version: 6.00 Build 0)  -->
<svg version="1.1" id="Layer_1" xmlns="http://www.w3.org/2000/svg" xmlns:xlink="http://www.w3.org/1999/xlink" x="0px" y="0px"
	 viewBox="0 0 40.6 39.7" style="enable-background:new 0 0 40.6 39.7;" xml:space="preserve">
<style type="text/css">
	.st0{fill:#FFFFFF;}
	.st1{fill:none;stroke:#000000;stroke-width:0.25;stroke-miterlimit:10;stroke-dasharray:1.007,1.007;}
</style>
<g>
	<path d="M10.5,4.2c0.2,0,0.4,0.1,0.6,0.1C11.1,4.1,11,4,11,3.9c0,0,0,0,0.1,0c0.1,0.1,0.1,0.1,0.2,0.2c0-0.2,0-0.4,0-0.6
		c-0.2,0.4-0.3,0.1-0.5,0c0,0.2,0,0.3,0,0.5C10.7,4,10.6,4.1,10.5,4.2c0-0.3-0.2-0.6-0.3-0.8c0,0,0.1,0,0.1-0.1
		c0.1,0.1,0.2,0.1,0.3,0.2c0-0.3,0-0.6,0.5-0.5C11,3.2,11,3.2,10.9,3.3c0.2,0.3,0.6-0.4,0.8,0.2c0.2-0.2,0-0.5-0.4-0.7
		c0.2,0,0.3-0.1,0.4-0.1c0.1,0.3,0.2,0.5,0.4,0.7c0.2-0.3,0.2-0.6,0.1-1c0.1,0,0.3,0,0.5-0.1c0,0,0,0.1,0,0.1c0-0.1,0.1-0.2,0.1-0.2
		c0.2,0.1,0.4,0.3,0.6,0.4c0-0.1,0.1-0.2,0.2-0.2c-0.1-0.1-0.1-0.2-0.2-0.3c0.1,0,0.2,0,0.2,0c0.1,0,0.1-0.1,0.2-0.2
		C14,2,14.1,2.1,14.1,2.1c0,0,0,0,0,0C14.1,2,14,1.9,14,1.7c0.3,0,0.6,0,0.9,0c0-0.1-0.1-0.1-0.1-0.2c0.3,0,0.6,0,0.9,0
		c-0.1,0.1-0.1,0.2-0.2,0.4c0.3-0.1,0.4-0.2,0.6-0.3c-0.1-0.4,0-0.5,0.9-0.7c0,0.1-0.1,0.2-0.1,0.3c0,0,0,0,0,0
		c0.1-0.2,0.3-0.3,0.4-0.5c0,0,0.1,0,0.1,0c0,0.1,0,0.2-0.1,0.3c0.1,0,0.3,0,0.5,0c-0.1-0.1-0.2-0.1-0.3-0.2
		c0.2-0.4,0.6-0.3,0.9-0.3c0.1-0.2,0.2-0.4,0.2-0.4c0.3,0,0.5,0.1,0.4,0.5c0.2-0.1,0.4-0.1,0.6-0.2c-0.2,0-0.3-0.1-0.3-0.1
		c0.1-0.3,0.1-0.3,0.8-0.3c0.3,0,0.6,0.2,0.9,0.4c0-0.1,0-0.3,0-0.4c0.3,0,0.7,0,1.2,0c-0.2,0.1-0.3,0.2-0.4,0.3
		c0.2,0,0.4,0.1,0.6-0.1c0.2-0.2,0.5-0.2,0.7-0.3c0,0.2,0,0.4,0,0.4c0.2,0.1,0.4,0.1,0.6,0.1c0.1,0,0.3-0.2,0.4-0.3
		C24.3,0,24.4,0,24.6,0.3c0.1-0.1,0.1-0.1,0.2-0.2c0,0.1,0,0.2,0,0.3c0.3-0.3,0.8-0.3,1.1,0c0.1,0.1,0.3,0.1,0.5,0.2
		c0,0,0,0.2,0,0.3c0.1-0.1,0.2-0.2,0.3-0.2C26.8,0.7,26.9,0.8,27,1c0.4-0.1,0.8,0.1,0.9,0.5c0.2,0,0.3,0,0.5,0c0,0,0,0.1,0,0.1
		c-0.1,0.1-0.3,0.2-0.5,0.4c0.5,0,0.9,0,1.4,0c0.3,0,0.4,0.1,0.3,0.4c-0.1,0.3,0.1,0.4,0.6,0.4c0-0.1,0-0.3,0-0.4c0,0,0,0,0.1,0
		c0.1,0.2,0.2,0.4,0.3,0.5c0,0,0-0.1,0.1-0.1c0.1,0,0.3,0.1,0.4,0.1c0.7,0.3,0.6,1,0.7,1.6c0,0.2-0.1,0.3-0.3,0.2
		c-0.2-0.1-0.3-0.2-0.6-0.4c0.2,0,0.3,0,0.4,0c0-0.2,0-0.3,0-0.5c-0.2,0-0.4,0-0.6,0c-0.1,0.1-0.2,0.1-0.3,0.2
		c-0.1-0.1-0.2-0.1-0.3-0.2c-0.1,0-0.1,0.1-0.1,0.1C28.9,3,28,2.5,27.1,2c0.1-0.1,0.3-0.1,0.5-0.2c0,0,0-0.1,0-0.1
		c-0.1,0-0.2,0.1-0.3,0.1c-0.1-0.1-0.1-0.1-0.2-0.2c-0.2,0.1-0.4,0.2-0.6,0.4c-0.5-0.4-1.1-0.5-1.7-0.5c-0.2,0-0.4-0.2-0.7-0.3
		c-0.1,0.1-0.3,0.2-0.4,0.2c-0.2,0-0.3-0.2-0.5-0.4c0.1,0.2,0.1,0.3,0.1,0.4c-0.3,0-0.7-0.1-1-0.1c0,0,0,0,0-0.1
		c-0.1,0.1-0.3,0.1-0.4,0.2c0-0.2,0-0.3,0.1-0.5c0,0-0.1,0-0.1,0c0,0.1-0.1,0.3-0.1,0.4c-0.3-0.2-0.7,0.1-0.8-0.5
		c0,0.1-0.1,0.3-0.1,0.3c0.2,0.1,0.3,0.2,0.5,0.3c-0.1,0.1-0.2,0.2-0.3,0.4c0.2,0,0.3,0,0.5-0.1c0-0.1,0-0.2,0-0.3
		c0.3,0.2,0.5,0.3,0.8,0.5c0,0.1,0.1,0.3,0.2,0.5c0.1-0.3,0.2-0.5,0.2-0.7c-0.2-0.1-0.3-0.1-0.4-0.1C23,1.6,23.1,1.6,23,2
		c0,0.2,0,0.4,0,0.6c-0.3-0.1-0.6-0.2-1-0.2c0,0,0,0.1,0,0.1c0.1,0,0.2,0.1,0.3,0.1c0,0,0,0,0,0.1c-0.3,0-0.5-0.1-0.8-0.1
		c0,0,0-0.1-0.1-0.1c0.1,0,0.2,0,0.3,0c0,0-0.1-0.1-0.1-0.1C21.4,2.2,21.2,2.1,21,2c0,0,0,0.1-0.1,0.1c0,0,0.1,0.1,0.1,0.1
		c-0.1,0.1-0.3,0.1-0.5,0.2c0.1-0.2,0.1-0.3,0.2-0.4c-0.3-0.2-0.6-0.5-1-0.7c0,0.3,0,0.6,0.1,0.9c-0.2,0-0.4,0-0.6,0
		c0,0,0-0.1,0-0.1c0.1,0,0.2-0.1,0.4-0.1c-0.1-0.2-0.1-0.4-0.2-0.7c-0.1,0.2-0.2,0.3-0.2,0.4C19.1,1.6,19,1.5,19,1.4
		c0,0.1-0.1,0.2-0.1,0.3c0,0.2,0,0.4-0.1,0.6c0,0.1-0.1,0.1-0.2,0.1c-0.3,0-0.7,0-1,0c0-0.1,0-0.1-0.1-0.3c-0.1,0.1-0.1,0.2-0.1,0.1
		c-0.2,0-0.4,0.1-0.7,0.1c0,0,0-0.1,0-0.2c-0.1,0.1-0.1,0.2-0.2,0.4c-0.2-0.1-0.4-0.2-0.5,0.1c-0.1,0.1-0.5,0-0.7,0
		c-0.2,0,0.2,0.3-0.2,0.4c-0.1,0-0.2,0.3-0.4,0.5c0-0.1,0-0.3,0-0.4c0,0-0.1,0.1-0.1,0.1c0,0.4-0.2,0.1-0.4,0.1
		c0,0.1,0.1,0.1,0.1,0.2c0,0-0.1,0.1-0.1,0.1c-0.1-0.2-0.2-0.3-0.3-0.5c-0.1,0.3-0.1,0.6-0.2,0.9c-0.1-0.1-0.2-0.1-0.3-0.2
		c0,0.1,0,0.2,0,0.2c0,0,0,0-0.1,0c-0.1-0.2-0.2-0.4-0.3-0.5c-0.1,0.2-0.2,0.4-0.2,0.6c0,0,0.1,0,0.3,0.1c-0.1,0.1-0.2,0.1-0.4,0.2
		c0.2,0,0.2,0,0.4,0c-0.5,0.4-1.1,0.8-1.6,1.1c0-0.1,0-0.2,0-0.2c-0.2,0-0.4,0-0.5,0c-0.2,0.3-0.4,0.8-0.6,1.2c0,0-0.1,0-0.1,0
		c0-0.1,0-0.3-0.1-0.4c0,0-0.1,0-0.1,0c0,0.1,0,0.2,0,0.3c-0.1,0-0.2,0-0.1,0C10,6.6,9.9,6.7,9.9,6.9c-0.3,0-0.6,0-0.8,0
		C9.1,7,9,7.1,8.9,7.3c0,0,0,0,0,0c0.1,0.1,0.2,0.2,0.4,0.3c0.2,0.1,0.2,0.2,0,0.4C9.2,8.1,9.1,8.2,8.9,8.3C8.8,8.2,8.7,8.1,8.6,8.1
		C8.3,8.1,8.5,8.6,8.1,8.4c0,0.1,0.1,0.1,0.1,0.2c-0.1,0-0.2,0-0.3,0c0,0,0.1,0.1,0.1,0.1c0,0.1-0.1,0.1-0.1,0.2
		C7.8,9,7.8,9.1,7.7,9.3c0.1,0,0.1,0,0.2,0.1C8,9.1,8.1,8.8,8.2,8.6c0.1,0,0.3-0.1,0.4-0.1c0,0.7-0.8,0.9-0.9,1.5
		C7.6,9.8,7.5,9.5,7.4,9.3c0,0-0.1,0-0.1,0c0,0.1,0.1,0.3,0.1,0.4c0,0-0.1,0.1-0.2,0.2c0.1,0.1,0.2,0.3,0.3,0.4
		c-0.1,0.1-0.2,0.1-0.3,0.2c0,0.1,0,0.3,0,0.4c-0.1,0.2-0.2,0.4-0.3,0.5c-0.1-0.3-0.1-0.5-0.2-0.8c0,0-0.1,0-0.1,0
		c0,0.2,0.1,0.4,0.1,0.6c-0.1,0-0.2,0-0.1,0c-0.1,0.2-0.3,0.4-0.3,0.6c0,0.1,0.1,0.2,0.1,0.3c0.2,0.2,0.2,0.4-0.1,0.6
		c-0.2,0.1-0.4,0.2-0.6,0.4c0.2,0.1,0.3,0.1,0.3,0.1c-0.2,0.2-0.4,0.3-0.7,0.5C5,13.7,5,13.7,5.1,13.4c0-0.1-0.1-0.3-0.1-0.5
		c0.1,0,0.3,0,0.5-0.1c0-0.1,0.1-0.3,0.1-0.5c-0.1,0-0.2,0.1-0.2,0.1c0.1-0.3,0.2-0.7,0.4-1.1c0.1,0.2,0.1,0.3,0.2,0.5
		c0,0,0,0,0.1,0c0-0.1,0-0.3,0-0.4c0.1,0,0.2,0,0.3,0C6.1,11.3,6.1,11.2,6,11c-0.1-0.2-0.1-0.3,0-0.6c0.2-0.3,0.4-0.7,0.6-1
		c0.2,0,0.3,0,0.6,0.1c0-0.2,0-0.4,0-0.5c0,0,0,0-0.1,0c0,0.1,0,0.2,0,0.3c0,0-0.1,0-0.1,0c0-0.1-0.1-0.3-0.1-0.4c0.2,0,0.4,0,0.6,0
		C7.3,9,7.7,8.7,7.3,8.8c0,0-0.1-0.2-0.1-0.2C7.5,8.2,7.7,7.8,8,7.5c0.1-0.1,0.3,0,0.5-0.1C8.2,7.1,8.2,7,8.5,6.8
		C8.8,6.7,8.9,6.4,9,6.2c0.2-0.3,0.4-0.5,0.6-0.8c0,0.2,0.1,0.3,0.1,0.5c0.4-0.5,0.7-1,1-1.4C10.7,4.4,10.6,4.3,10.5,4.2L10.5,4.2z
		 M12,4.6C12,4.6,12,4.6,12,4.6c-0.1-0.2-0.3-0.4-0.4-0.5c0,0.3-0.1,0.7,0.4,0.7c-0.1-0.1-0.1-0.2-0.1-0.3c0,0,0,0,0.1,0
		C11.8,4.5,11.9,4.6,12,4.6z M20.2,1.3c0.2-0.1,0.4-0.1,0.6-0.2c-0.1-0.1-0.2-0.2-0.3-0.4C20.4,0.9,20.3,1.1,20.2,1.3z"/>
	<path d="M35.3,29.7c0.1,0.1,0.2,0.2,0.4,0.3c-0.1,0.1-0.2,0.2-0.3,0.3c-0.1,0.1-0.2,0.1-0.4,0.2c0.2,0,0.3,0,0.3,0
		c-0.1,0.2-0.1,0.5-0.2,0.7c-0.2-0.1-0.3-0.2-0.4-0.3c0,0,0,0-0.1,0.1c0.1,0.1,0.1,0.2,0.2,0.3c-0.1,0-0.2,0-0.3,0
		c-0.3,0-0.4,0.2-0.4,0.4c0,0.2-0.1,0.4-0.2,0.5c-0.2-0.1-0.3,0.1-0.4,0.2c-0.1,0.1-0.3,0.1-0.5,0.2c0,0-0.1-0.1-0.2-0.2
		c-0.2,0.5-0.6,0.9-1.1,1.2c0,0.1,0.1,0.2,0.1,0.2c-0.5,0.4-0.9,0.7-1.4,1.1c-0.1,0-0.2-0.1-0.4-0.1c0,0,0,0.1,0,0.1
		c0.1,0,0.2,0,0.3,0c0,0.5-0.4,0.6-0.7,0.7c0,0.2,0.1,0.3,0.1,0.4c-0.1,0-0.3,0.1-0.4,0.1c-0.1,0-0.2-0.2-0.3-0.3
		c-0.1,0.1-0.2,0.3-0.3,0.4c0.1,0,0.2,0,0.2,0c0.2,0.4-0.3,0.4-0.4,0.7c-0.1-0.1-0.2-0.1-0.2-0.1c-0.2,0.3-0.5,0.1-0.7,0.1
		c-0.1,0-0.2,0.1-0.3,0.1c0.1,0.1,0.1,0.2,0.2,0.3c-0.2,0.1-0.4,0.2-0.6,0.3c-0.2,0.1-0.5,0.1-0.7,0.1c-0.2,0.3-0.5,0.6-1,0.5
		c0.1-0.1,0.1-0.2,0.2-0.2c-0.1,0-0.2-0.1-0.2-0.1c-0.1,0-0.3,0.1-0.4,0.1c-0.1,0.2-0.2,0.4-0.3,0.6c-0.1,0.2-0.2,0.3-0.4,0.2
		c0,0-0.1,0.1-0.2,0.2c0-0.2,0-0.3,0-0.4c-0.3,0.6-0.5,0.7-1.2,0.6c-0.1,0-0.2,0.1-0.4,0.2c-0.1-0.1-0.1-0.2-0.2-0.3
		c-0.1,0.1-0.2,0.3-0.2,0.3c-0.1,0-0.3-0.2-0.4-0.1c-0.2,0-0.5,0.1-0.6,0.1c-0.1-0.2-0.6,0.3-0.5-0.2c-0.1,0.1-0.3,0.2-0.4,0.3
		c0,0-0.1-0.1-0.1-0.1c0.1-0.2,0.2-0.3,0.3-0.5c0,0,0,0,0-0.1c-0.2,0.1-0.4,0.3-0.7,0.4c-0.1,0.1-0.3,0.1-0.4,0
		c-0.1,0.1-0.2,0.2-0.3,0.2c-0.1-0.1-0.2-0.2-0.2-0.3c-0.1-0.3-0.3-0.3-0.7-0.1c0,0.1,0.1,0.3,0.1,0.5c-0.3-0.2-0.4-0.3-0.6-0.5
		c0,0,0,0.1,0,0.1c-0.2,0-0.4,0.1-0.5,0.1c-0.4-0.1-0.8-0.3-1.2-0.3c-0.3,0-0.4-0.2-0.2-0.5c0-0.2,0.1-0.4,0.1-0.5
		c0.2-0.3,0.5-0.3,0.9,0c-0.1,0-0.1,0.1-0.2,0.1c-0.1,0-0.1,0.1-0.1,0.1c0.1,0.1,0.3,0.3,0.4,0.4c0-0.2,0.1-0.5,0.1-0.7
		c0.3,0.1,0.6,0.2,1,0.2c0-0.1,0.1-0.2,0.1-0.2c0.2,0.1,0.5,0.3,0.6,0.2c0.3-0.2,0.6,0,0.9,0c0.3,0,0.6,0,0.9,0.1
		c0.1,0,0.1,0.1,0.2,0.2c0-0.1,0-0.2,0-0.2c0.1,0,0.3-0.1,0.5-0.1c0,0,0,0.1,0,0.1c-0.1,0.2-0.2,0.3-0.4,0.5c0,0,0.1,0.1,0.1,0.1
		c0.1-0.1,0.1-0.2,0.2-0.3c0.1,0,0.2,0.1,0.3,0.1c0,0,0,0,0-0.1c0,0-0.1-0.1-0.1-0.2c0.2-0.1,0.3-0.2,0.5-0.2c0,0-0.1-0.1-0.2-0.2
		c0.8,0.2,1.4,0.1,1.9-0.3c0.1,0,0.2,0,0.3,0c0.1,0,0.3,0.1,0.4,0.1c0.1-0.5,0.1-0.5,0.9-0.4c-0.1-0.1-0.2-0.1-0.3-0.2
		c0.3-0.1,0.6-0.2,0.9-0.4c0,0,0.1,0,0.1,0.1c0.1-0.1,0.2-0.3,0.3-0.4c0.1,0.2,0.2,0.3,0.2,0.5c0,0,0.1,0,0.1,0
		c0-0.1-0.1-0.3-0.1-0.4c0.7-0.4,0.8-0.4,1,0c0-0.1,0-0.3-0.1-0.4c-0.2-0.2-0.4-0.4-0.7-0.6c0.4-0.4,0.4,0.5,0.8,0.2
		c-0.1-0.5-0.5-0.5-0.9-0.5c0.2-0.1,0.4-0.2,0.6-0.3c0.1,0.1,0.1,0.2,0.2,0.3c0.1-0.2,0.1-0.3,0.3-0.4c0.1,0,0.2,0.1,0.4,0.2
		c0.2,0.1,0.5,0.2,0.7,0.3c0.1-0.3-0.1-0.5-0.6-0.5c0-0.1,0.1-0.2,0.1-0.2c0.2,0,0.5,0,0.6,0.1c0.3,0.3,0.4,0.1,0.5-0.2
		c0,0,0.1-0.1,0.2-0.2c-0.3,0.1-0.4,0.1-0.7,0.2c0.3-0.2,0.6-0.4,0.8-0.6c0,0.2,0,0.5,0,0.7c0,0,0,0,0.1,0c0.1-0.2,0.2-0.4,0.3-0.7
		c0.4-0.1,0.7-0.5,0.9-0.9c0.1,0.1,0.2,0.1,0.3,0.2c0-0.1,0-0.2,0-0.4c0.2-0.1,0.5,0.1,0.4-0.3c0-0.1,0.2-0.2,0.4-0.3
		c0.1,0,0.2,0.1,0.3,0.2c0.1-0.1,0.2-0.3,0.3-0.5c-0.2,0-0.3,0-0.4,0c0.1-0.3,0.1-0.5,0.2-0.8c0.1,0,0.2,0,0.4,0.1
		c0-0.1-0.1-0.1-0.1-0.2c0.2,0,0.5-0.1,0.8-0.2c-0.1-0.1-0.2-0.2-0.4-0.3c0-0.1,0-0.3,0-0.5c0.1,0,0.3,0,0.5,0.1
		c0-0.1-0.1-0.2-0.1-0.3c0.2,0.1,0.3,0.2,0.5,0.3c0-0.2,0-0.4,0-0.6c0,0-0.1-0.2-0.3-0.3c0,0-0.1,0-0.2,0.1c0,0,0,0-0.1-0.1
		c0.2-0.2,0.4-0.5,0.6-0.7c0.1-0.1,0.1-0.2,0.1-0.4c0.1-0.2,0.2-0.4,0.3-0.7c0,0.2,0,0.3,0,0.4c0.2-0.1,0.3-0.2,0.4-0.3
		c0-0.4,0-0.8,0.1-1.3c0.2,0.2,0.2,0.3,0.4,0.5c0-0.2,0-0.4,0-0.6c-0.1,0-0.2-0.1-0.3-0.2c0-0.1,0.1-0.2,0.1-0.3
		c0.3-0.1,0.5-0.2,0.8-0.3c0-0.1-0.1-0.3-0.1-0.3c-0.2-0.2-0.6-0.3-0.7-0.5c-0.1-0.3,0.3-0.6,0.7-0.5c0.1-0.2,0.1-0.4,0.2-0.6
		c-0.2,0.1-0.3,0.2-0.4,0.2c-0.2-0.6,0.2-1.1,0.1-1.7c0.3,0,0.3,0.6,0.7,0.3c0,0,0,0,0,0c0,0,0.1,0.1,0.2,0.2c0-0.1,0-0.2,0-0.2
		c0,0,0.1,0,0.1-0.1c0.1,0.1,0.2,0.3,0.3,0.4c-0.2,0.1-0.4,0.1-0.6,0.2c0.1-0.1-0.1,0.3,0.2,0.1c0.1,0.2,0.2,0.3,0.2,0.5
		c0,0.4-0.1,0.8-0.1,1.2c-0.1,0.1-0.3,0.1-0.4,0.2c0.3,0.1,0.4,0.3,0.2,0.5c-0.1,0.1-0.1,0.3-0.1,0.5c0,0.2-0.1,0.5-0.1,0.7
		c0,0.2-0.1,0.5-0.2,0.7c0,0-0.1,0.1-0.1,0.1c0,0,0-0.1-0.1-0.1c0-0.1-0.1-0.1-0.1-0.2c0,0-0.2,0.1-0.1,0.1c0.1,0.5-0.2,1-0.3,1.4
		c0,0.2-0.2,0.3-0.2,0.5c0,0.2,0,0.4-0.1,0.7c0,0,0.1,0.1,0.1,0.1C35,29.9,35.2,29.8,35.3,29.7z M32.9,30.9c0.3,0.2,0.6,0.5,0.8,0.7
		c0.1-0.1,0.2-0.2,0.3-0.3c0-0.1-0.1-0.2-0.1-0.2C33.6,30.9,33.2,30.9,32.9,30.9z M34.5,29C34.5,29,34.5,29,34.5,29
		c-0.2-0.1-0.4-0.2-0.6-0.3c0,0.2,0,0.3,0,0.5c0.2,0,0.4,0,0.7,0.1c-0.2-0.1-0.3-0.2-0.4-0.3c0,0,0,0,0-0.1C34.4,29,34.4,29,34.5,29
		z M34.1,30.2c-0.1,0.3,0.5,0.4,0,0.7c0.3,0,0.4,0,0.5,0.1C34.6,30.5,34.5,30.2,34.1,30.2z"/>
	<path d="M1.3,17.9c-0.1-0.1-0.3-0.1-0.3-0.2c0,0.2,0,0.4,0,0.7c0.1-0.1,0.1-0.2,0.2-0.3c0.2,0.3,0.1,0.6-0.3,0.9c0.2,0,0.2,0,0.4,0
		c0,0.1,0.1,0.3,0.1,0.4c0,0,0,0,0,0c-0.1-0.1-0.1-0.2-0.2-0.2c-0.2,0.3-0.2,0.5,0,0.8c0.1,0.1,0.1,0.3,0,0.3
		c-0.4,0.2-0.2,0.4,0.1,0.7c0-0.1,0-0.1,0-0.2c0,0,0.1,0,0.1,0c0,0.1,0.1,0.3,0.2,0.5c-0.1-0.1-0.2-0.1-0.3-0.2
		c-0.1,0.1-0.1,0.2-0.2,0.4c0.2,0,0.3,0,0.5,0.1C1,21.9,1,21.9,1.2,22.2c0.2,0.1,0.4,0.2,0.5,0.2c-0.2,0.2-0.4,0.2-0.4,0.4
		c0,0.1,0.2,0.2,0.2,0.4c0.1,0.2,0.1,0.3,0.1,0.5c0.1-0.1,0.1-0.2,0.2-0.3c-0.1,0.2-0.2,0.4-0.3,0.7c-0.1-0.1-0.5,0.1-0.3-0.4
		c-0.1,0-0.2,0.1-0.3,0.1c-0.2,0-0.4-0.1-0.2-0.3c0.2-0.2,0.1-0.3-0.1-0.4c-0.1-0.1-0.2-0.4-0.3-0.5c0,0,0.1,0,0.1-0.1
		c0.1,0.1,0.2,0.1,0.4,0.2c-0.1-0.3-0.2-0.4-0.2-0.5c-0.2-0.2-0.5-0.3-0.5-0.5c-0.1-0.3,0-0.7,0.1-1.1c0,0.1,0.1,0.3,0.2,0.5
		c0-0.3,0.1-0.6,0-0.8c0-0.1-0.3-0.2-0.4-0.3c0.1,0,0.2-0.1,0.3-0.1c0.4-0.1,0.2-0.4,0.2-0.7c0-0.1,0-0.2,0-0.3
		c0-0.3,0.1-0.5-0.2-0.7c0,0,0-0.2,0.1-0.3c0,0,0,0,0,0c0.1-0.2,0.2-0.4,0.2-0.6c0.1-0.3,0.1-0.6,0.1-0.9C0.2,16,0.2,16,0.6,15.5
		c0.1-0.1,0.1-0.2,0.2-0.4c-0.2,0.1-0.3,0.2-0.4,0.2c0-0.3-0.1-0.5-0.1-0.8c0.2,0,0.3,0.1,0.5,0.1c0,0,0-0.1,0-0.1
		c-0.1-0.1-0.2-0.1-0.4-0.2c0.2-0.1,0.3-0.2,0.5-0.3c-0.2,0-0.2,0-0.3,0c0,0,0-0.1,0-0.1c0.1,0,0.2,0,0.3,0.1c0-0.3,0-0.5,0-0.8
		c0-0.1,0.1-0.2,0.2-0.3c0.2-0.3,0.3-0.7,0.5-0.9C2,11.6,1.9,11,2.4,10.8c-0.1-0.1-0.2-0.2-0.2-0.2c0.1-0.2,0.2-0.4,0.3-0.6
		c0.1,0,0.3-0.1,0.5-0.2C2.8,9.7,2.6,9.6,2.5,9.6c0.2-0.1,0.3-0.2,0.4-0.3c0,0-0.1-0.1-0.1-0.1C2.8,9.2,2.7,9.2,2.6,9.3
		C2.7,8.9,2.7,8.9,3,9c0.3,0.1,0.3,0.1,0.4-0.2c-0.2,0-0.3,0-0.5,0c0.2-0.4,0.2-0.9,0.9-0.7C3.7,8.2,3.6,8.2,3.5,8.3
		c0,0,0.1,0.1,0.1,0.1c0.1,0,0.3-0.1,0.3-0.1C4,7.8,4,7.5,4.5,7.7c0,0,0.2-0.1,0.2-0.1C4.9,7.7,5.1,7.8,5.4,8
		C5.1,8.1,4.8,8.1,4.6,8.2c0,0.2,0,0.3,0,0.5c0.2-0.1,0.3-0.3,0.5-0.4c0,0,0,0,0,0C5,8.6,4.8,8.8,4.6,9.1c-0.1-0.3-0.3-0.6-0.4-1
		C4.1,8.5,4.5,8.9,4,9.2C3.9,9,3.9,8.8,3.8,8.6c0-0.1-0.1-0.1-0.2-0.1c0,0.1-0.1,0.2-0.1,0.2c0,0.1,0.1,0.3,0.1,0.4
		C3.8,9.2,4,9.3,4.1,9.4c0,0,0,0.1,0,0.1C4,9.6,3.8,9.6,3.5,9.6c0.1,0.1,0.1,0.3,0.2,0.5c-0.1,0.1-0.2,0.2-0.4,0.4
		c0-0.2,0-0.3,0-0.5c-0.1,0.3-0.3,0.4-0.3,0.7c0,0,0.2,0.2,0.3,0.2c-0.2,0.1-0.4,0.2-0.7,0.3c0,0,0,0.1,0,0.1c0.1,0,0.1,0,0.2,0
		c-0.2,0.1-0.4,0.2-0.6,0.2c0,0,0,0.1,0,0.1c0.2,0,0.3-0.1,0.5-0.1c0,0.5-0.3,0.9-0.6,0.9c0.1,0.3,0.3,0.7,0,1C2,13.4,2,13.2,1.9,13
		c0,0,0.1-0.1,0.1-0.2c0,0,0,0-0.1,0c-0.1,0.2-0.2,0.4-0.4,0.6c0.2,0,0.3,0.1,0.5,0.1c-0.1,0-0.2,0.1-0.3,0.2c0.2,0,0.3,0,0.4,0
		c-0.1,0.2-0.2,0.3-0.3,0.4C2,14.5,2,14.7,2.1,15c-0.2,0.1-0.3,0.2-0.5,0.3c0.2,0.1,0.2,0.1,0.4,0.2c-0.1,0-0.2,0-0.3,0.1
		c0.1,0.1,0.2,0.1,0.3,0.1c-0.2,0.1-0.4,0.3-0.5,0.4c0.1,0.1,0.2,0.2,0.3,0.3c-0.2-0.1-0.2-0.1-0.3-0.1c0,0.3,0,0.3,0.3,0.2
		c0,0.1,0.1,0.2,0.1,0.4c-0.1,0-0.2,0.1-0.3,0.1c-0.4-0.4-0.5,0-0.8,0.3c0.3,0,0.6,0,0.7,0C1.5,17.4,1.3,17.7,1.3,17.9
		C1.2,17.9,1.3,17.9,1.3,17.9z"/>
	<path d="M37.7,16.5c0.1-0.2,0.1-0.3,0.2-0.6c-0.1,0-0.2,0.1-0.3,0.1c0.1-0.5-0.1-0.8-0.5-1c0.2-0.1,0.3-0.2,0.5-0.3
		c-0.1,0-0.3-0.1-0.5-0.1c0-0.2,0-0.4,0-0.5c0.2-0.1,0.4-0.2,0.6-0.3c0,0,0-0.1,0-0.1c-0.6,0.4-0.6-0.3-0.9-0.4c0,0,0-0.2,0-0.2
		c0.1-0.2,0.2-0.3,0.2-0.6c-0.1,0-0.3,0.1-0.4,0.2c-0.5-0.6-0.6-0.7-0.2-1c-0.1-0.3-0.3-0.5-0.7-0.3c0.1-0.1,0.1-0.2,0.1-0.2
		c-0.2-0.3-0.4-0.6-0.7-0.9c0.4-0.2,0.4-0.2,0.2-0.6c-0.2,0.1-0.3,0.1-0.5,0.2c0-0.2,0-0.3,0.1-0.4c0,0,0,0-0.1,0
		c-0.1,0.1-0.2,0.3-0.3,0.4c-0.1-0.1-0.2-0.3-0.4-0.6c0.2,0.1,0.4,0.1,0.5,0.1c0-0.2,0-0.3-0.2-0.5c-0.1-0.1,0-0.2,0-0.4
		c-0.1,0-0.2,0-0.3,0c0.1-0.3-0.1-0.7-0.4-0.8c-0.1-0.2-0.1-0.4-0.2-0.7c-0.2,0-0.3,0-0.2,0.3c0,0.1,0,0.2,0,0.4c-0.1,0-0.1,0-0.2,0
		c0-0.2-0.1-0.3-0.1-0.5c0-0.2-0.1-0.4-0.1-0.7c-0.1-0.1,0.2-0.4-0.2-0.4c0-0.1,0-0.2,0.1-0.3c0.1,0.1,0.1,0.2,0.3,0.4
		c0-0.2,0-0.2,0-0.3c0-0.2,0-0.4,0-0.5c0-0.1,0.3,0,0.5,0c-0.1,0.2-0.2,0.2-0.2,0.3c0,0,0.1,0,0.1,0c0.1-0.1,0.1-0.2,0.3-0.5
		C34,5.7,34,6,34.1,6.2c-0.1,0-0.1,0.1-0.2,0.1C33.9,6.4,34,6.5,34,6.6c0.1-0.1,0.2-0.2,0.3-0.3c0,0,0.1,0.1,0.1,0.1
		c-0.1,0.2-0.2,0.3-0.3,0.6c0.3,0,0.5,0,0.7,0c0,0,0.1,0.1,0.2,0.3c-0.1,0-0.2,0-0.3,0c0,0,0.1,0,0.1,0.1c-0.1,0.3-0.2,0.5-0.3,0.9
		c0.2-0.1,0.4-0.3,0.6-0.4c0,0,0-0.1,0-0.2c0.1,0.2,0.3,0.4,0.4,0.6c-0.1,0.1-0.1,0.2-0.2,0.4c0.1,0.1,0.2,0.2,0.2,0.2
		c0.2,0.1,0.4,0.2,0.6,0.4c-0.2,0.1-0.3,0.2-0.4,0.3c0.3,0.2,0.6,0.4,1,0.6c0,0,0,0,0,0.1c-0.2,0-0.3,0-0.5,0c0,0,0,0,0,0.1
		c0.1,0,0.1,0,0.3,0.1c-0.1,0-0.1,0.1-0.2,0.1c0,0,0,0.1,0.1,0.1c0.2,0.1,0.4,0.1,0.5,0.2c0.2,0.2,0.4,0.5,0.6,0.7
		c0.1,0.1,0,0.2,0,0.3c0.2,0.1,0.3,0.2,0.6,0.4c-0.2,0.1-0.4,0.1-0.5,0.1c0.1,0.2,0.1,0.4,0.2,0.6c0.1-0.1,0.2-0.2,0.4-0.3
		c0,0,0.1,0,0.1,0.1c-0.1,0.2-0.2,0.3-0.4,0.5c0.2,0,0.3,0,0.5,0.1c0,0,0,0.2,0,0.3c0,0-0.1,0-0.2,0.1c-0.1,0-0.2,0-0.3,0.1
		c0.2,0,0.4,0.1,0.6,0.1c-0.1,0.1-0.1,0.2-0.2,0.3c0.2,0.1,0.3,0.1,0.5,0.2c0,0,0-0.1,0-0.1c0-0.1-0.1-0.1-0.2-0.2
		c0.1,0,0.2-0.1,0.3-0.1c0,0.2,0,0.3,0,0.5c0.1,0,0.3,0,0.4-0.1c-0.1,0.5-0.2,0.9-0.2,1.4c0,0-0.1,0-0.1,0c0-0.1-0.1-0.3-0.1-0.4
		c0,0-0.1,0-0.1,0c0,0.3,0,0.7,0,1c0,0-0.1,0-0.1,0c0-0.1-0.1-0.2-0.1-0.3c0,0-0.1,0.1-0.1,0.1c0.1,0.1,0.2,0.3,0.3,0.4
		C38.2,16.5,38,16.5,37.7,16.5C37.7,16.5,37.7,16.5,37.7,16.5z M38.6,14.4c0,0-0.1-0.1-0.1-0.1c-0.1,0.1-0.2,0.2-0.4,0.3
		c-0.1-0.1-0.2-0.2-0.3-0.4c-0.1,0.1-0.2,0.1-0.4,0.2c0.2,0.1,0.3,0.1,0.4,0.2c0.3,0.4,0.6,0.4,0.9,0c0,0,0.1,0,0.2-0.1
		c-0.2,0-0.2,0-0.3,0c-0.1,0-0.1,0-0.2,0c0,0,0,0,0-0.1C38.5,14.4,38.6,14.4,38.6,14.4z"/>
	<path d="M13.8,37.9c-0.2,0.1-0.5,0.1-0.7,0.2c-0.3,0.1-0.3,0-0.4-0.2c0-0.1-0.1-0.2-0.2-0.4c0,0,0-0.1,0.1-0.2
		c-0.1,0-0.2,0-0.2-0.1c0,0.2-0.1,0.3-0.1,0.4c0,0-0.1,0-0.1,0c0-0.2,0-0.3-0.1-0.5c-0.1,0-0.2-0.1-0.3-0.1
		c-0.1,0.1-0.1,0.2-0.2,0.3c-0.1-0.1-0.3-0.2-0.4-0.3c0.2-0.1,0.6,0.1,0.5-0.4c0,0-0.1,0.1-0.1,0.1c-0.1,0.1-0.1,0.1-0.2,0.2
		c0-0.1-0.1-0.2-0.1-0.3c0-0.2,0-0.5,0-0.7c0,0-0.1,0-0.1,0c0,0.2,0,0.3,0,0.5c-0.1,0.1-0.2,0.1-0.3,0.2c0.1,0.1,0.1,0.1,0.2,0.2
		c0,0,0,0.1,0,0.1c-0.2-0.1-0.4-0.2-0.7-0.4c0.1-0.2,0.1-0.5-0.2-0.6c0,0-0.1-0.1-0.1,0c-0.2,0.2-0.4,0-0.5-0.1
		c0.1-0.1,0.2-0.3,0.2-0.4c0,0,0-0.1,0-0.1c-0.4,0-0.8,0-1.3,0c0,0,0-0.1,0-0.1c0.1-0.1,0.3-0.2,0.4-0.2c0,0,0,0,0-0.1
		c-0.1,0-0.2,0-0.3,0.1c0-0.1,0.1-0.2,0.1-0.2c-0.1-0.1-0.2-0.3-0.3-0.4c-0.1-0.1-0.1-0.2-0.2-0.3c0,0-0.1,0.1-0.1,0.1
		c0.1,0,0.1,0.1,0.2,0.1c-0.1,0.1-0.1,0.2-0.2,0.3c-0.2-0.1-0.5-0.3-0.8-0.4c-0.1-0.1-0.2-0.2-0.3-0.3c0,0,0-0.1,0.1-0.1
		c0.1,0,0.1,0,0.2,0c-0.1-0.3-0.1-0.5-0.2-0.8c-0.1,0-0.2,0-0.4,0c0.1,0.2,0.4,0.3,0.1,0.5c-0.2-0.2-0.3-0.3-0.5-0.5
		c0,0-0.1,0.1-0.1,0.2c-0.1-0.2-0.2-0.4-0.3-0.7c0,0,0.1-0.1,0.2-0.3c-0.2,0.1-0.3,0.1-0.4,0.1c-0.2-0.2-0.4-0.3-0.8-0.5
		c0.3-0.1,0.4-0.1,0.7-0.1c0,0,0.1-0.1,0.2-0.3c-0.4-0.1-0.8-0.1-1.2-0.2c-0.1-0.2-0.2-0.5-0.4-0.7c0-0.1-0.1-0.2-0.2-0.2
		c0.1,0,0.2,0,0.4-0.1c-0.3-0.1-0.4-0.2-0.6-0.3c0.2-0.1,0.4-0.2,0.7-0.3c0,0.4,0.1,0.7,0.1,1.1c0.1-0.1,0.1-0.2,0.2-0.2
		c0-0.2-0.1-0.3-0.1-0.5c0,0,0.1,0,0.1,0c0.1,0.4,0.4,0.6,0.9,0.7c-0.1,0.2-0.2,0.3-0.3,0.4c0,0,0.1,0.1,0.2,0.1c0.1,0,0.2,0,0.3,0
		c-0.1,0.2,0.3,0.3,0.1,0.6c0,0,0,0.2,0,0.2c0.3,0.1,0.5,0.2,0.8,0.3c0.1,0,0.2,0.1,0.3,0.1c-0.1,0.1-0.2,0.1-0.3,0.3
		c0,0.1,0.1,0.2,0.1,0.5c0.1-0.2,0.2-0.3,0.3-0.4c0.2,0.1,0.5,0.2,0.7,0.4c0.1,0,0,0.3-0.1,0.4c-0.1-0.1-0.3-0.3-0.4-0.4
		c0,0,0,0.1-0.1,0.1c0.1,0.2,0.2,0.4,0.4,0.6c0,0,0.1-0.1,0.2-0.2C8,33.7,8.1,33.9,8.3,34c0.1-0.1,0.2-0.3,0.3-0.5
		c0,0.1,0,0.2,0,0.3c0.1,0,0.3,0,0.5,0c-0.1,0.2-0.2,0.3-0.3,0.4c0.3,0,0.5,0.1,0.8,0.1c-0.3,0.5-0.1,0.7,0.4,0.7
		c0.1,0,0.2,0.1,0.3,0.1c0,0-0.1,0.2-0.1,0.3c0.1-0.1,0.3-0.2,0.4-0.3c0.5,0.1,0.2,0.5,0.2,0.9c0.1-0.2,0.2-0.2,0.2-0.3
		c0.1-0.1,0.2-0.2,0.2-0.2c0.1,0,0.2,0.1,0.3,0.2c0.1,0.1,0.1,0.3,0.1,0.4c0.1,0.1,0.1,0.2,0.2,0.3c0.1-0.1,0.2-0.2,0.4-0.3
		c0.1,0.1,0.3,0.4,0.7,0.3c0.1,0,0.5,0.1,0.5,0.5C13.5,37.4,13.7,37.6,13.8,37.9C13.8,37.9,13.8,37.9,13.8,37.9z"/>
	<path d="M1.9,24.3c-0.1,0.3-0.1,0.6-0.2,0.8c0.3,0,0.5,0.1,0.8,0.1C2,25.5,2,25.5,2.1,25.8c0.1,0,0.1-0.1,0.1-0.1
		c0.4,0.4,0.8,0.9,1.3,1.3c-0.2,0-0.3,0-0.4,0c0.2,0.3,0.4,0.5,0.5,0.8c-0.1,0-0.1,0-0.3,0.1c0.1,0.1,0.2,0.2,0.4,0.3
		c0-0.1,0-0.2,0.1-0.2c0.1,0.2,0.2,0.3,0.3,0.4c0.1,0.1,0,0.3,0.1,0.5c0,0,0.1,0,0.2-0.1c0,0.1,0,0.1,0,0.1
		c-0.2,0.2-0.4,0.3-0.7,0.2c-0.1,0-0.1-0.2-0.1-0.3c-0.1,0-0.3,0-0.5-0.1c0,0,0-0.1,0-0.1c0.1,0,0.1,0,0.3,0c-0.4-0.3-0.7-0.6-1-0.9
		c0.1,0,0.2,0,0.4-0.1c0-0.2-0.1-0.4-0.1-0.6c-0.2,0-0.4,0-0.5-0.1c0,0,0-0.2,0-0.3c-0.4-0.1-0.6-0.6-0.4-1.1
		c-0.1,0-0.2,0.1-0.4,0.1c0.2-0.6-0.1-1.1-0.5-1.6C1.3,24.3,1.6,24.3,1.9,24.3z"/>
	<path d="M38.1,17c0,0.2,0.4,0.3,0.2,0.5c0.1,0,0.2,0.1,0.3,0.1c0,0-0.1,0-0.1,0.1c0.1,0.4,0.3,0.8,0.4,1.3c-0.1,0-0.2,0-0.3-0.1
		c-0.1,0.2-0.1,0.4-0.2,0.5c0.2,0.1,0.3,0.2,0.4,0.3c0,0,0,0.2-0.1,0.3c0,0,0.1,0,0.1,0.1c-0.1,0.1-0.2,0.1-0.3,0.2c0,0,0,0,0,0.1
		c0.1,0,0.2-0.1,0.4-0.1c-0.1,0.3-0.2,0.6-0.3,0.8c0,0,0.1,0,0.2,0c-0.4,0.5-0.3,1-0.2,1.6c-0.2,0-0.3-0.1-0.5-0.1c0,0,0,0,0,0
		c-0.1-0.1-0.2-0.2-0.3-0.2c0.2-0.2,0.3-0.5,0.5-0.8c-0.1,0-0.2,0-0.2,0c-0.1,0-0.1-0.1-0.2-0.1c0.1-0.1,0.1-0.1,0.2-0.2
		c0.1-0.1,0.1-0.1,0.2-0.2c-0.2-0.1-0.1-0.3-0.2-0.5c-0.2-0.4-0.3-0.8-0.5-1.3c0.2,0,0.3,0,0.3,0.1c0-0.3-0.1-0.6-0.1-0.9
		c0.1,0,0.1,0,0.2,0c0,0,0,0,0-0.1c-0.1-0.1-0.2-0.2-0.3-0.3c0,0,0,0.1-0.1,0.1c0-0.2-0.1-0.4-0.1-0.6c0.1-0.1,0.1-0.2,0.3-0.3
		c-0.1,0-0.2,0-0.3,0c0,0,0-0.1,0-0.1C37.8,17.1,37.9,17.1,38.1,17L38.1,17z"/>
	<path d="M36.2,22.6c-0.1-0.1-0.2-0.2-0.3-0.3c0,0,0-0.1,0.1-0.3c-0.1-0.1-0.3-0.2-0.4-0.3c0.3-0.3,0.5-0.5,0.8-0.8
		c-0.1-0.1-0.2-0.2-0.3-0.4c0.1,0,0.1-0.1,0.2-0.2c-0.1-0.1-0.2-0.3-0.3-0.4c0.1-0.1,0.2-0.1,0.3-0.2c-0.2-0.1-0.4-0.2-0.5-0.3
		c-0.2-0.1-0.2-0.3,0-0.5c0.2-0.2,0.3-0.4,0.5-0.6c-0.2,0-0.3,0-0.4,0c0.1-0.3,0.2-0.5,0.4-0.8c0.2,0,0.2,0,0.3,0.3
		c0,0.1,0.2,0.2,0.3,0.3c-0.1,0.1-0.2,0.2-0.4,0.3c0,0.1,0.1,0.3,0.1,0.6c0.1-0.1,0.1-0.2,0.2-0.3c0,0.3,0.1,0.7,0.1,1.1
		c0,0-0.1,0-0.1,0c-0.1-0.1-0.2-0.2-0.3-0.3c0,0-0.1,0-0.1,0c0.1,0.1,0.2,0.2,0.2,0.3c0,0.1-0.1,0.2-0.3,0.3
		c0.1,0.1,0.2,0.2,0.3,0.2c0.5,0.2,0.4,0.6,0.3,1c0,0.1,0,0.2,0,0.3c0,0.3-0.1,0.5-0.4,0.7C36.3,22.4,36.3,22.5,36.2,22.6
		C36.2,22.6,36.2,22.6,36.2,22.6z"/>
	<path d="M35.3,29.7c-0.2,0.1-0.3,0.2-0.5,0.3c0,0-0.1-0.1-0.1-0.1c0.1-0.3,0.3-0.5,0.4-0.8c0,0,0,0,0.1,0c0,0.1-0.1,0.3-0.1,0.4
		c0,0,0.1,0,0.1,0.1c0.1-0.3,0.3-0.5,0.4-0.8c-0.2-0.2-0.2-0.4,0-0.6c0.1,0.1,0.2,0.1,0.3,0.2c0.1-0.2,0.2-0.3,0.2-0.6
		c-0.1,0.1-0.2,0.1-0.3,0.2c0-0.5,0.4-0.6,0.7-0.7c-0.1,0-0.2-0.1-0.3-0.1c0-0.1,0.1-0.3,0.1-0.4c0,0,0,0,0.1,0c0,0.1,0,0.2,0,0.3
		c0.3-0.1,0.4-0.3,0.3-0.7c0-0.1,0.1-0.2,0.1-0.3c0.2-0.1,0.5-0.2,0.7-0.3c0,0,0,0,0,0c0,0.2,0,0.4-0.1,0.5
		c-0.2,0.4-0.2,0.4,0.2,0.6c0,0-0.1,0-0.1,0c-0.4,0-0.4,0-0.6,0.3c-0.1,0.3-0.3,0.6-0.4,0.9c0,0,0,0.1,0,0.2c0,0.1,0,0.1,0.1,0.2
		c-0.1,0-0.2,0-0.3,0.1c0,0,0.1,0.1,0.1,0.1c-0.1,0.2-0.3,0.4-0.4,0.5C35.8,29.3,35.8,29.7,35.3,29.7z"/>
	<path d="M37.7,25.7c0.1-0.1,0.3-0.3,0.4-0.4c0,0-0.1-0.1-0.1-0.1c-0.1,0.1-0.2,0.2-0.3,0.3c-0.2,0.2-0.3,0.4-0.6,0.1c0,0,0,0,0,0
		c-0.2,0-0.2,0-0.1-0.3c0,0.1,0.1,0.1,0.1,0.2c0.1-0.1,0.2-0.2,0.4-0.3c-0.1,0-0.2-0.1-0.2-0.1c0,0-0.1-0.1-0.1-0.1
		c0,0,0.1-0.1,0.1-0.1c0.3,0,0.4-0.2,0.2-0.6c0,0.2,0,0.3-0.1,0.4c0,0-0.1,0-0.1,0c0-0.1-0.1-0.2-0.1-0.3c0-0.2,0.1-0.4,0.1-0.5
		c0.1,0,0.3,0,0.4-0.1c0.1-0.1,0-0.3-0.1-0.4c0-0.1-0.1-0.2-0.1-0.3c0.2-0.1,0.3-0.3,0.5-0.5c0,0,0,0,0.1,0c0,0,0,0,0,0
		c0.1,0.2,0.1,0.3,0.2,0.5c0,0-0.1,0-0.1,0c0.2,0.1,0.3,0.2,0.4,0.3c-0.2,0.3-0.4,0.5-0.6,0.7c0.1,0,0.2,0,0.4,0c0,0.3,0,0.5,0,0.8
		c0,0-0.1,0-0.1,0c-0.1-0.2-0.1-0.3-0.2-0.5c0,0-0.1,0-0.1,0c0,0.2-0.2,0.4,0,0.6c0.1,0.1,0.2,0.3,0.1,0.5c-0.1,0.3-0.2,0.6-0.4,1
		C37.8,26.1,37.7,25.9,37.7,25.7C37.7,25.7,37.7,25.7,37.7,25.7z"/>
	<path d="M6.1,28.6c0.1-0.1,0.2-0.1,0.3-0.2c-0.3,0-0.5,0-0.8,0c0-0.1,0.1-0.2,0.1-0.4c-0.1-0.1-0.2-0.2-0.3-0.3
		c0.1-0.1,0.1-0.1,0.2-0.2c-0.2-0.2-0.4,0.5-0.6,0c0.1,0,0.2,0,0.3-0.1c-0.2-0.3-0.4-0.5-0.6-0.8c0-0.1,0.1-0.2,0.2-0.4
		c0.2,0,0.3,0,0.4,0c-0.1,0.1-0.1,0.3-0.2,0.5c0,0-0.1,0-0.1-0.1c0.1,0.1,0.2,0.1,0.3,0.2c0.1,0.1,0.1,0.2,0.1,0.3
		c0.1,0,0.4,0,0.6,0c0,0,0,0.1,0,0.1c-0.1,0-0.2,0-0.3,0c0.1,0.3,0.6,0.4,0.3,0.8c0.2,0.1,0.4,0.1,0.7,0.2c0,0.1-0.1,0.2-0.1,0.2
		c0.2,0.1,0.4,0.1,0.5,0.1c-0.1,0.4-0.1,0.7-0.2,1c0.2,0,0.4,0,0.5,0C7.4,30,7.4,30,7,29.9c0-0.1,0-0.1,0.1-0.2c-0.1,0-0.3,0-0.4,0
		c0,0,0-0.1,0-0.1c0.1-0.1,0.2-0.1,0.3-0.2C6.6,29.1,6.9,28.5,6.1,28.6z"/>
	<path d="M15.8,35.4c0-0.1,0.1-0.1,0.1-0.3c0.1,0.2,0.2,0.3,0.3,0.5c0.1-0.1,0.1-0.2,0.1-0.3c0,0,0.1,0,0.1,0c0,0.2,0.1,0.4,0.1,0.6
		c-0.4,0-0.7,0.1-1.1,0.1c0-0.2,0.1-0.3,0.1-0.4c-0.1-0.1-0.3-0.2-0.4-0.3c-0.1,0.2-0.1,0.4-0.2,0.6c0,0-0.1,0-0.1,0
		c0-0.1,0.1-0.2,0.1-0.4c-0.2,0-0.3-0.1-0.5-0.2c0-0.2,0-0.4,0-0.6c0,0-0.1,0-0.1,0c-0.1,0.1-0.1,0.2-0.2,0.3c0,0,0,0-0.1,0
		c0-0.1,0-0.1,0-0.3c-0.1,0.1-0.2,0.2-0.3,0.3c-0.3-0.3-0.3-0.5,0-0.7c0.1,0,0.2-0.1,0.3,0c0.2,0.1,0.4,0.2,0.7,0.3
		c0.1,0,0.1,0.2,0.2,0.2c0.1,0.1,0.2,0.2,0.3,0.2C15.4,35.2,15.6,35.3,15.8,35.4z"/>
	<path d="M10.7,32.5c0.2,0.1,0.4,0.3,0.5,0.4c0,0,0,0,0,0c-0.1-0.1-0.1-0.2-0.2-0.3c0,0,0,0,0,0c0.2,0.1,0.4,0.3,0.7,0.4
		c-0.1,0.1-0.2,0.1-0.3,0.2c0.1,0.2,0.2,0.3,0.3,0.5c0,0,0.1,0,0.1-0.1c0-0.1-0.1-0.1-0.1-0.2c0.2,0,0.3,0,0.6,0.1
		c-0.2,0.1-0.3,0.1-0.4,0.2c0,0.4,0.5,0.7,0.4,1.2c-0.3-0.1,0-0.6-0.5-0.4c0-0.2,0-0.3,0-0.4c0,0-0.1,0-0.1,0c0,0.1,0,0.3-0.1,0.4
		c-0.2-0.2-0.4-0.3-0.5-0.5c0.1-0.1,0.3-0.1,0.5-0.2c-0.2-0.1-0.3-0.1-0.5-0.2c0,0.1,0,0.2-0.1,0.3c-0.3-0.2-0.1-0.7-0.5-0.7
		c0-0.2-0.1-0.4-0.1-0.6C10.6,32.5,10.6,32.5,10.7,32.5z"/>
	<path d="M15.6,38.2c0,0.2-0.1,0.4-0.1,0.5c-0.1,0.1-0.2,0.1-0.2,0.2c-0.1,0-0.3,0.1-0.3,0c-0.2-0.3-0.5-0.4-0.8-0.5
		c-0.3-0.1-0.3-0.3-0.2-0.5c0,0,0,0,0,0c0.1-0.1,0.1-0.2,0.3-0.4c0,0.2,0,0.3,0,0.5c0.2-0.2,0.3-0.3,0.5-0.5c0,0.2,0.1,0.3,0.1,0.4
		c0.3-0.5,0.6,0,0.9-0.1c-0.1,0.1-0.2,0.2-0.4,0.3c0,0,0,0.1,0.1,0.1C15.4,38.2,15.5,38.2,15.6,38.2z"/>
	<path d="M24.3,2.8c-0.1,0-0.1,0.1-0.2,0.1c0,0-0.1,0-0.1-0.1c0.1-0.2,0.2-0.5,0.3-0.6c0.4,0.1,0.8,0.1,1.2,0.2c0,0,0,0.1,0,0.1
		c-0.1,0-0.1,0-0.3-0.1c0.1,0.2,0.2,0.4,0.3,0.5c0,0,0.1-0.1,0.1-0.1c-0.1,0-0.1-0.1-0.2-0.2c0.3-0.1,0.5-0.1,0.8-0.2
		c0,0.1,0,0.1,0,0.2c-0.1,0-0.2,0.1-0.3,0.1c0.2,0.2,0.6,0,0.5,0.5c-0.1,0-0.2-0.1-0.3-0.1c0,0.1,0,0.2-0.1,0.4
		c-0.1-0.2-0.1-0.6-0.5-0.2c0-0.1,0-0.2,0-0.3c-0.2,0-0.5,0.1-0.7,0.1c0.1-0.2,0.1-0.3,0.1-0.3c0,0,0,0,0,0
		c-0.1,0.1-0.2,0.3-0.3,0.4c-0.3,0-0.2-0.2-0.1-0.4C24.3,2.8,24.3,2.8,24.3,2.8z"/>
	<path d="M31.6,4.4c0.3-0.2,0.5-0.3,0.7-0.4c0.1,0,0.2,0,0.3,0c0.1,0.2,0.2,0.5,0.3,0.7c0.1,0.2,0.3,0.3,0.4,0.5
		c-0.2,0.1-0.4,0.2-0.4,0.2c-0.2-0.1-0.4-0.1-0.7-0.2c0,0.1,0,0,0-0.1c0-0.1,0-0.1,0.1-0.2c-0.5,0.3-0.5-0.3-0.8-0.2
		c0.2-0.1,0.3-0.2,0.4-0.3C31.9,4.5,31.8,4.5,31.6,4.4z"/>
	<path d="M9,32.2c0-0.5-0.6-0.5-0.8-0.9c0.1,0,0.1,0.1,0.3,0.2c0-0.2-0.1-0.4-0.1-0.5c0,0-0.1,0-0.1,0c0,0.1,0.1,0.1,0.2,0.2
		c-0.3-0.1-0.5-0.1-0.8-0.2c0,0,0-0.1,0-0.1c0.1,0,0.2,0,0.3,0c-0.1-0.2-0.1-0.3-0.2-0.5c0,0,0.1,0,0.1-0.1c0,0.1,0.1,0.1,0.2,0.2
		c0.1-0.2,0.2-0.3,0.3-0.5c0,0.2,0,0.4,0,0.6c0.1,0,0.2,0,0.3,0c0,0.1-0.1,0.2-0.1,0.2c0.2,0.1,0.4,0.1,0.7,0.2
		C9.1,31.2,9,31.3,9,31.4c0.2-0.1,0.3-0.2,0.4-0.2c0.3,0.1,0.2,0.2-0.2,0.3c0.2,0,0.3,0.1,0.5,0.1C9.4,31.8,9.2,32,9,32.2
		C9,32.2,9,32.2,9,32.2z"/>
	<path d="M25.3,36.7c-0.2-0.3-0.4-0.7-0.8-0.2c-0.1-0.1-0.2-0.2-0.3-0.3c0.1-0.1,0.2-0.2,0.3-0.3c-0.1-0.1-0.2-0.1-0.2-0.2
		c0.3,0,0.7,0.2,0.8-0.2c0,0.1,0.1,0.2,0.1,0.3c0,0,0.1,0,0.1,0c0-0.1,0-0.2,0-0.3c0.1,0.1,0.3,0.2,0.4,0.3c0,0,0.1-0.1,0.1-0.1
		c0,0.1,0,0.2,0,0.3c0.1-0.2,0.1-0.4,0.2-0.6c0.3,0.5,0.1,1-0.4,1c-0.1,0-0.2-0.2-0.4-0.4C25.3,36.3,25.3,36.5,25.3,36.7z"/>
	<path d="M6.4,6.9C6.1,6.5,5.8,6.6,5.5,6.7c0,0,0,0.1,0,0.1C5.9,6.9,6.2,7,6.6,7c0,0.1-0.1,0.1-0.1,0.3C6.3,7.2,6.2,7.2,6.1,7.1
		c0,0.2,0,0.3,0,0.5c-0.1,0-0.3,0-0.4,0c-0.2,0-0.5,0-0.8,0C5,7.4,5,7.3,5.1,7.2C5.1,7.2,5,7,4.9,7c0.1-0.1,0.3-0.2,0.4-0.4
		c0.2-0.3,0.5-0.4,0.8-0.2c0.1,0.1,0.2,0.1,0.3,0.2C6.5,6.6,6.5,6.7,6.4,6.9z"/>
	<path d="M28.3,4.4c0.1-0.1,0.2-0.1,0.3-0.2c0,0,0,0,0.1,0.1c0,0.1-0.1,0.1-0.2,0.3c0.3-0.1,0.5-0.2,0.8-0.3c0,0.1,0,0.3,0,0.4
		c0.1,0,0.2,0.1,0.4,0.1c0,0.1-0.1,0.2-0.1,0.4c0.1,0,0.2,0,0.2-0.1c0.2-0.4,0.2-0.4,0.6-0.2c-0.1,0-0.2,0-0.3,0c0,0,0,0.1,0,0.1
		c0.2,0.1,0.4,0.2,0.6,0.3c0,0,0.1,0,0.2,0c0,0.1,0,0.2,0,0.3c0,0.1,0,0.2,0,0.3c-0.1,0-0.3,0.1-0.5,0.2c0.1-0.2,0.1-0.4,0.2-0.5
		c-0.1-0.2-0.5,0.2-0.5-0.2c-0.2,0.1-0.4,0.2-0.6,0.3c0,0,0-0.1-0.1-0.1c0.1,0,0.2-0.1,0.2-0.1C29.3,5,29,4.8,28.8,4.7
		c-0.2-0.1-0.4,0-0.7,0C28.2,4.6,28.2,4.5,28.3,4.4C28.3,4.4,28.3,4.4,28.3,4.4z"/>
	<path d="M7.2,5.1c0.1,0.1,0.3,0.2,0.4,0.3C7.8,5.3,8,5.2,8.3,5.1c0,0.2-0.1,0.3-0.1,0.4c0.1,0,0.2,0,0.3,0c0,0,0,0.1-0.1,0.1
		C8.2,5.8,7.9,5.8,7.6,5.9C7.3,6.1,7,6.2,6.8,6.7C6.7,6.5,6.4,6.3,6.5,6.2c0-0.2,0.2-0.5,0.3-0.6c0.1-0.1,0.3,0.1,0.6,0.1
		C7.3,5.5,7.3,5.4,7.2,5.1z"/>
	<path d="M32.8,6.8c0,0.1-0.1,0.1-0.1,0.2c-0.1-0.1-0.1-0.1-0.2-0.2c-0.1,0.2-0.1,0.4-0.2,0.6c0-0.2,0-0.4-0.1-0.5
		c0-0.1-0.2-0.1-0.4-0.1c0,0,0-0.1,0.1-0.1c-0.1-0.3-0.7,0.3-0.7-0.3c-0.1,0-0.3,0-0.4,0c0,0,0-0.1,0-0.1c0.1,0,0.2-0.1,0.3-0.1
		c0,0,0,0,0-0.1c-0.2,0-0.4,0-0.6,0.1c0-0.3,0.6,0,0.5-0.4c0.4,0,0.5,0,0.4,0.3c0.1-0.1,0.2-0.1,0.4-0.2c0.1,0.2,0.2,0.5,0.3,0.7
		c0.1-0.2,0.2-0.4,0.2-0.4c0.2,0,0.3,0.1,0.5,0.2c0,0,0,0.1,0,0.1c-0.1,0-0.2,0-0.3-0.1c0,0,0,0.1-0.1,0.1
		C32.5,6.6,32.6,6.7,32.8,6.8C32.8,6.8,32.8,6.8,32.8,6.8z"/>
	<path d="M19.5,37.1c-0.1-0.1-0.2-0.2-0.2-0.3c-0.1,0.1-0.1,0.1-0.1,0.1c-0.2-0.3-0.5-0.6-0.7-0.9c0.9-0.2,1.2,0,1.1,0.6
		c0.2-0.2,0.3-0.4,0.5-0.5c0.1-0.1,0.2-0.1,0.3-0.1c0.1,0.1,0.2,0.2,0.2,0.3c0,0.3-0.1,0.6,0.3,0.7c0,0,0,0.1-0.1,0.1
		c-0.1,0-0.3-0.1-0.4-0.1c0-0.3,0-0.5,0-0.9C20,36.4,19.8,36.7,19.5,37.1z"/>
	<path d="M4,25.5c-0.2-0.2-0.4-0.4-0.5-0.6c0,0,0-0.1,0.1-0.1C3.6,24.9,3.7,25,3.8,25c0.1-0.2,0.2-0.4,0.2-0.5
		c0.1,0.1,0.3,0.2,0.3,0.4c0,0.3,0.3,0.3,0.5,0.5c0,0,0,0.2,0,0.2c0.1,0,0.2,0.1,0.3,0.1c0,0,0,0.1,0,0.1c-0.1,0-0.2,0-0.3,0
		c0,0,0,0,0,0.1c0.2,0,0.4,0.1,0.6,0.2c-0.2,0-0.2,0.1-0.3,0.1c-0.1,0-0.3-0.2-0.4,0.1c-0.1,0-0.2,0-0.3-0.1c-0.1-0.1,0-0.2-0.1-0.3
		c0,0-0.1,0-0.2,0C4,25.6,4.5,25.2,4,25C4,25.2,4,25.3,4,25.5z"/>
	<path d="M21.2,36.6c-0.5-0.2-0.7-0.3-0.5-0.6c0.1-0.1,0.3-0.1,0.5-0.1c-0.1,0.2-0.1,0.3-0.1,0.4c0.2,0.1,0.3,0.2,0.5,0.3
		c-0.1-0.1-0.1-0.2-0.1-0.3c0.1,0,0.2-0.1,0.4-0.1c0,0.2,0.1,0.5,0.1,0.7c0,0-0.1,0-0.1,0c-0.1-0.1-0.1-0.2-0.2-0.3c0,0,0,0-0.1,0
		c0,0.1,0,0.2,0,0.4c-0.2-0.1-0.4-0.2-0.6-0.2C21,36.8,21.1,36.7,21.2,36.6z"/>
	<path d="M28.3,4.4C28.3,4.4,28.3,4.4,28.3,4.4c-0.2,0.1-0.3,0.2-0.5,0.3c0-0.1,0-0.2,0.1-0.3c-0.1,0.1-0.2,0.2-0.3,0.2
		c-0.1-0.3-0.2-0.7-0.2-1c-0.2,0.1-0.4,0.2-0.5,0.3c0-0.5,0-0.5,0.5-0.6c0,0.1,0,0.1,0,0.1c0.2,0,0.3,0,0.5-0.1c0,0,0,0.1,0,0.1
		c-0.1,0.1-0.1,0.2-0.3,0.3C27.8,3.9,28,4.1,28.3,4.4z"/>
	<path d="M17.1,36.7c-0.2-0.1-0.4-0.2-0.6-0.3c0.1-0.1,0.2-0.1,0.2-0.1c0-0.2,0-0.5,0-0.7c0,0,0.1-0.1,0.2-0.1c0,0,0.1,0,0.2,0
		c0,0.1-0.1,0.2-0.1,0.3c0.2,0,0.3,0.1,0.5,0.1c0,0.1-0.1,0.2-0.1,0.4c0,0,0,0.1,0.1,0.1c0.1-0.1,0.2-0.2,0.3-0.3
		c0.1,0.2,0.2,0.5,0.3,0.8c-0.4-0.2-1-0.3-0.9-0.9c0,0-0.1,0-0.1,0.1C17,36.2,17,36.4,17.1,36.7z"/>
	<path d="M22.4,36.4c-0.1,0-0.2,0.1-0.2,0.1c-0.1-0.2-0.2-0.4-0.3-0.5c0.2,0,0.6-0.1,0.9-0.1c0.3,0,0.4,0,0.3,0.3
		c-0.1,0-0.2-0.1-0.3-0.1c-0.1,0-0.2,0.1-0.2,0.1c0.1,0,0.1,0,0.2,0.1c0,0,0.1,0.1,0.1,0.2c0,0.1-0.1,0.3-0.1,0.5
		C22.6,36.8,22.5,36.6,22.4,36.4z"/>
	<path d="M23.3,35.7c0.2,0,0.3,0,0.4,0.1c0,0.1,0,0.3,0,0.4c0.1-0.1,0.2-0.1,0.2-0.1c0.2,0.6,0.2,0.6-0.1,0.7c0,0.1,0.1,0.1,0.1,0.2
		c-0.1,0-0.1,0-0.1,0c0,0-0.1,0-0.2,0c0.1-0.1,0.1-0.1,0.1-0.2c0,0,0.1-0.1,0.1-0.2c-0.2-0.1-0.5-0.1-0.6-0.2
		C23.2,36.1,23.3,35.9,23.3,35.7z"/>
	<path d="M8.5,4.5c-0.1,0-0.1-0.1-0.2-0.1c0.1,0,0.2-0.1,0.3-0.1c0,0.2-0.1,0.3-0.1,0.4c0.8-0.1,0.8-0.1,0.8,0.5
		C9.2,5.3,9.1,5.3,9,5.4C8.9,5.2,8.8,5,8.7,4.7c0,0.2,0,0.3,0,0.4C8.6,4.9,7.9,4.9,8.5,4.5z"/>
	<path d="M39.5,16.6c0.1,0,0.3,0,0.4,0c0.1,0.1,0.2,0.3,0.3,0.5c0,0-0.2,0.1-0.3,0.2c0.1,0.1,0.1,0.2,0.3,0.4
		c-0.4-0.1-0.7-0.1-0.6-0.6c0-0.1-0.1-0.2-0.1-0.3C39.5,16.8,39.5,16.7,39.5,16.6z"/>
	<path d="M2.2,19c-0.2-0.1-0.3-0.2-0.5-0.3c0,0,0,0-0.1,0.1c0.1,0.1,0.1,0.2,0.2,0.4c0,0-0.1,0-0.1,0c-0.1-0.2-0.2-0.4-0.3-0.5
		c0.3-0.1,0.5-0.2,0.8-0.3c0-0.1-0.1-0.2-0.1-0.2c0,0,0.1,0,0.1,0c0.1,0.2,0.2,0.3,0.3,0.6c-0.2,0-0.4,0-0.6-0.1
		c0.3,0.2,0.4,0.3,0.6,0.5c0,0,0,0.1-0.1,0.1C2.4,19,2.3,19,2.2,19C2.2,19,2.2,19,2.2,19z"/>
	<path d="M2.7,21.8C2.8,21.9,2.9,22,3,22.1c-0.1,0.1-0.2,0.2-0.2,0.3C2.9,22.7,2.9,23,3,23.2c-0.1,0-0.2,0-0.2,0
		c-0.1-0.3-0.3-0.6-0.4-0.9C2.4,22.2,2.6,22,2.7,21.8L2.7,21.8z"/>
	<path d="M10.5,4.2c-0.2,0.1-0.4,0.3-0.5,0.4C9.9,4.6,9.9,4.7,9.8,4.7C9.6,4.9,9.4,4.8,9.4,4.6C9.6,4.5,9.8,4.5,10,4.4
		C9.9,4.3,9.9,4.2,9.8,4.2c0.1,0,0.2,0,0.2-0.1c0.2-0.3,0.3-0.2,0.4,0C10.4,4.1,10.5,4.2,10.5,4.2C10.5,4.2,10.5,4.2,10.5,4.2z"/>
	<path d="M40.6,21.9c-0.2,0.1-0.3,0.2-0.5,0.3c0-0.2,0-0.3-0.1-0.5c-0.1-0.2,0.1-0.5,0.4-0.6c0,0.2,0.1,0.3,0.2,0.5
		c-0.2-0.1-0.3-0.1-0.4-0.1c0,0,0,0.1,0,0.1C40.3,21.8,40.4,21.8,40.6,21.9z"/>
	<path d="M12.9,33.9c0.3-0.1,0.4,0.1,0.6,0.2c0.1,0.1,0.1,0.2,0.1,0.3c0,0-0.1,0-0.1,0c0-0.1,0-0.2-0.1-0.2
		c-0.1-0.1-0.2-0.1-0.3-0.1c0,0.1,0.1,0.2,0,0.2c-0.1,0.1-0.2,0.3-0.3,0.4c0,0-0.1,0-0.1-0.1C12.7,34.5,12.8,34.2,12.9,33.9
		L12.9,33.9z"/>
	<path d="M1.2,17.9c0.2,0,0.3,0,0.5,0.1c0-0.1,0-0.4,0-0.6c0.5,0.3-0.1,0.6,0.1,0.8C1.5,18.5,1.4,18.1,1.2,17.9
		C1.3,17.9,1.2,17.9,1.2,17.9z"/>
	<path d="M39.7,15.7c-0.3,0.2-0.5,0.4-0.8,0.6c0.1-0.3,0.1-0.5,0.2-0.7c0.2,0,0.4,0,0.6,0C39.7,15.6,39.7,15.7,39.7,15.7z"/>
	<path d="M3.5,29.5c0.4,0,0.7-0.6,1.1-0.1c-0.2,0.1-0.4,0.1-0.6,0.2C3.7,29.9,3.7,29.6,3.5,29.5z"/>
	<path d="M2.8,19.6C2.7,19.7,2.7,20,2.6,20c-0.2,0.1-0.7-0.1-0.8-0.2C2.1,19.7,2.4,19.7,2.8,19.6z"/>
	<path d="M36.3,15.6c-0.1,0.1-0.1,0.1-0.2,0.2c0.2,0.2,0.3,0.3,0.5,0.5c0,0-0.1,0.1-0.1,0.1c-0.3-0.2-0.6-0.4-0.8-0.6
		C35.7,15.5,35.8,15.5,36.3,15.6z"/>
	<path d="M40.2,18.4c-0.1,0.3-0.1,0.6-0.2,0.9c-0.1,0.1-0.1,0.1-0.2,0.2c-0.1-0.2-0.2-0.3-0.4-0.5c0.1,0,0.1,0,0.2,0
		c0.1-0.2,0.3-0.4,0.4-0.6C40.2,18.4,40.2,18.4,40.2,18.4z"/>
	<path d="M10.7,32.5c0,0-0.1,0.1-0.1,0.1c-0.1,0-0.1,0-0.2,0c0-0.1,0-0.2,0-0.3c0,0-0.1,0-0.1-0.1c-0.1,0.1-0.2,0.3-0.4,0.4
		c0,0-0.1-0.1-0.2-0.2l0,0c0.2-0.2,0.4-0.3,0.6-0.5C10.5,32.1,10.6,32.3,10.7,32.5z"/>
	<path d="M4.4,14.8c0.1,0.3,0.3,0.5,0.5,0.8c-0.2,0.2-0.4-0.1-0.6-0.1c0.1-0.1,0.2-0.1,0.2-0.1c-0.1-0.2-0.1-0.4-0.2-0.6
		C4.3,14.8,4.4,14.8,4.4,14.8z"/>
	<path d="M2.7,21.8c-0.2-0.2-0.3-0.3,0.1-0.4c0.1,0,0.3-0.1,0.4-0.2c0,0.1,0.1,0.3,0.1,0.6c-0.2-0.1-0.3-0.2-0.4-0.3
		C2.9,21.6,2.8,21.7,2.7,21.8C2.7,21.8,2.7,21.8,2.7,21.8z"/>
	<path d="M33,6.6c0,0.2,0.1,0.4,0.1,0.7c-0.1,0.1-0.2,0.1-0.3,0.2c-0.1,0.1-0.2,0.1-0.3,0.1c0.1-0.2,0.3-0.4,0.5-0.7
		c-0.1,0-0.1-0.1-0.2-0.1c0,0,0,0,0,0C32.9,6.7,32.9,6.7,33,6.6z"/>
	<path d="M38.1,17c-0.1-0.1-0.3-0.2-0.4-0.3c0,0,0-0.1,0-0.2c0,0,0,0,0,0c0.2,0,0.5,0.1,0.7,0.1c0,0,0.1,0,0.2,0.1
		C38.4,16.9,38.2,16.9,38.1,17C38.1,17,38.1,17,38.1,17z"/>
	<path d="M2.5,21.7C2.2,21.7,2,21.5,2,21.2c0-0.2,0.1-0.4,0.4-0.4C2.2,21.1,2.2,21.4,2.5,21.7z"/>
	<path d="M30.3,3.7c0.1-0.1,0.2-0.1,0.3-0.2c0.1,0,0.3,0.1,0.4,0.1C30.7,4.1,30.5,4.1,30.3,3.7z"/>
	<path d="M23.5,2.1c0.1,0.2,0.2,0.4-0.1,0.5c-0.1,0.1-0.2,0.2-0.2,0.3c-0.1-0.1-0.1-0.1-0.2-0.2c0.1-0.1,0.3-0.2,0.4-0.3
		c0-0.1,0-0.3-0.1-0.4C23.3,2.1,23.4,2.1,23.5,2.1L23.5,2.1z"/>
	<path d="M2.2,19c0.1,0.1,0.3,0.2,0.4,0.3c-0.4,0.3-0.4,0.3-0.6-0.4C2,18.9,2.1,19,2.2,19C2.2,19,2.2,19,2.2,19z"/>
	<path d="M34.7,25.5c0-0.1,0.1-0.2,0.1-0.3c0.2,0.1,0.4,0.2,0.6,0.3c-0.2,0.1-0.3,0.3-0.5,0.4C34.8,25.7,35.2,25.3,34.7,25.5z"/>
	<path d="M36.7,17c-0.1,0.2-0.2,0.3-0.2,0.4c-0.2-0.1-0.4-0.2-0.7-0.3c0,0,0,0,0-0.1C36.1,17.1,36.3,17,36.7,17z"/>
	<path d="M5.3,14.3C5,14.2,4.8,14.1,4.5,14c0.1-0.1,0.2-0.2,0.3-0.3C5,13.9,5.2,14.1,5.3,14.3C5.3,14.3,5.3,14.3,5.3,14.3z"/>
	<path d="M3.5,24c0.2,0,0.5-0.1,0.7-0.1c0,0,0,0.1,0,0.1c-0.2,0.1-0.4,0.2-0.6,0.3c0,0.1,0,0.2-0.1,0.3c-0.1,0-0.1,0-0.2,0
		C3.4,24.4,3.5,24.2,3.5,24C3.5,24.1,3.5,24.1,3.5,24C3.5,24,3.5,24,3.5,24L3.5,24z"/>
	<path d="M9.7,32.4c0,0.1,0.1,0.2,0.1,0.3c-0.3,0.2-0.4,0.1-0.5-0.2c-0.1-0.1-0.2-0.2-0.3-0.3c0,0,0,0,0,0c0.4-0.1,0.5,0.2,0.6,0.6
		C9.7,32.6,9.7,32.5,9.7,32.4C9.7,32.4,9.7,32.4,9.7,32.4z"/>
	<path d="M23.5,2.1C23.4,2,23.3,2,23.3,1.9c0.3-0.2,0.3-0.2,0.9,0.2c0,0,0,0.1-0.1,0.1c-0.2-0.1-0.4-0.2-0.5-0.3
		C23.5,1.9,23.5,2,23.5,2.1C23.5,2.1,23.5,2.1,23.5,2.1z"/>
	<path d="M39.5,16.6c0,0.1,0,0.1,0,0.2c-0.5,0,0.1,0.3-0.1,0.4c-0.5-0.4-0.5-0.7-0.1-0.9c-0.1,0.1-0.1,0.1-0.3,0.3
		C39.2,16.6,39.4,16.6,39.5,16.6z"/>
	<path d="M4.7,15c-0.1-0.2-0.2-0.4-0.3-0.7c0.2,0.1,0.4,0.1,0.5,0.2C4.9,14.6,4.8,14.8,4.7,15z"/>
	<path d="M18,36.6c0-0.2-0.1-0.4-0.1-0.6c0,0,0.1,0,0.1,0c0.1,0.1,0.2,0.1,0.3,0.2C18.2,36.4,18.2,36.5,18,36.6
		C18.1,36.6,18.1,36.6,18,36.6z"/>
	<path class="st0" d="M7.8,33.6c-0.1,0.1-0.1,0.1-0.2,0.2c-0.1-0.2-0.2-0.4-0.4-0.6c0,0,0-0.1,0.1-0.1c0.1,0.1,0.3,0.3,0.4,0.4
		C7.8,33.5,7.8,33.6,7.8,33.6z"/>
	<path d="M33.6,7.8c-0.2,0.5-0.2,0.5-0.7,0.1C33.2,7.9,33.4,7.9,33.6,7.8z"/>
	<path d="M3.3,23.3c0.4-0.3,0.4-0.3,0.7,0.2C3.7,23.4,3.5,23.3,3.3,23.3z"/>
	<path d="M3.5,24c-0.1,0-0.1,0.1-0.2,0.1c0.1-0.3,0.1-0.5,0.1-0.7C3.5,23.6,3.8,23.8,3.5,24C3.5,24,3.5,24,3.5,24z"/>
	<path d="M12.9,33.9c-0.1,0.1-0.2,0.2-0.2,0.3c-0.1-0.2-0.2-0.3-0.3-0.5c0,0,0.1-0.1,0.1-0.2C12.7,33.7,12.8,33.8,12.9,33.9
		C12.9,33.9,12.9,33.9,12.9,33.9z"/>
	<path class="st0" d="M12,4.6c-0.1,0-0.1-0.1-0.2-0.1c0,0,0,0-0.1,0c0,0.1,0.1,0.2,0.1,0.3c-0.5,0-0.3-0.4-0.4-0.7
		C11.7,4.3,11.8,4.4,12,4.6C12,4.6,12,4.6,12,4.6z"/>
	<path class="st0" d="M20.2,1.3c0.1-0.2,0.2-0.4,0.3-0.6c0.1,0.2,0.2,0.3,0.3,0.4C20.6,1.1,20.4,1.2,20.2,1.3z"/>
	<path class="st0" d="M8.2,8.6C8.1,8.8,8,9.1,7.8,9.3c-0.1,0-0.1,0-0.2-0.1C7.8,9.1,7.8,9,7.9,8.9c0-0.1,0.1-0.1,0.1-0.2
		c0,0-0.1-0.1-0.1-0.1C8,8.6,8.1,8.6,8.2,8.6C8.2,8.6,8.2,8.6,8.2,8.6z"/>
	<path class="st0" d="M32.9,30.9c0.3,0,0.7,0.1,1,0.1c0,0,0,0.1,0.1,0.2c-0.1,0.1-0.2,0.3-0.3,0.3C33.5,31.3,33.2,31.1,32.9,30.9z"
		/>
	<path class="st0" d="M34.5,29c-0.1,0-0.2,0-0.3,0c0,0,0,0,0,0.1c0.1,0.1,0.2,0.2,0.4,0.3c-0.3,0-0.5,0-0.7-0.1c0-0.2,0-0.3,0-0.5
		C34.1,28.8,34.3,28.9,34.5,29C34.5,29,34.5,29,34.5,29z"/>
	<path class="st0" d="M34.1,30.2c0.5,0.1,0.5,0.3,0.5,0.7c-0.1,0-0.2,0-0.5-0.1C34.6,30.6,34,30.4,34.1,30.2z"/>
	<path class="st0" d="M2.1,13.5c-0.1,0-0.3-0.1-0.5-0.1C1.7,13.2,1.9,13,2,12.8c0,0,0,0,0.1,0C2,12.9,1.9,13,1.9,13
		C2,13.2,2,13.4,2.1,13.5C2.1,13.5,2.1,13.5,2.1,13.5z"/>
	<path class="st0" d="M38.6,14.4c-0.1,0-0.1,0.1-0.2,0.1c0,0,0,0,0,0.1c0.1,0,0.1,0,0.2,0c0.1,0,0.1,0,0.3,0
		c-0.1,0.1-0.1,0.1-0.2,0.1c-0.3,0.3-0.6,0.3-0.9,0c-0.1-0.1-0.3-0.2-0.4-0.2c0.1-0.1,0.3-0.1,0.4-0.2c0.1,0.1,0.2,0.3,0.3,0.4
		c0.1-0.1,0.3-0.2,0.4-0.3C38.6,14.3,38.6,14.3,38.6,14.4z"/>
</g>
<g>
	<circle class="st1" cx="20.3" cy="19.9" r="10.3"/>
</g>
</svg>
