<?xml version="1.0" encoding="utf-8"?>
<!-- Generator: Adobe Illustrator 19.1.0, SVG Export Plug-In . SVG Version: 6.00 Build 0)  -->
<svg version="1.1" id="Layer_1" xmlns="http://www.w3.org/2000/svg" xmlns:xlink="http://www.w3.org/1999/xlink" x="0px" y="0px"
	 viewBox="0 0 39.7 40.6" style="enable-background:new 0 0 39.7 40.6;" xml:space="preserve">
<style type="text/css">
	.st0{fill:#FFFFFF;}
</style>
<path d="M4.2,30.1c0-0.2,0.1-0.4,0.1-0.6c-0.2,0.1-0.3,0.1-0.5,0.2c0,0,0,0,0-0.1c0.1-0.1,0.1-0.1,0.2-0.2c-0.2,0-0.4,0-0.6,0
	c0.4,0.2,0.1,0.3,0,0.5c0.2,0,0.3,0,0.5,0C4,29.9,4.1,30,4.2,30.1c-0.3,0-0.6,0.2-0.8,0.3c0,0,0-0.1-0.1-0.1
	c0.1-0.1,0.1-0.2,0.2-0.3c-0.3,0-0.6,0-0.5-0.5c0.1,0.1,0.2,0.1,0.3,0.2c0.3-0.2-0.4-0.6,0.2-0.8c-0.2-0.2-0.5,0-0.7,0.4
	c0-0.2-0.1-0.3-0.1-0.4c0.3-0.1,0.5-0.2,0.7-0.4c-0.3-0.2-0.6-0.2-1-0.1c0-0.1,0-0.3-0.1-0.5c0,0,0.1,0,0.1,0
	c-0.1,0-0.2-0.1-0.2-0.1c0.1-0.2,0.3-0.4,0.4-0.6c-0.1,0-0.2-0.1-0.2-0.2c-0.1,0.1-0.2,0.1-0.3,0.2c0-0.1,0-0.2,0-0.2
	c0-0.1-0.1-0.1-0.2-0.2c0.1-0.1,0.1-0.2,0.2-0.2c0,0,0,0,0,0c-0.1,0.1-0.3,0.1-0.4,0.2c0-0.3,0-0.6,0-0.9c-0.1,0-0.1,0.1-0.2,0.1
	c0-0.3,0-0.6,0-0.9C1.6,25,1.7,25,1.9,25.1c-0.1-0.3-0.2-0.4-0.3-0.6c-0.4,0.1-0.5,0-0.7-0.9c0.1,0,0.2,0.1,0.3,0.1c0,0,0,0,0,0
	c-0.2-0.1-0.3-0.3-0.5-0.4c0,0,0-0.1,0-0.1c0.1,0,0.2,0,0.3,0.1c0-0.1,0-0.3,0-0.5C1,22.9,0.9,23,0.9,23.1c-0.4-0.2-0.3-0.6-0.3-0.9
	C0.4,22.1,0.2,22,0.2,22c0-0.3,0.1-0.5,0.5-0.4c-0.1-0.2-0.1-0.4-0.2-0.6c0,0.2-0.1,0.3-0.1,0.3c-0.3-0.1-0.3-0.1-0.3-0.8
	c0-0.3,0.2-0.6,0.4-0.9c-0.1,0-0.3,0-0.4,0c0-0.3,0-0.7,0-1.2c0.1,0.2,0.2,0.3,0.3,0.4c0-0.2,0.1-0.4-0.1-0.6
	C0.1,18,0.1,17.7,0,17.4c0.2,0,0.4,0,0.4,0c0.1-0.2,0.1-0.4,0.1-0.6c0-0.1-0.2-0.3-0.3-0.4C0,16.3,0,16.2,0.3,16
	c-0.1-0.1-0.1-0.1-0.2-0.2c0.1,0,0.2,0,0.3,0c-0.3-0.3-0.3-0.8,0-1.1c0.1-0.1,0.1-0.3,0.2-0.5c0,0,0.2,0,0.3,0
	c-0.1-0.1-0.2-0.2-0.2-0.3c0.1-0.1,0.2-0.2,0.4-0.2c-0.1-0.4,0.1-0.8,0.5-0.9c0-0.2,0-0.3,0-0.5c0,0,0.1,0,0.1,0
	c0.1,0.1,0.2,0.3,0.4,0.5c0-0.5,0-0.9,0-1.4c0-0.3,0.1-0.4,0.4-0.3c0.3,0.1,0.4-0.1,0.4-0.6c-0.1,0-0.3,0-0.4,0c0,0,0,0,0-0.1
	c0.2-0.1,0.4-0.2,0.5-0.3c0,0-0.1,0-0.1-0.1c0-0.1,0.1-0.3,0.1-0.4C3.1,9,3.7,9.1,4.3,9c0.2,0,0.3,0.1,0.2,0.3
	C4.4,9.5,4.3,9.6,4.1,9.9c0-0.2,0-0.3,0-0.4c-0.2,0-0.3,0-0.5,0c0,0.2,0,0.4,0,0.6c0.1,0.1,0.1,0.2,0.2,0.3
	c-0.1,0.1-0.1,0.2-0.2,0.3c0,0.1,0.1,0.1,0.1,0.1c-0.5,0.9-1,1.8-1.5,2.7C2,13.3,1.9,13.2,1.8,13c0,0-0.1,0-0.1,0
	c0,0.1,0.1,0.2,0.1,0.3c-0.1,0.1-0.1,0.1-0.2,0.2c0.1,0.2,0.2,0.4,0.4,0.6c-0.4,0.5-0.5,1.1-0.5,1.7c0,0.2-0.2,0.4-0.3,0.7
	c0.1,0.1,0.2,0.3,0.2,0.4c0,0.2-0.2,0.3-0.4,0.5c0.2-0.1,0.3-0.1,0.4-0.1c0,0.3-0.1,0.7-0.1,1c0,0,0,0-0.1,0
	c0.1,0.1,0.1,0.3,0.2,0.4c-0.2,0-0.3,0-0.5-0.1c0,0,0,0.1,0,0.1c0.1,0,0.3,0.1,0.4,0.1c-0.2,0.3,0.1,0.7-0.5,0.8
	c0.1,0,0.3,0.1,0.3,0.1c0.1-0.2,0.2-0.3,0.3-0.5c0.1,0.1,0.2,0.2,0.4,0.3c0-0.2,0-0.3-0.1-0.5c-0.1,0-0.2,0-0.3,0
	c0.2-0.3,0.3-0.5,0.5-0.8c0.1,0,0.3-0.1,0.5-0.2c-0.3-0.1-0.5-0.2-0.7-0.2c-0.1,0.2-0.1,0.3-0.1,0.4c-0.1-0.5-0.1-0.5,0.3-0.4
	c0.2,0,0.4,0,0.6,0c-0.1,0.3-0.2,0.6-0.2,1c0,0,0.1,0,0.1,0c0-0.1,0.1-0.2,0.1-0.3c0,0,0,0,0.1,0c0,0.3-0.1,0.5-0.1,0.8
	c0,0-0.1,0-0.1,0.1c0-0.1,0-0.2,0-0.3c0,0-0.1,0.1-0.1,0.1c-0.1,0.2-0.2,0.4-0.3,0.5c0,0,0.1,0,0.1,0.1c0,0,0.1-0.1,0.1-0.1
	c0.1,0.1,0.1,0.3,0.2,0.5c-0.2-0.1-0.3-0.1-0.4-0.2c-0.2,0.3-0.5,0.6-0.7,1c0.3,0,0.6,0,0.9-0.1c0,0.2,0,0.4,0,0.6c0,0-0.1,0-0.1,0
	c0-0.1-0.1-0.2-0.1-0.4c-0.2,0.1-0.4,0.1-0.7,0.2c0.2,0.1,0.3,0.2,0.4,0.2c-0.1,0.1-0.2,0.2-0.3,0.2c0.1,0,0.2,0.1,0.3,0.1
	c0.2,0,0.4,0,0.6,0.1c0.1,0,0.1,0.1,0.1,0.2c0,0.3,0,0.7,0,1c-0.1,0-0.1,0-0.3,0.1c0.1,0.1,0.2,0.1,0.1,0.1c0,0.2,0.1,0.4,0.1,0.7
	c0,0-0.1,0-0.2,0C2.2,24,2.3,24,2.5,24.1c-0.1,0.2-0.2,0.4,0.1,0.5c0.1,0.1,0,0.5,0,0.7c0,0.2,0.3-0.2,0.4,0.2
	c0,0.1,0.3,0.2,0.5,0.4c-0.1,0-0.3,0-0.4,0c0,0,0.1,0.1,0.1,0.1c0.4,0,0.1,0.2,0.1,0.4c0.1,0,0.1-0.1,0.2-0.1c0,0,0.1,0.1,0.1,0.1
	c-0.2,0.1-0.3,0.2-0.5,0.3C3.5,26.8,3.7,26.9,4,27c-0.1,0.1-0.1,0.2-0.2,0.3c0.1,0,0.2,0,0.2,0c0,0,0,0,0,0.1
	c-0.2,0.1-0.4,0.2-0.5,0.3c0.2,0.1,0.4,0.2,0.6,0.2c0,0,0-0.1,0.1-0.3c0.1,0.1,0.1,0.2,0.2,0.4c0-0.2,0-0.2,0-0.4
	c0.4,0.5,0.8,1.1,1.1,1.6c-0.1,0-0.2,0-0.2,0c0,0.2,0,0.4,0,0.5c0.3,0.2,0.8,0.4,1.2,0.6c0,0,0,0.1,0,0.1c-0.1,0-0.3,0-0.4,0.1
	c0,0,0,0.1,0,0.1c0.1,0,0.2,0,0.3,0c0,0.1,0,0.2,0,0.1c0.2,0.1,0.4,0.1,0.5,0.1c0,0.3,0,0.6,0,0.8c0.1,0,0.2,0.1,0.4,0.2
	c0,0,0,0,0,0c0.1-0.1,0.2-0.2,0.3-0.4c0.1-0.2,0.2-0.2,0.4,0c0.1,0.1,0.2,0.3,0.3,0.5c-0.1,0.1-0.1,0.2-0.2,0.3
	c0.1,0.2,0.5,0.1,0.4,0.5c0.1,0,0.1-0.1,0.2-0.1c0,0.1,0,0.2,0,0.3c0,0,0.1-0.1,0.1-0.1c0.1,0,0.1,0.1,0.2,0.1
	c0.1,0.1,0.2,0.1,0.3,0.2c0-0.1,0-0.1,0.1-0.2c-0.3-0.1-0.5-0.2-0.8-0.3c0-0.1-0.1-0.3-0.1-0.4c0.7,0,0.9,0.8,1.5,0.9
	c-0.2,0.1-0.4,0.2-0.6,0.3c0,0,0,0.1,0,0.1c0.1,0,0.3-0.1,0.4-0.1c0,0,0.1,0.1,0.2,0.2c0.1-0.1,0.3-0.2,0.4-0.3
	c0.1,0.1,0.1,0.2,0.2,0.3c0.1,0,0.3,0,0.4,0c0.2,0.1,0.4,0.2,0.5,0.3c-0.3,0.1-0.5,0.1-0.8,0.2c0,0,0,0.1,0,0.1
	c0.2,0,0.4-0.1,0.6-0.1c0,0.1,0,0.2,0,0.1c0.2,0.1,0.4,0.3,0.6,0.3c0.1,0,0.2-0.1,0.3-0.1c0.2-0.2,0.4-0.2,0.6,0.1
	c0.1,0.2,0.2,0.4,0.4,0.6c0.1-0.2,0.1-0.3,0.1-0.3c0.2,0.2,0.3,0.4,0.5,0.7c-0.1,0.3-0.1,0.2-0.4,0.1c-0.1,0-0.3,0.1-0.5,0.1
	c0-0.1,0-0.3-0.1-0.5c-0.1,0-0.3-0.1-0.5-0.1c0,0.1,0.1,0.2,0.1,0.2c-0.3-0.1-0.7-0.2-1.1-0.4c0.2-0.1,0.3-0.1,0.5-0.2
	c0,0,0,0,0-0.1c-0.1,0-0.3,0-0.4,0c0-0.1,0-0.2,0-0.3c-0.2,0.1-0.3,0.1-0.5,0.2c-0.2,0.1-0.3,0.1-0.6,0c-0.3-0.2-0.7-0.4-1-0.6
	c0-0.2,0-0.3,0.1-0.6c-0.2,0-0.4,0-0.5,0c0,0,0,0,0,0.1c0.1,0,0.2,0,0.3,0c0,0,0,0.1,0,0.1c-0.1,0-0.3,0.1-0.4,0.1
	c0-0.2,0-0.4,0-0.6c0,0.1-0.2-0.2-0.2,0.1c0,0-0.2,0.1-0.2,0.1c-0.4-0.2-0.7-0.4-1.1-0.7c-0.1-0.1,0-0.3-0.1-0.5
	c-0.3,0.3-0.4,0.2-0.6-0.1c-0.1-0.2-0.4-0.3-0.6-0.5c-0.3-0.2-0.5-0.4-0.8-0.6c0.2,0,0.3-0.1,0.5-0.1c-0.5-0.4-1-0.7-1.4-1
	C4.4,29.9,4.3,30,4.2,30.1L4.2,30.1z M4.6,28.7C4.6,28.6,4.6,28.6,4.6,28.7c-0.2,0.1-0.4,0.3-0.5,0.4c0.3,0,0.7,0.1,0.7-0.4
	c-0.1,0.1-0.2,0.1-0.3,0.1c0,0,0,0,0-0.1C4.5,28.8,4.6,28.7,4.6,28.7z M1.3,20.4c-0.1-0.2-0.1-0.4-0.2-0.6C1,19.9,0.8,20,0.7,20.1
	C0.9,20.2,1.1,20.3,1.3,20.4z"/>
<path d="M29.7,5.3C29.8,5.1,29.9,5,30,4.9c0.1,0.1,0.2,0.2,0.3,0.3c0.1,0.1,0.1,0.2,0.2,0.4c0-0.2,0-0.3,0-0.3
	c0.2,0.1,0.5,0.1,0.7,0.2c-0.1,0.2-0.2,0.3-0.3,0.4c0,0,0,0,0.1,0.1c0.1-0.1,0.2-0.1,0.3-0.2c0,0.1,0,0.2,0,0.3
	c0,0.3,0.2,0.4,0.4,0.4c0.2,0,0.4,0.1,0.5,0.2c-0.1,0.2,0.1,0.3,0.2,0.4c0.1,0.1,0.1,0.3,0.2,0.5c0,0-0.1,0.1-0.2,0.2
	c0.5,0.2,0.9,0.6,1.2,1.1c0.1,0,0.2-0.1,0.2-0.1c0.4,0.5,0.7,0.9,1.1,1.4c0,0.1-0.1,0.2-0.1,0.4c0,0,0.1,0,0.1,0c0-0.1,0-0.2,0-0.3
	c0.5,0,0.6,0.4,0.7,0.7c0.2,0,0.3-0.1,0.4-0.1c0,0.1,0.1,0.3,0.1,0.4c0,0.1-0.2,0.2-0.3,0.3c0.1,0.1,0.3,0.2,0.4,0.3
	c0-0.1,0-0.2,0-0.2c0.4-0.2,0.4,0.3,0.7,0.4c-0.1,0.1-0.1,0.2-0.1,0.2c0.3,0.2,0.1,0.5,0.1,0.7c0,0.1,0.1,0.2,0.1,0.3
	c0.1-0.1,0.2-0.1,0.3-0.2c0.1,0.2,0.2,0.4,0.3,0.6c0.1,0.2,0.1,0.5,0.1,0.7c0.3,0.2,0.6,0.5,0.5,1c-0.1-0.1-0.2-0.1-0.2-0.2
	c0,0.1-0.1,0.2-0.1,0.2c0,0.1,0.1,0.3,0.1,0.4c0.2,0.1,0.4,0.2,0.6,0.3c0.2,0.1,0.3,0.2,0.2,0.4c0,0,0.1,0.1,0.2,0.2
	c-0.2,0-0.3,0-0.4,0c0.6,0.3,0.7,0.5,0.6,1.2c0,0.1,0.1,0.2,0.2,0.4c-0.1,0.1-0.2,0.1-0.3,0.2c0.1,0.1,0.3,0.2,0.3,0.2
	c0,0.1-0.2,0.3-0.1,0.4c0,0.2,0.1,0.5,0.1,0.6c-0.2,0.1,0.3,0.6-0.2,0.5c0.1,0.1,0.2,0.3,0.3,0.4c0,0-0.1,0.1-0.1,0.1
	c-0.2-0.1-0.3-0.2-0.5-0.3c0,0,0,0-0.1,0c0.1,0.2,0.3,0.4,0.4,0.7c0.1,0.1,0.1,0.3,0,0.4c0.1,0.1,0.2,0.2,0.2,0.3
	c-0.1,0.1-0.2,0.2-0.3,0.2c-0.3,0.1-0.3,0.3-0.1,0.7c0.1,0,0.3-0.1,0.5-0.1c-0.2,0.3-0.3,0.4-0.5,0.6c0,0,0.1,0,0.1,0
	c0,0.2,0.1,0.4,0.1,0.5c-0.1,0.4-0.3,0.8-0.3,1.2c0,0.3-0.2,0.4-0.5,0.2c-0.2,0-0.4-0.1-0.5-0.1c-0.3-0.2-0.3-0.5,0-0.9
	c0,0.1,0.1,0.1,0.1,0.2c0,0.1,0.1,0.1,0.1,0.1c0.1-0.1,0.3-0.3,0.4-0.4c-0.2,0-0.5-0.1-0.7-0.1c0.1-0.3,0.2-0.6,0.2-1
	c-0.1,0-0.2-0.1-0.2-0.1c0.1-0.2,0.3-0.5,0.2-0.6c-0.2-0.3,0-0.6,0-0.9c0-0.3,0-0.6,0.1-0.9c0-0.1,0.1-0.1,0.2-0.2
	c-0.1,0-0.2,0-0.2,0c0-0.1-0.1-0.3-0.1-0.5c0,0,0.1,0,0.1,0c0.2,0.1,0.3,0.2,0.5,0.4c0,0,0.1-0.1,0.1-0.1c-0.1-0.1-0.2-0.1-0.3-0.2
	c0-0.1,0.1-0.2,0.1-0.3c0,0,0,0-0.1,0c0,0-0.1,0.1-0.2,0.1c-0.1-0.2-0.2-0.3-0.2-0.5c0,0-0.1,0.1-0.2,0.2c0.2-0.8,0.1-1.4-0.3-1.9
	c0-0.1,0-0.2,0-0.3c0-0.1,0.1-0.3,0.1-0.4c-0.5-0.1-0.5-0.1-0.4-0.9c-0.1,0.1-0.1,0.2-0.2,0.3c-0.1-0.3-0.2-0.6-0.4-0.9
	c0,0,0-0.1,0.1-0.1c-0.1-0.1-0.3-0.2-0.4-0.3c0.2-0.1,0.3-0.2,0.5-0.2c0,0,0-0.1,0-0.1c-0.1,0-0.3,0.1-0.4,0.1c-0.4-0.7-0.4-0.8,0-1
	c-0.1,0-0.3,0-0.4,0.1c-0.2,0.2-0.4,0.4-0.6,0.7c-0.4-0.4,0.5-0.4,0.2-0.8c-0.5,0.1-0.5,0.5-0.5,0.9c-0.1-0.2-0.2-0.4-0.3-0.6
	c0.1-0.1,0.2-0.1,0.3-0.2c-0.2-0.1-0.3-0.1-0.4-0.3c0-0.1,0.1-0.2,0.2-0.4c0.1-0.2,0.2-0.5,0.3-0.7c-0.3-0.1-0.5,0.1-0.5,0.6
	c-0.1,0-0.2-0.1-0.2-0.1c0-0.2,0-0.5,0.1-0.6c0.3-0.3,0.1-0.4-0.2-0.5c0,0-0.1-0.1-0.2-0.2c0.1,0.3,0.1,0.4,0.2,0.7
	c-0.2-0.3-0.4-0.6-0.6-0.8c0.2,0,0.5,0,0.7,0c0,0,0,0,0-0.1c-0.2-0.1-0.4-0.2-0.7-0.3c-0.1-0.4-0.5-0.7-0.9-0.9
	c0.1-0.1,0.1-0.2,0.2-0.3c-0.1,0-0.2,0-0.4,0c-0.1-0.2,0.1-0.5-0.3-0.4c-0.1,0-0.2-0.2-0.3-0.4c0-0.1,0.1-0.2,0.2-0.3
	c-0.1-0.1-0.3-0.2-0.5-0.3c0,0.2,0,0.3,0,0.4c-0.3-0.1-0.5-0.1-0.8-0.2c0-0.1,0-0.2,0.1-0.4c-0.1,0-0.1,0.1-0.2,0.1
	c0-0.2-0.1-0.5-0.2-0.8C31.2,7.8,31.1,7.9,31,8c-0.1,0-0.3,0-0.5,0c0-0.1,0-0.3,0.1-0.5c-0.1,0-0.2,0.1-0.3,0.1
	c0.1-0.2,0.2-0.3,0.3-0.5c-0.2,0-0.4,0-0.6,0c0,0-0.2,0.1-0.3,0.3c0,0,0,0.1,0.1,0.2c0,0,0,0-0.1,0.1c-0.2-0.2-0.5-0.4-0.7-0.6
	C28.9,7,28.7,7,28.6,6.9c-0.2-0.1-0.4-0.2-0.7-0.3c0.2,0,0.3,0,0.4,0c-0.1-0.2-0.2-0.3-0.3-0.4c-0.4,0-0.8,0-1.3-0.1
	c0.2-0.2,0.3-0.2,0.5-0.4c-0.2,0-0.4,0-0.6,0c0,0.1-0.1,0.2-0.2,0.3c-0.1,0-0.2-0.1-0.3-0.1C26,5.5,25.9,5.3,25.8,5
	c-0.1,0-0.3,0.1-0.3,0.1c-0.2,0.2-0.3,0.6-0.5,0.7c-0.3,0.1-0.6-0.3-0.5-0.7C24.2,5,24,4.9,23.8,4.8C23.9,5,23.9,5.2,24,5.3
	c-0.6,0.2-1.1-0.2-1.7-0.1c0-0.3,0.6-0.3,0.3-0.7c0,0,0,0,0,0c0,0,0.1-0.1,0.2-0.2c-0.1,0-0.2,0-0.2,0c0,0,0-0.1-0.1-0.1
	c0.1-0.1,0.3-0.2,0.4-0.3C22.9,4.1,23,4.3,23,4.4c-0.1-0.1,0.3,0.1,0.1-0.2c0.2-0.1,0.3-0.2,0.5-0.2c0.4,0,0.8,0.1,1.2,0.1
	c0.1,0.1,0.1,0.3,0.2,0.4c0.1-0.3,0.3-0.4,0.5-0.2c0.1,0.1,0.3,0.1,0.5,0.1c0.2,0,0.5,0.1,0.7,0.1c0.2,0,0.5,0.1,0.7,0.2
	c0,0,0.1,0.1,0.1,0.1c0,0-0.1,0-0.1,0.1c-0.1,0-0.1,0.1-0.2,0.1c0,0,0.1,0.2,0.1,0.1c0.5-0.1,1,0.2,1.4,0.3c0.2,0,0.3,0.2,0.5,0.2
	c0.2,0,0.4,0,0.7,0.1c0,0,0.1-0.1,0.1-0.1C29.9,5.6,29.8,5.4,29.7,5.3z M30.9,7.7c0.2-0.3,0.5-0.6,0.7-0.8c-0.1-0.1-0.2-0.2-0.3-0.3
	c-0.1,0-0.2,0.1-0.2,0.1C30.9,7,30.9,7.4,30.9,7.7z M29,6.1C29,6.1,29,6.1,29,6.1c-0.1,0.2-0.2,0.4-0.3,0.6c0.2,0,0.3,0,0.5,0
	c0-0.2,0-0.4,0.1-0.7c-0.1,0.2-0.2,0.3-0.3,0.4c0,0,0,0-0.1,0C29,6.3,29,6.2,29,6.1z M30.2,6.5c0.3,0.1,0.4-0.5,0.7,0
	c0-0.3,0-0.4,0.1-0.5C30.5,6,30.2,6.1,30.2,6.5z"/>
<path d="M17.9,39.4c-0.1,0.1-0.1,0.3-0.2,0.3c0.2,0,0.4,0,0.7,0c-0.1-0.1-0.2-0.1-0.3-0.2c0.3-0.2,0.6-0.1,0.9,0.3
	c0-0.2,0-0.2,0-0.4c0.1,0,0.3-0.1,0.4-0.1c0,0,0,0,0,0c-0.1,0.1-0.2,0.1-0.2,0.2c0.3,0.2,0.5,0.2,0.8,0c0.1-0.1,0.3-0.1,0.3,0
	c0.2,0.4,0.4,0.2,0.7-0.1c-0.1,0-0.1,0-0.2,0c0,0,0-0.1,0-0.1c0.1,0,0.3-0.1,0.5-0.2c-0.1,0.1-0.1,0.2-0.2,0.3
	c0.1,0.1,0.2,0.1,0.4,0.2c0-0.2,0-0.3,0.1-0.5c0.3,0.4,0.3,0.4,0.7,0.2c0.1-0.2,0.2-0.4,0.2-0.5c0.2,0.2,0.2,0.4,0.4,0.4
	c0.1,0,0.2-0.2,0.4-0.2c0.2-0.1,0.3-0.1,0.5-0.1c-0.1-0.1-0.2-0.1-0.3-0.2c0.2,0.1,0.4,0.2,0.7,0.3c-0.1,0.1,0.1,0.5-0.4,0.3
	c0,0.1,0.1,0.2,0.1,0.3c0,0.2-0.1,0.4-0.3,0.2c-0.2-0.2-0.3-0.1-0.4,0.1c-0.1,0.1-0.4,0.2-0.5,0.3c0,0,0-0.1-0.1-0.1
	c0.1-0.1,0.1-0.2,0.2-0.4c-0.3,0.1-0.4,0.2-0.5,0.2c-0.2,0.2-0.3,0.5-0.5,0.5c-0.3,0.1-0.7,0-1.1-0.1c0.1,0,0.3-0.1,0.5-0.2
	c-0.3,0-0.6-0.1-0.8,0c-0.1,0-0.2,0.3-0.3,0.4c0-0.1-0.1-0.2-0.1-0.3c-0.1-0.4-0.4-0.2-0.7-0.2c-0.1,0-0.2,0-0.3,0
	c-0.3,0-0.5-0.1-0.7,0.2c0,0-0.2,0-0.3-0.1c0,0,0,0,0,0c-0.2-0.1-0.4-0.2-0.6-0.2c-0.3-0.1-0.6-0.1-0.9-0.1C16,40.4,16,40.4,15.5,40
	c-0.1-0.1-0.2-0.1-0.4-0.2c0.1,0.2,0.2,0.3,0.2,0.4c-0.3,0-0.5,0.1-0.8,0.1c0-0.2,0.1-0.3,0.1-0.5c0,0-0.1,0-0.1,0
	c-0.1,0.1-0.1,0.2-0.2,0.4c-0.1-0.2-0.2-0.3-0.3-0.5c0,0.2,0,0.2,0,0.3c0,0-0.1,0-0.1,0c0-0.1,0-0.2,0.1-0.3c-0.3,0-0.5,0-0.8,0
	c-0.1,0-0.2-0.1-0.3-0.2c-0.3-0.2-0.7-0.3-0.9-0.5c-0.3-0.3-0.9-0.3-1.1-0.7c-0.1,0.1-0.2,0.2-0.2,0.2c-0.2-0.1-0.4-0.2-0.6-0.3
	c0-0.1-0.1-0.3-0.2-0.5c-0.1,0.1-0.2,0.3-0.3,0.4c-0.1-0.2-0.2-0.3-0.3-0.4c0,0-0.1,0.1-0.1,0.1c0.1,0.1,0.1,0.1,0.2,0.2
	c-0.4-0.1-0.4-0.1-0.3-0.4c0.1-0.3,0.1-0.3-0.2-0.4c0,0.2,0,0.3,0,0.5c-0.4-0.2-0.9-0.2-0.7-0.9c0.1,0.1,0.1,0.2,0.2,0.3
	c0,0,0.1-0.1,0.1-0.1c0-0.1-0.1-0.3-0.1-0.3c-0.3-0.1-0.7,0-0.5-0.6c0,0-0.1-0.2-0.1-0.2c0.1-0.2,0.2-0.4,0.4-0.7
	c0.1,0.3,0.1,0.5,0.2,0.8c0.2,0,0.3,0,0.5,0c-0.1-0.2-0.3-0.3-0.4-0.5c0,0,0,0,0,0c0.3,0.2,0.5,0.3,0.8,0.5c-0.3,0.1-0.6,0.3-1,0.4
	c0.4,0.1,0.8-0.3,1.1,0.2c-0.2,0.1-0.4,0.1-0.6,0.2c-0.1,0-0.1,0.1-0.1,0.2c0.1,0,0.2,0.1,0.2,0.1C8.8,37.1,9,37,9.1,37
	c0.1-0.2,0.2-0.3,0.3-0.5c0,0,0.1,0,0.1,0c0,0.2,0.1,0.4,0.1,0.7c0.1-0.1,0.3-0.1,0.5-0.2c0.1,0.1,0.2,0.2,0.4,0.4
	c-0.2,0-0.3,0-0.5,0c0.3,0.1,0.4,0.3,0.7,0.3c0,0,0.2-0.2,0.2-0.3c0.1,0.2,0.2,0.4,0.3,0.7c0,0,0.1,0,0.1,0c0-0.1,0-0.1,0-0.2
	c0.1,0.2,0.2,0.4,0.2,0.6c0,0,0.1,0,0.1,0c0-0.2-0.1-0.3-0.1-0.5c0.5,0,0.9,0.3,0.9,0.6c0.3-0.1,0.7-0.3,1,0c-0.1,0-0.3,0.1-0.5,0.2
	c0,0-0.1-0.1-0.2-0.1c0,0,0,0,0,0.1c0.2,0.1,0.4,0.2,0.6,0.4c0-0.2,0.1-0.3,0.1-0.5c0,0.1,0.1,0.2,0.2,0.3c0-0.2,0-0.3,0-0.4
	c0.2,0.1,0.3,0.2,0.4,0.3c0.3-0.1,0.6-0.1,0.8-0.2c0.1,0.2,0.2,0.3,0.3,0.5c0.1-0.2,0.1-0.2,0.2-0.4c0,0.1,0,0.2,0.1,0.3
	c0.1-0.1,0.1-0.2,0.1-0.3c0.1,0.2,0.3,0.4,0.4,0.5c0.1-0.1,0.2-0.2,0.3-0.3c-0.1,0.2-0.1,0.2-0.1,0.3c0.3,0,0.3,0,0.2-0.3
	c0.1,0,0.2-0.1,0.4-0.1c0,0.1,0.1,0.2,0.1,0.3c-0.4,0.4,0,0.5,0.3,0.8c0-0.3,0-0.6,0-0.7C17.4,39.1,17.7,39.3,17.9,39.4
	C17.9,39.4,17.9,39.4,17.9,39.4z"/>
<path d="M16.5,2.9c-0.2-0.1-0.3-0.1-0.6-0.2C16,2.8,16,2.9,16.1,3c-0.5-0.1-0.8,0.1-1,0.5C15,3.3,14.9,3.2,14.8,3
	c0,0.1-0.1,0.3-0.1,0.5c-0.2,0-0.4,0-0.5,0c-0.1-0.2-0.2-0.4-0.3-0.6c0,0-0.1,0-0.1,0c0.4,0.6-0.3,0.6-0.4,0.9c0,0-0.2,0-0.2,0
	c-0.2-0.1-0.3-0.2-0.6-0.2c0,0.1,0.1,0.3,0.2,0.4c-0.6,0.5-0.7,0.6-1,0.2c-0.3,0.1-0.5,0.3-0.3,0.7c-0.1-0.1-0.2-0.1-0.2-0.1
	c-0.3,0.2-0.6,0.4-0.9,0.7C10,4.9,10,4.9,9.6,5.2c0.1,0.2,0.1,0.3,0.2,0.5c-0.2,0-0.3,0-0.4-0.1c0,0,0,0,0,0.1
	c0.1,0.1,0.3,0.2,0.4,0.3C9.6,6,9.4,6.2,9.2,6.4C9.2,6.1,9.3,6,9.3,5.9c-0.2,0-0.3,0-0.5,0.2c-0.1,0.1-0.2,0-0.4,0
	c0,0.1,0,0.2,0,0.3C8.2,6.3,7.8,6.5,7.7,6.8C7.4,6.9,7.2,6.9,7,7c0,0.2,0,0.3,0.3,0.2c0.1,0,0.2,0,0.4,0c0,0.1,0,0.1,0,0.2
	c-0.2,0-0.3,0.1-0.5,0.1C7,7.5,6.8,7.5,6.6,7.6C6.5,7.6,6.2,7.4,6.2,7.7c-0.1,0-0.2,0-0.3-0.1c0.1-0.1,0.2-0.1,0.4-0.3
	c-0.2,0-0.2,0-0.3,0c-0.2,0-0.4,0-0.5,0c-0.1,0,0-0.3,0-0.5C5.7,7,5.7,7,5.8,7.1c0,0,0-0.1,0-0.1C5.8,6.9,5.6,6.8,5.4,6.7
	C5.7,6.6,6,6.6,6.2,6.5c0,0.1,0.1,0.1,0.1,0.2c0.1-0.1,0.1-0.1,0.2-0.2C6.4,6.5,6.3,6.4,6.2,6.3c0,0,0.1-0.1,0.1-0.1
	c0.2,0.1,0.3,0.2,0.6,0.3c0-0.3,0-0.5,0-0.7c0,0,0.1-0.1,0.3-0.2c0,0.1,0,0.2,0,0.3c0,0,0-0.1,0.1-0.1C7.5,5.9,7.8,6,8.1,6.1
	C7.9,5.8,7.8,5.6,7.7,5.5c0,0-0.1,0-0.2,0C7.7,5.3,7.8,5.2,8.1,5c0.1,0.1,0.2,0.1,0.4,0.2C8.5,5.1,8.6,5.1,8.7,5
	C8.8,4.8,8.9,4.7,9,4.4c0.1,0.2,0.2,0.3,0.3,0.4c0.2-0.3,0.4-0.6,0.6-1c0,0,0,0,0.1,0c0,0.2,0,0.3,0,0.5c0,0,0,0,0.1,0
	c0-0.1,0-0.1,0.1-0.3c0,0.1,0.1,0.1,0.1,0.2c0,0,0.1,0,0.1-0.1c0.1-0.2,0.1-0.4,0.2-0.5c0.2-0.2,0.5-0.4,0.7-0.6
	c0.1-0.1,0.2,0,0.3,0C11.7,3,11.8,2.9,12,2.6c0.1,0.2,0.1,0.4,0.1,0.5C12.3,3,12.6,3,12.8,2.9c-0.1-0.1-0.2-0.2-0.3-0.4
	c0,0,0-0.1,0.1-0.1c0.2,0.1,0.3,0.2,0.5,0.4c0-0.2,0-0.3,0.1-0.5c0,0,0.2,0,0.3,0c0,0,0,0.1,0.1,0.2c0,0.1,0,0.2,0.1,0.3
	c0-0.2,0.1-0.4,0.1-0.6c0.1,0.1,0.2,0.1,0.3,0.2c0.1-0.2,0.1-0.3,0.2-0.5c0,0-0.1,0-0.1,0c-0.1,0-0.1,0.1-0.2,0.2
	c0-0.1-0.1-0.2-0.1-0.3c0.2,0,0.3,0,0.5,0c0-0.1,0-0.3-0.1-0.4c0.5,0.1,0.9,0.2,1.4,0.2c0,0,0,0.1,0,0.1c-0.1,0-0.3,0.1-0.4,0.1
	c0,0,0,0.1,0,0.1c0.3,0,0.7,0,1,0c0,0,0,0.1,0,0.1c-0.1,0-0.2,0.1-0.3,0.1c0,0,0.1,0.1,0.1,0.1c0.1-0.1,0.3-0.2,0.4-0.3
	C16.5,2.4,16.5,2.6,16.5,2.9C16.5,2.9,16.5,2.9,16.5,2.9z M14.4,2c0,0-0.1,0.1-0.1,0.1c0.1,0.1,0.2,0.2,0.3,0.4
	c-0.1,0.1-0.2,0.2-0.4,0.3c0.1,0.1,0.1,0.2,0.2,0.4c0.1-0.2,0.1-0.3,0.2-0.4c0.4-0.3,0.4-0.6,0-0.9c0,0,0-0.1-0.1-0.2
	c0,0.2,0,0.2,0,0.3c0,0.1,0,0.1,0,0.2c0,0,0,0-0.1,0C14.4,2.1,14.4,2,14.4,2z"/>
<path d="M37.9,26.8c0.1,0.2,0.1,0.5,0.2,0.7c0.1,0.3,0,0.3-0.2,0.4c-0.1,0-0.2,0.1-0.4,0.2c0,0-0.1,0-0.2-0.1c0,0.1,0,0.2-0.1,0.2
	c0.2,0,0.3,0.1,0.4,0.1c0,0,0,0.1,0,0.1c-0.2,0-0.3,0-0.5,0.1c0,0.1-0.1,0.2-0.1,0.3c0.1,0.1,0.2,0.1,0.3,0.2
	c-0.1,0.1-0.2,0.3-0.3,0.4c-0.1-0.2,0.1-0.6-0.4-0.5c0,0,0.1,0.1,0.1,0.1c0.1,0.1,0.1,0.1,0.2,0.2c-0.1,0-0.2,0.1-0.3,0.1
	c-0.2,0-0.5,0-0.7,0c0,0,0,0.1,0,0.1c0.2,0,0.3,0,0.5,0c0.1,0.1,0.1,0.2,0.2,0.3c0.1-0.1,0.1-0.1,0.2-0.2c0,0,0.1,0,0.1,0
	c-0.1,0.2-0.2,0.4-0.4,0.7c-0.2-0.1-0.5-0.1-0.6,0.2c0,0-0.1,0.1,0,0.1c0.2,0.2,0,0.4-0.1,0.5c-0.1-0.1-0.3-0.2-0.4-0.2
	c0,0-0.1,0-0.1,0c0,0.4,0,0.8,0,1.3c0,0-0.1,0-0.1,0c-0.1-0.1-0.2-0.3-0.2-0.4c0,0,0,0-0.1,0c0,0.1,0,0.2,0.1,0.3
	c-0.1,0-0.2-0.1-0.2-0.1c-0.1,0.1-0.3,0.2-0.4,0.3c-0.1,0.1-0.2,0.1-0.3,0.2c0,0,0.1,0.1,0.1,0.1c0-0.1,0.1-0.1,0.1-0.2
	c0.1,0.1,0.2,0.1,0.3,0.2c-0.1,0.2-0.3,0.5-0.4,0.8c-0.1,0.1-0.2,0.2-0.3,0.3c0,0-0.1,0-0.1-0.1c0-0.1,0-0.1,0-0.2
	c-0.3,0.1-0.5,0.1-0.8,0.2c0,0.1,0,0.2,0,0.4c0.2-0.1,0.3-0.4,0.5-0.1c-0.2,0.2-0.3,0.3-0.5,0.5c0,0,0.1,0.1,0.2,0.1
	c-0.2,0.1-0.4,0.2-0.7,0.3c0,0-0.1-0.1-0.3-0.2c0.1,0.2,0.1,0.3,0.1,0.4c-0.2,0.2-0.3,0.4-0.5,0.8c-0.1-0.3-0.1-0.4-0.1-0.7
	c0,0-0.1-0.1-0.3-0.2c-0.1,0.4-0.1,0.8-0.2,1.2c-0.2,0.1-0.5,0.2-0.7,0.4c-0.1,0-0.2,0.1-0.2,0.2c0-0.1,0-0.2-0.1-0.4
	c-0.1,0.3-0.2,0.4-0.3,0.6c-0.1-0.2-0.2-0.4-0.3-0.7c0.4,0,0.7-0.1,1.1-0.1c-0.1-0.1-0.2-0.1-0.2-0.2c-0.2,0-0.3,0.1-0.5,0.1
	c0,0,0-0.1,0-0.1c0.4-0.1,0.6-0.4,0.7-0.9c0.2,0.1,0.3,0.2,0.4,0.3c0,0,0.1-0.1,0.1-0.2c0-0.1,0-0.2,0-0.3c0.2,0.1,0.3-0.3,0.6-0.1
	c0,0,0.2,0,0.2,0c0.1-0.3,0.2-0.5,0.3-0.8c0-0.1,0.1-0.2,0.1-0.3c0.1,0.1,0.1,0.2,0.3,0.3c0.1,0,0.2-0.1,0.5-0.1
	c-0.2-0.1-0.3-0.2-0.4-0.3c0.1-0.2,0.2-0.5,0.4-0.7c0-0.1,0.3,0,0.4,0.1c-0.1,0.1-0.3,0.3-0.4,0.4c0,0,0.1,0,0.1,0.1
	c0.2-0.1,0.4-0.2,0.6-0.4c0,0-0.1-0.1-0.2-0.2c0.1-0.1,0.3-0.3,0.4-0.5c-0.1-0.1-0.3-0.2-0.5-0.3c0.1,0,0.2,0,0.3,0
	c0-0.1,0-0.3,0-0.5c0.2,0.1,0.3,0.2,0.4,0.3c0-0.3,0.1-0.5,0.1-0.8c0.5,0.3,0.7,0.1,0.7-0.4c0-0.1,0.1-0.2,0.1-0.3
	c0,0,0.2,0.1,0.3,0.1c-0.1-0.1-0.2-0.3-0.3-0.4c0.1-0.5,0.5-0.2,0.9-0.2c-0.2-0.1-0.2-0.2-0.3-0.2c-0.1-0.1-0.2-0.2-0.2-0.2
	c0-0.1,0.1-0.2,0.2-0.3c0.1-0.1,0.3-0.1,0.4-0.1c0.1-0.1,0.2-0.1,0.3-0.2c-0.1-0.1-0.2-0.2-0.3-0.4c0.1-0.1,0.4-0.3,0.3-0.7
	c0-0.1,0.1-0.5,0.5-0.5C37.4,27.1,37.6,26.9,37.9,26.8C37.9,26.8,37.9,26.8,37.9,26.8z"/>
<path d="M24.3,38.7c0.3,0.1,0.6,0.1,0.8,0.2c0-0.3,0.1-0.5,0.1-0.8c0.2,0.5,0.2,0.5,0.5,0.4c0-0.1-0.1-0.1-0.1-0.1
	c0.4-0.4,0.9-0.8,1.3-1.3c0,0.2,0,0.3,0,0.4c0.3-0.2,0.5-0.4,0.8-0.5c0,0.1,0,0.1,0.1,0.3c0.1-0.1,0.2-0.2,0.3-0.4
	c-0.1,0-0.2,0-0.2-0.1c0.2-0.1,0.3-0.2,0.4-0.3c0.1-0.1,0.3,0,0.5-0.1c0,0,0-0.1-0.1-0.2c0.1,0,0.1,0,0.1,0c0.2,0.2,0.3,0.4,0.2,0.7
	c0,0.1-0.2,0.1-0.3,0.1c0,0.1,0,0.3-0.1,0.5c0,0-0.1,0-0.1,0c0-0.1,0-0.1,0-0.3c-0.3,0.4-0.6,0.7-0.9,1c0-0.1,0-0.2-0.1-0.4
	c-0.2,0-0.4,0.1-0.6,0.1c0,0.2,0,0.4-0.1,0.5c0,0-0.2,0-0.3,0c-0.1,0.4-0.6,0.6-1.1,0.4c0,0.1,0.1,0.2,0.1,0.4
	c-0.6-0.2-1.1,0.1-1.6,0.5C24.3,39.3,24.3,39,24.3,38.7z"/>
<path d="M17,2.5c0.2,0,0.3-0.4,0.5-0.2c0-0.1,0.1-0.2,0.1-0.3c0,0,0,0.1,0.1,0.1C18.1,2,18.5,1.9,19,1.7c0,0.1,0,0.2-0.1,0.3
	c0.2,0.1,0.4,0.1,0.5,0.2c0.1-0.2,0.2-0.3,0.3-0.4c0,0,0.2,0,0.3,0.1c0,0,0-0.1,0.1-0.1c0.1,0.1,0.1,0.2,0.2,0.3c0,0,0,0,0.1,0
	c0-0.1-0.1-0.2-0.1-0.4c0.3,0.1,0.6,0.2,0.8,0.3c0,0,0-0.1,0-0.2c0.5,0.4,1,0.3,1.6,0.2c0,0.2-0.1,0.3-0.1,0.5c0,0,0,0,0,0
	c-0.1,0.1-0.2,0.2-0.2,0.3c-0.2-0.2-0.5-0.3-0.8-0.5c0,0.1,0,0.2,0,0.2c0,0.1-0.1,0.1-0.1,0.2c-0.1-0.1-0.1-0.1-0.2-0.2
	c-0.1-0.1-0.1-0.1-0.2-0.2c-0.1,0.2-0.3,0.1-0.5,0.2c-0.4,0.2-0.8,0.3-1.3,0.5c0-0.2,0-0.3,0.1-0.3c-0.3,0-0.6,0.1-0.9,0.1
	c0-0.1,0-0.1,0-0.2c0,0,0,0-0.1,0c-0.1,0.1-0.2,0.2-0.3,0.3c0,0,0.1,0,0.1,0.1c-0.2,0-0.4,0.1-0.6,0.1c-0.1-0.1-0.2-0.1-0.3-0.3
	c0,0.1,0,0.2,0,0.3c0,0-0.1,0-0.1,0C17.1,2.8,17.1,2.7,17,2.5L17,2.5z"/>
<path d="M22.6,4.4c-0.1,0.1-0.2,0.2-0.3,0.3c0,0-0.1,0-0.3-0.1c-0.1,0.1-0.2,0.3-0.3,0.4c-0.3-0.3-0.5-0.5-0.8-0.8
	c-0.1,0.1-0.2,0.2-0.4,0.3c0-0.1-0.1-0.1-0.2-0.2c-0.1,0.1-0.3,0.2-0.4,0.3c-0.1-0.1-0.1-0.2-0.2-0.3c-0.1,0.2-0.2,0.4-0.3,0.5
	c-0.1,0.2-0.3,0.2-0.5,0c-0.2-0.2-0.4-0.3-0.6-0.5c0,0.2,0,0.3,0,0.4c-0.3-0.1-0.5-0.2-0.8-0.4c0-0.2,0-0.2,0.3-0.3
	c0.1,0,0.2-0.2,0.3-0.3c0.1,0.1,0.2,0.2,0.3,0.4c0.1,0,0.3-0.1,0.6-0.1C19,4.1,18.9,4,18.8,4c0.3,0,0.7-0.1,1.1-0.1c0,0,0,0.1,0,0.1
	c-0.1,0.1-0.2,0.2-0.3,0.3c0,0,0,0.1,0,0.1c0.1-0.1,0.2-0.2,0.3-0.2c0.1,0,0.2,0.1,0.3,0.3c0.1-0.1,0.2-0.2,0.2-0.3
	c0.2-0.5,0.6-0.4,1-0.3c0.1,0,0.2,0,0.3,0c0.3,0,0.5,0.1,0.7,0.4C22.4,4.3,22.5,4.3,22.6,4.4C22.6,4.4,22.6,4.4,22.6,4.4z"/>
<path d="M29.7,5.3c0.1,0.2,0.2,0.3,0.3,0.5c0,0-0.1,0.1-0.1,0.1c-0.3-0.1-0.5-0.3-0.8-0.4c0,0,0,0,0-0.1c0.1,0,0.3,0.1,0.4,0.1
	c0,0,0-0.1,0.1-0.1c-0.3-0.1-0.5-0.3-0.8-0.4c-0.2,0.2-0.4,0.2-0.6,0c0.1-0.1,0.1-0.2,0.2-0.3c-0.2-0.1-0.3-0.2-0.6-0.2
	c0.1,0.1,0.1,0.2,0.2,0.3c-0.5,0-0.6-0.4-0.7-0.7c0,0.1-0.1,0.2-0.1,0.3c-0.1,0-0.3-0.1-0.4-0.1c0,0,0,0,0-0.1c0.1,0,0.2,0,0.3,0
	c-0.1-0.3-0.3-0.4-0.7-0.3c-0.1,0-0.2-0.1-0.3-0.1c-0.1-0.2-0.2-0.5-0.3-0.7c0,0,0,0,0,0c0.2,0,0.4,0,0.5,0.1
	c0.4,0.2,0.4,0.2,0.6-0.2c0,0,0,0.1,0,0.1c0,0.4,0,0.4,0.3,0.6c0.3,0.1,0.6,0.3,0.9,0.4c0,0,0.1,0,0.2,0c0.1,0,0.1,0,0.2-0.1
	c0,0.1,0,0.2,0.1,0.3c0,0,0.1-0.1,0.1-0.1c0.2,0.1,0.4,0.3,0.5,0.4C29.3,4.8,29.7,4.8,29.7,5.3z"/>
<path d="M25.7,2.9c-0.1-0.1-0.3-0.3-0.4-0.4c0,0-0.1,0.1-0.1,0.1c0.1,0.1,0.2,0.2,0.3,0.3c0.2,0.2,0.4,0.3,0.1,0.6c0,0,0,0,0,0
	c0,0.2,0,0.2-0.3,0.1c0.1,0,0.1-0.1,0.2-0.1c-0.1-0.1-0.2-0.2-0.3-0.4C25,3.2,25,3.3,25,3.3c0,0-0.1,0.1-0.1,0.1
	c0,0-0.1-0.1-0.1-0.1c0-0.3-0.2-0.4-0.6-0.2c0.2,0,0.3,0,0.4,0.1c0,0,0,0.1,0,0.1c-0.1,0-0.2,0.1-0.3,0.1c-0.2,0-0.4-0.1-0.5-0.1
	c0-0.1,0-0.3-0.1-0.4c-0.1-0.1-0.3,0-0.4,0.1C23.2,3,23.1,3,23,3.1c-0.1-0.2-0.3-0.3-0.5-0.5c0,0,0,0,0-0.1c0,0,0,0,0,0
	c0.2-0.1,0.3-0.1,0.5-0.2c0,0,0,0.1,0,0.1c0.1-0.2,0.2-0.3,0.3-0.4c0.3,0.2,0.5,0.4,0.7,0.6c0-0.1,0-0.2,0-0.4c0.3,0,0.5,0,0.8,0
	c0,0,0,0.1,0,0.1c-0.2,0.1-0.3,0.1-0.5,0.2c0,0,0,0.1,0,0.1c0.2,0,0.4,0.2,0.6,0c0.1-0.1,0.3-0.2,0.5-0.1c0.3,0.1,0.6,0.2,1,0.4
	C26.1,2.8,25.9,2.9,25.7,2.9C25.7,2.9,25.7,2.9,25.7,2.9z"/>
<path d="M28.6,34.5c-0.1-0.1-0.1-0.2-0.2-0.3c0,0.3,0,0.5,0,0.8c-0.1,0-0.2-0.1-0.4-0.1c-0.1,0.1-0.2,0.2-0.3,0.3
	c-0.1-0.1-0.1-0.1-0.2-0.2c-0.2,0.2,0.5,0.4,0,0.6c0-0.1,0-0.2-0.1-0.3c-0.3,0.2-0.5,0.4-0.8,0.6c-0.1,0-0.2-0.1-0.4-0.2
	c0-0.2,0-0.3,0-0.4c0.1,0.1,0.3,0.1,0.5,0.2c0,0,0,0.1-0.1,0.1c0.1-0.1,0.1-0.2,0.2-0.3c0.1-0.1,0.2-0.1,0.3-0.1c0-0.1,0-0.4,0-0.6
	c0,0,0.1,0,0.1,0c0,0.1,0,0.2,0,0.3c0.3-0.1,0.4-0.6,0.8-0.3c0.1-0.2,0.1-0.4,0.2-0.7c0.1,0,0.2,0.1,0.2,0.1
	c0.1-0.2,0.1-0.4,0.1-0.5c0.4,0.1,0.7,0.1,1,0.2c0-0.2,0-0.4,0-0.5c0.4,0.2,0.4,0.2,0.3,0.6c-0.1,0-0.1,0-0.2-0.1c0,0.1,0,0.3,0,0.4
	c0,0-0.1,0-0.1,0c-0.1-0.1-0.1-0.2-0.2-0.3C29.1,34,28.5,33.7,28.6,34.5z"/>
<path d="M35.4,24.9c-0.1,0-0.1-0.1-0.3-0.1c0.2-0.1,0.3-0.2,0.5-0.3c-0.1-0.1-0.2-0.1-0.3-0.1c0,0,0-0.1,0-0.1
	c0.2,0,0.4-0.1,0.6-0.1c0,0.4,0.1,0.7,0.1,1.1c-0.2,0-0.3-0.1-0.4-0.1c-0.1,0.1-0.2,0.3-0.3,0.4c0.2,0.1,0.4,0.1,0.6,0.2
	c0,0,0,0.1,0,0.1c-0.1,0-0.2-0.1-0.4-0.1c0,0.2-0.1,0.3-0.2,0.5c-0.2,0-0.4,0-0.6,0c0,0,0,0.1,0,0.1c0.1,0.1,0.2,0.1,0.3,0.2
	c0,0,0,0,0,0.1c-0.1,0-0.1,0-0.3,0c0.1,0.1,0.2,0.2,0.3,0.3c-0.3,0.3-0.5,0.3-0.7,0c0-0.1-0.1-0.2,0-0.3c0.1-0.2,0.2-0.4,0.3-0.7
	c0-0.1,0.2-0.1,0.2-0.2c0.1-0.1,0.2-0.2,0.2-0.3C35.2,25.2,35.3,25,35.4,24.9z"/>
<path d="M32.5,29.9c0.1-0.2,0.3-0.4,0.4-0.5c0,0,0,0,0,0c-0.1,0.1-0.2,0.1-0.3,0.2c0,0,0,0,0,0c0.1-0.2,0.3-0.4,0.4-0.7
	c0.1,0.1,0.1,0.2,0.2,0.3c0.2-0.1,0.3-0.2,0.5-0.3c0,0,0-0.1-0.1-0.1c-0.1,0-0.1,0.1-0.2,0.1c0-0.2,0-0.3,0.1-0.6
	c0.1,0.2,0.1,0.3,0.2,0.4c0.4,0,0.7-0.5,1.2-0.4c-0.1,0.3-0.6,0-0.4,0.5c-0.2,0-0.3,0-0.4,0c0,0,0,0.1,0,0.1c0.1,0,0.3,0,0.4,0.1
	c-0.2,0.2-0.3,0.4-0.5,0.5c-0.1-0.1-0.1-0.3-0.2-0.5c-0.1,0.2-0.1,0.3-0.2,0.5c0.1,0,0.2,0,0.3,0.1c-0.2,0.3-0.7,0.1-0.7,0.5
	c-0.2,0-0.4,0.1-0.6,0.1C32.5,30,32.5,30,32.5,29.9z"/>
<path d="M38.2,25c0.2,0,0.4,0.1,0.5,0.1c0.1,0.1,0.1,0.2,0.2,0.2c0,0.1,0.1,0.3,0,0.3c-0.3,0.2-0.4,0.5-0.5,0.8
	c-0.1,0.3-0.3,0.3-0.5,0.2c0,0,0,0,0,0c-0.1-0.1-0.2-0.1-0.4-0.3c0.2,0,0.3,0,0.5,0c-0.2-0.2-0.3-0.3-0.5-0.5c0.2,0,0.3-0.1,0.4-0.1
	c-0.5-0.3,0-0.6-0.1-0.9c0.1,0.1,0.2,0.2,0.3,0.4c0,0,0.1,0,0.1-0.1C38.2,25.2,38.2,25.1,38.2,25z"/>
<path d="M2.8,16.3c0,0.1,0.1,0.1,0.1,0.2c0,0,0,0.1-0.1,0.1c-0.2-0.1-0.5-0.2-0.6-0.3c0.1-0.4,0.1-0.8,0.2-1.2c0,0,0.1,0,0.1,0
	c0,0.1,0,0.1-0.1,0.3c0.2-0.1,0.4-0.2,0.5-0.3c0,0-0.1-0.1-0.1-0.1c0,0.1-0.1,0.1-0.2,0.2c-0.1-0.3-0.1-0.5-0.2-0.8
	c0.1,0,0.1,0,0.2,0c0,0.1,0.1,0.2,0.1,0.3c0.2-0.2,0-0.6,0.5-0.5c0,0.1-0.1,0.2-0.1,0.3c0.1,0,0.2,0,0.4,0.1
	c-0.2,0.1-0.6,0.1-0.2,0.5c-0.1,0-0.2,0-0.3,0c0,0.2,0.1,0.5,0.1,0.7c-0.2-0.1-0.3-0.1-0.3-0.1c0,0,0,0,0,0c0.1,0.1,0.3,0.2,0.4,0.3
	c0,0.3-0.2,0.2-0.4,0.1C2.8,16.3,2.8,16.3,2.8,16.3z"/>
<path d="M4.4,9C4.2,8.7,4.1,8.5,4,8.3C3.9,8.2,4,8,4,8c0.2-0.1,0.5-0.2,0.7-0.3c0.2-0.1,0.3-0.3,0.5-0.4c0.1,0.2,0.2,0.4,0.2,0.4
	C5.4,7.9,5.4,8.1,5.3,8.3c0.1,0,0,0-0.1,0c-0.1,0-0.1,0-0.2-0.1c0.3,0.5-0.3,0.5-0.2,0.8C4.7,8.9,4.6,8.8,4.5,8.7
	C4.5,8.7,4.5,8.8,4.4,9z"/>
<path d="M32.2,31.6c-0.5,0-0.5,0.6-0.9,0.8c0-0.1,0.1-0.1,0.2-0.3c-0.2,0-0.4,0.1-0.5,0.1c0,0,0,0.1,0,0.1c0.1,0,0.1-0.1,0.2-0.2
	c-0.1,0.3-0.1,0.5-0.2,0.8c0,0-0.1,0-0.1,0c0-0.1,0-0.2,0-0.3c-0.2,0.1-0.3,0.1-0.5,0.2c0,0,0-0.1-0.1-0.1c0.1,0,0.1-0.1,0.2-0.2
	c-0.2-0.1-0.3-0.2-0.5-0.3c0.2,0,0.4,0,0.6,0c0-0.1,0-0.2,0-0.3c0.1,0,0.2,0.1,0.2,0.1c0.1-0.2,0.1-0.4,0.2-0.7
	c0.1,0.1,0.2,0.1,0.3,0.2c-0.1-0.2-0.2-0.3-0.2-0.4c0.1-0.3,0.2-0.2,0.3,0.2c0-0.2,0.1-0.3,0.1-0.5C31.8,31.2,32,31.4,32.2,31.6
	C32.2,31.6,32.2,31.6,32.2,31.6z"/>
<path d="M36.7,15.3c-0.3,0.2-0.7,0.4-0.2,0.8c-0.1,0.1-0.2,0.2-0.3,0.3c-0.1-0.1-0.2-0.2-0.3-0.3c-0.1,0.1-0.1,0.2-0.2,0.2
	c0-0.3,0.2-0.7-0.2-0.8c0.1,0,0.2-0.1,0.3-0.1c0,0,0-0.1,0-0.1c-0.1,0-0.2,0-0.3,0c0.1-0.1,0.2-0.3,0.3-0.4c0,0-0.1-0.1-0.1-0.1
	c0.1,0,0.2,0,0.3,0c-0.2-0.1-0.4-0.1-0.6-0.2c0.5-0.3,1-0.1,1,0.4c0,0.1-0.2,0.2-0.4,0.4C36.3,15.3,36.5,15.3,36.7,15.3z"/>
<path d="M6.9,34.2c-0.4,0.3-0.2,0.6-0.2,0.9c0,0,0.1,0,0.1,0c0.1-0.4,0.2-0.7,0.2-1c0.1,0,0.1,0.1,0.3,0.1c-0.1,0.1-0.1,0.3-0.2,0.4
	c0.2,0,0.3,0,0.5,0c0,0.1,0,0.3,0,0.4c0,0.2,0,0.5,0,0.8c-0.2-0.1-0.3-0.2-0.4-0.3c-0.1,0-0.2,0.1-0.3,0.2c-0.1-0.1-0.2-0.3-0.4-0.4
	c-0.3-0.2-0.4-0.5-0.2-0.8c0.1-0.1,0.1-0.2,0.2-0.3C6.6,34.1,6.7,34.1,6.9,34.2z"/>
<path d="M4.4,12.3c-0.1-0.1-0.1-0.2-0.2-0.3c0,0,0,0,0.1-0.1c0.1,0,0.1,0.1,0.3,0.2c-0.1-0.3-0.2-0.5-0.3-0.8c0.1,0,0.3,0,0.4,0
	c0-0.1,0.1-0.2,0.1-0.4c0.1,0,0.2,0.1,0.4,0.1C5,11,5,10.9,5,10.9c-0.4-0.2-0.4-0.2-0.2-0.6c0,0.1,0,0.2,0,0.3c0,0,0.1,0,0.1,0
	c0.1-0.2,0.2-0.4,0.3-0.6c0,0,0-0.1,0-0.2c0.1,0,0.2,0,0.3,0c0.1,0,0.2,0,0.3,0c0,0.1,0.1,0.3,0.2,0.5c-0.2-0.1-0.4-0.1-0.5-0.2
	c-0.2,0.1,0.2,0.5-0.2,0.5c0.1,0.2,0.2,0.4,0.3,0.6c0,0-0.1,0-0.1,0.1c0-0.1-0.1-0.2-0.1-0.2c-0.2,0.2-0.4,0.5-0.6,0.7
	c-0.1,0.2,0,0.4,0,0.7C4.6,12.4,4.5,12.4,4.4,12.3C4.4,12.3,4.4,12.3,4.4,12.3z"/>
<path d="M5.1,33.4c0.1-0.1,0.2-0.3,0.3-0.4c-0.1-0.2-0.1-0.4-0.2-0.8c0.2,0,0.3,0.1,0.4,0.1c0-0.1,0-0.2,0-0.3c0,0,0.1,0,0.1,0.1
	c0.1,0.3,0.1,0.6,0.2,0.9c0.1,0.3,0.3,0.7,0.7,0.8c-0.2,0.2-0.4,0.4-0.5,0.4c-0.2,0-0.5-0.2-0.6-0.3c-0.1-0.1,0.1-0.3,0.1-0.6
	C5.5,33.3,5.4,33.3,5.1,33.4z"/>
<path d="M6.8,7.8c0.1,0,0.1,0.1,0.2,0.1C6.9,8,6.9,8,6.8,8.1C7,8.2,7.3,8.2,7.5,8.3c-0.2,0-0.4,0-0.5,0.1c-0.1,0-0.1,0.2-0.1,0.4
	c0,0-0.1,0-0.1-0.1C6.4,8.8,7,9.4,6.4,9.4c0,0.1,0,0.3,0,0.4c0,0-0.1,0-0.1,0c0-0.1-0.1-0.2-0.1-0.3c0,0,0,0-0.1,0
	c0,0.2,0,0.4,0.1,0.6c-0.3,0,0-0.6-0.4-0.5c0-0.4,0-0.5,0.3-0.4C6,9.1,5.9,9,5.9,8.9c0.2-0.1,0.5-0.2,0.7-0.3
	C6.4,8.5,6.2,8.4,6.2,8.4c0-0.2,0.1-0.3,0.2-0.5c0,0,0.1,0,0.1,0c0,0.1,0,0.2-0.1,0.3c0,0,0.1,0,0.1,0.1C6.6,8.1,6.7,8,6.8,7.8
	C6.8,7.8,6.8,7.8,6.8,7.8z"/>
<path d="M37.1,21.1c-0.1,0.1-0.2,0.2-0.3,0.2c0.1,0.1,0.1,0.1,0.1,0.1c-0.3,0.2-0.6,0.5-0.9,0.7c-0.2-0.9,0-1.2,0.6-1.1
	c-0.2-0.2-0.4-0.3-0.5-0.5c-0.1-0.1-0.1-0.2-0.1-0.3c0.1-0.1,0.2-0.2,0.3-0.2c0.3,0,0.6,0.1,0.7-0.3c0,0,0.1,0,0.1,0.1
	c0,0.1-0.1,0.3-0.1,0.4c-0.3,0-0.5,0-0.9,0C36.4,20.6,36.7,20.8,37.1,21.1z"/>
<path d="M25.5,36.6c-0.2,0.2-0.4,0.4-0.6,0.5c0,0-0.1,0-0.1-0.1c0.1-0.1,0.1-0.2,0.1-0.2c-0.2-0.1-0.4-0.2-0.5-0.2
	c0.1-0.1,0.2-0.3,0.4-0.3c0.3,0,0.3-0.3,0.5-0.5c0,0,0.2,0,0.2,0c0-0.1,0.1-0.2,0.1-0.3c0,0,0.1,0,0.1,0c0,0.1,0,0.2,0,0.3
	c0,0,0,0,0.1,0c0-0.2,0.1-0.4,0.2-0.6c0,0.2,0.1,0.2,0.1,0.3c0,0.1-0.2,0.3,0.1,0.4c0,0.1,0,0.2-0.1,0.3c-0.1,0.1-0.2,0-0.3,0.1
	c0,0,0,0.1,0,0.2c-0.2,0.3-0.6-0.3-0.8,0.2C25.2,36.6,25.3,36.6,25.5,36.6z"/>
<path d="M36.6,19.4C36.5,20,36.3,20.1,36,20c-0.1-0.1-0.1-0.3-0.1-0.5c0.2,0.1,0.3,0.1,0.4,0.1c0.1-0.2,0.2-0.3,0.3-0.5
	c-0.1,0.1-0.2,0.1-0.3,0.1c0-0.1-0.1-0.2-0.1-0.4c0.2,0,0.5-0.1,0.7-0.1c0,0,0,0.1,0,0.1c-0.1,0.1-0.2,0.1-0.3,0.2c0,0,0,0,0,0.1
	c0.1,0,0.2,0,0.4,0c-0.1,0.2-0.2,0.4-0.2,0.6C36.8,19.6,36.7,19.5,36.6,19.4z"/>
<path d="M4.4,12.3C4.4,12.3,4.4,12.3,4.4,12.3c0.1,0.2,0.2,0.3,0.3,0.5c-0.1,0-0.2,0-0.3-0.1c0.1,0.1,0.2,0.2,0.2,0.3
	c-0.3,0.1-0.7,0.2-1,0.2c0.1,0.2,0.2,0.4,0.3,0.5c-0.5,0-0.5,0-0.6-0.5c0.1,0,0.1,0,0.1,0c0-0.2,0-0.3-0.1-0.5c0,0,0.1,0,0.1,0
	c0.1,0.1,0.2,0.1,0.3,0.3C3.9,12.8,4.1,12.6,4.4,12.3z"/>
<path d="M36.7,23.5c-0.1,0.2-0.2,0.4-0.3,0.6c-0.1-0.1-0.1-0.2-0.1-0.2c-0.2,0-0.5,0-0.7,0c0,0-0.1-0.1-0.1-0.2c0,0,0-0.1,0-0.2
	c0.1,0,0.2,0.1,0.3,0.1c0-0.2,0.1-0.3,0.1-0.5c0.1,0,0.2,0.1,0.4,0.1c0,0,0.1,0,0.1-0.1c-0.1-0.1-0.2-0.2-0.3-0.3
	c0.2-0.1,0.5-0.2,0.8-0.3c-0.2,0.4-0.3,1-0.9,0.9c0,0,0,0.1,0.1,0.1C36.2,23.7,36.4,23.6,36.7,23.5z"/>
<path d="M36.4,18.2c0,0.1,0.1,0.2,0.1,0.2c-0.2,0.1-0.4,0.2-0.5,0.3c0-0.2-0.1-0.6-0.1-0.9c0-0.3,0-0.4,0.3-0.3
	c0,0.1-0.1,0.2-0.1,0.3c0,0.1,0.1,0.2,0.1,0.2c0-0.1,0-0.1,0.1-0.2c0,0,0.1-0.1,0.2-0.1c0.1,0,0.3,0.1,0.5,0.1
	C36.8,18,36.6,18.1,36.4,18.2z"/>
<path d="M35.7,17.3c0-0.2,0-0.3,0.1-0.4c0.1,0,0.3,0,0.4,0c-0.1-0.1-0.1-0.2-0.1-0.2c0.6-0.2,0.6-0.2,0.7,0.1c0.1,0,0.1-0.1,0.2-0.1
	c0,0.1,0,0.1,0,0.1c0,0,0,0.1,0,0.2c-0.1-0.1-0.1-0.1-0.2-0.1c0,0-0.1-0.1-0.2-0.1c-0.1,0.2-0.1,0.5-0.2,0.6
	C36.1,17.4,35.9,17.3,35.7,17.3z"/>
<path d="M4.5,32.1c0,0.1-0.1,0.1-0.1,0.2c0-0.1-0.1-0.2-0.1-0.3c0.2,0,0.3,0.1,0.4,0.1c-0.1-0.8-0.1-0.8,0.5-0.8
	c0,0.1,0.1,0.2,0.2,0.4c-0.2,0.1-0.4,0.2-0.7,0.3c0.2,0,0.3,0,0.4,0C4.9,32,4.9,32.7,4.5,32.1z"/>
<path d="M16.6,1.1c0-0.1,0-0.3,0-0.4c0.1-0.1,0.3-0.2,0.5-0.3c0,0,0.1,0.2,0.2,0.3c0.1-0.1,0.2-0.1,0.4-0.3
	c-0.1,0.4-0.1,0.7-0.6,0.6C17,1,16.9,1,16.8,1.1C16.8,1.1,16.7,1.1,16.6,1.1z"/>
<path d="M19,38.4c-0.1,0.2-0.2,0.3-0.3,0.5c0,0,0,0,0.1,0.1c0.1-0.1,0.2-0.1,0.4-0.2c0,0,0,0.1,0,0.1c-0.2,0.1-0.4,0.2-0.5,0.3
	c-0.1-0.3-0.2-0.5-0.3-0.8c-0.1,0-0.2,0.1-0.2,0.1c0,0,0-0.1,0-0.1c0.2-0.1,0.3-0.2,0.6-0.3c0,0.2,0,0.4-0.1,0.6
	c0.2-0.3,0.3-0.4,0.5-0.6c0,0,0.1,0,0.1,0.1C19,38.3,19,38.3,19,38.4C19,38.4,19,38.4,19,38.4z"/>
<path d="M21.8,37.9c0.1-0.1,0.2-0.2,0.4-0.2c0.1,0.1,0.2,0.2,0.3,0.2c0.3-0.1,0.5-0.1,0.8-0.2c0,0.1,0,0.2,0,0.2
	c-0.3,0.1-0.6,0.3-0.9,0.4C22.2,38.2,22,38,21.8,37.9L21.8,37.9z"/>
<path d="M4.2,30.1c0.1,0.2,0.3,0.4,0.4,0.5c0.1,0.1,0.1,0.1,0.2,0.2c0.2,0.2,0.1,0.3-0.1,0.4c-0.1-0.2-0.1-0.4-0.2-0.6
	c-0.1,0.1-0.2,0.2-0.2,0.2c0-0.1,0-0.2-0.1-0.2c-0.3-0.2-0.2-0.3,0-0.4C4.1,30.2,4.2,30.1,4.2,30.1C4.2,30.1,4.2,30.1,4.2,30.1z"/>
<path d="M21.9,0c0.1,0.2,0.2,0.3,0.3,0.5c-0.2,0-0.3,0-0.5,0.1c-0.2,0.1-0.5-0.1-0.6-0.4c0.2,0,0.3-0.1,0.5-0.2
	c-0.1,0.2-0.1,0.3-0.1,0.4c0,0,0.1,0,0.1,0C21.8,0.3,21.8,0.2,21.9,0z"/>
<path d="M33.9,27.7c-0.1-0.3,0.1-0.4,0.2-0.6c0.1-0.1,0.2-0.1,0.3-0.1c0,0,0,0.1,0,0.1c-0.1,0-0.2,0-0.2,0.1
	c-0.1,0.1-0.1,0.2-0.1,0.3c0.1,0,0.2-0.1,0.2,0c0.1,0.1,0.3,0.2,0.4,0.3c0,0,0,0.1-0.1,0.1C34.5,27.9,34.2,27.8,33.9,27.7L33.9,27.7
	z"/>
<path d="M17.9,39.4c0-0.2,0-0.3,0.1-0.5c-0.1,0-0.4,0-0.6,0c0.3-0.5,0.6,0.1,0.8-0.1C18.5,39.1,18.1,39.2,17.9,39.4
	C17.9,39.4,17.9,39.4,17.9,39.4z"/>
<path d="M15.7,0.9c0.2,0.3,0.4,0.5,0.6,0.8c-0.3-0.1-0.5-0.1-0.7-0.2c0-0.2,0-0.4,0-0.6C15.6,0.9,15.7,0.9,15.7,0.9z"/>
<path d="M29.5,37.1c0-0.4-0.6-0.7-0.1-1.1c0.1,0.2,0.1,0.4,0.2,0.6C29.9,36.9,29.6,36.9,29.5,37.1z"/>
<path d="M19.6,37.8c0.1,0.1,0.4,0.1,0.4,0.2c0.1,0.2-0.1,0.7-0.2,0.8C19.7,38.5,19.7,38.2,19.6,37.8z"/>
<path d="M15.6,4.4c0.1,0.1,0.1,0.1,0.2,0.2c0.2-0.2,0.3-0.3,0.5-0.5c0,0,0.1,0.1,0.1,0.1c-0.2,0.3-0.4,0.6-0.6,0.8
	C15.5,4.9,15.5,4.8,15.6,4.4z"/>
<path d="M18.4,0.4c0.3,0.1,0.6,0.1,0.9,0.2c0.1,0.1,0.1,0.1,0.2,0.2c-0.2,0.1-0.3,0.2-0.5,0.4c0-0.1,0-0.1,0-0.2
	c-0.2-0.1-0.4-0.3-0.6-0.4C18.4,0.4,18.4,0.4,18.4,0.4z"/>
<path d="M32.5,29.9c0,0,0.1,0.1,0.1,0.1c0,0.1,0,0.1,0,0.2c-0.1,0-0.2,0-0.3,0c0,0,0,0.1-0.1,0.1c0.1,0.1,0.3,0.2,0.4,0.4
	c0,0-0.1,0.1-0.2,0.2l0,0c-0.2-0.2-0.3-0.4-0.5-0.6C32.1,30.1,32.3,30,32.5,29.9z"/>
<path d="M14.8,36.2c0.3-0.1,0.5-0.3,0.8-0.5c0.2,0.2-0.1,0.4-0.1,0.6c-0.1-0.1-0.1-0.2-0.1-0.2c-0.2,0.1-0.4,0.1-0.6,0.2
	C14.8,36.3,14.8,36.2,14.8,36.2z"/>
<path d="M21.8,37.9c-0.2,0.2-0.3,0.3-0.4-0.1c0-0.1-0.1-0.3-0.2-0.4c0.1,0,0.3-0.1,0.6-0.1c-0.1,0.2-0.2,0.3-0.3,0.4
	C21.6,37.7,21.7,37.8,21.8,37.9C21.8,37.9,21.8,37.9,21.8,37.9z"/>
<path d="M6.6,7.6c0.2,0,0.4-0.1,0.7-0.1c0.1,0.1,0.1,0.2,0.2,0.3C7.5,7.9,7.6,8,7.6,8.1C7.3,7.9,7.1,7.8,6.9,7.6
	c0,0.1-0.1,0.1-0.1,0.2c0,0,0,0,0,0C6.7,7.7,6.7,7.7,6.6,7.6z"/>
<path d="M17,2.5c-0.1,0.1-0.2,0.3-0.3,0.4c0,0-0.1,0-0.2,0c0,0,0,0,0,0c0-0.2,0.1-0.5,0.1-0.7c0,0,0-0.1,0.1-0.2
	C16.9,2.2,16.9,2.4,17,2.5C17,2.5,17,2.5,17,2.5z"/>
<path d="M21.7,38.1c-0.1,0.3-0.2,0.5-0.5,0.5c-0.2,0-0.4-0.1-0.4-0.4C21.1,38.4,21.4,38.4,21.7,38.1z"/>
<path d="M3.7,10.3c-0.1-0.1-0.1-0.2-0.2-0.3c0-0.1,0.1-0.3,0.1-0.4C4.1,9.9,4.1,10.1,3.7,10.3z"/>
<path d="M2.1,17.2c0.2-0.1,0.4-0.2,0.5,0.1c0.1,0.1,0.2,0.2,0.3,0.2c-0.1,0.1-0.1,0.1-0.2,0.2c-0.1-0.1-0.2-0.3-0.3-0.4
	c-0.1,0-0.3,0-0.4,0.1C2.1,17.3,2.1,17.2,2.1,17.2L2.1,17.2z"/>
<path d="M19,38.4c0.1-0.1,0.2-0.3,0.3-0.4c0.3,0.4,0.3,0.4-0.4,0.6C18.9,38.6,19,38.5,19,38.4C19,38.4,19,38.4,19,38.4z"/>
<path d="M25.5,5.9c-0.1,0-0.2-0.1-0.3-0.1c0.1-0.2,0.2-0.4,0.3-0.6c0.1,0.2,0.3,0.3,0.4,0.5C25.7,5.8,25.3,5.4,25.5,5.9z"/>
<path d="M17,3.9c0.2,0.1,0.3,0.2,0.4,0.2c-0.1,0.2-0.2,0.4-0.3,0.7c0,0,0,0-0.1,0C17.1,4.5,17,4.3,17,3.9z"/>
<path d="M14.3,35.3c-0.1,0.2-0.2,0.5-0.3,0.8c-0.1-0.1-0.2-0.2-0.3-0.3C13.9,35.6,14.1,35.4,14.3,35.3
	C14.3,35.3,14.3,35.3,14.3,35.3z"/>
<path d="M24,37.1c0-0.2-0.1-0.5-0.1-0.7c0,0,0.1,0,0.1,0c0.1,0.2,0.2,0.4,0.3,0.6c0.1,0,0.2,0,0.3,0.1c0,0.1,0,0.1,0,0.2
	C24.4,37.2,24.2,37.1,24,37.1C24.1,37.1,24.1,37.1,24,37.1C24,37.1,24,37.1,24,37.1L24,37.1z"/>
<path d="M32.4,30.9c0.1,0,0.2-0.1,0.3-0.1c0.2,0.3,0.1,0.4-0.2,0.5c-0.1,0.1-0.2,0.2-0.3,0.3c0,0,0,0,0,0c-0.1-0.4,0.2-0.5,0.6-0.6
	C32.6,30.9,32.5,30.9,32.4,30.9C32.4,30.9,32.4,30.9,32.4,30.9z"/>
<path d="M2.1,17.1C2,17.2,2,17.3,1.9,17.3C1.7,17,1.7,17,2.1,16.4c0,0,0.1,0,0.1,0.1C2.1,16.7,2,16.9,1.9,17
	C1.9,17.1,2,17.1,2.1,17.1C2.1,17.2,2.1,17.1,2.1,17.1z"/>
<path d="M16.6,1.1c0.1,0,0.1,0,0.2,0c0,0.5,0.3-0.1,0.4,0.1c-0.4,0.5-0.7,0.5-0.9,0.1c0.1,0.1,0.1,0.1,0.3,0.3
	C16.6,1.4,16.6,1.2,16.6,1.1z"/>
<path d="M15,35.9c-0.2,0.1-0.4,0.2-0.7,0.3c0.1-0.2,0.1-0.4,0.2-0.5C14.6,35.7,14.8,35.8,15,35.9z"/>
<path d="M36.6,22.6c-0.2,0-0.4,0.1-0.6,0.1c0,0,0-0.1,0-0.1c0.1-0.1,0.1-0.2,0.2-0.3C36.4,22.4,36.5,22.4,36.6,22.6
	C36.6,22.5,36.6,22.5,36.6,22.6z"/>
<path class="st0" d="M33.6,32.8c0.1,0.1,0.1,0.1,0.2,0.2c-0.2,0.1-0.4,0.2-0.6,0.4c0,0-0.1,0-0.1-0.1c0.1-0.1,0.3-0.3,0.4-0.4
	C33.5,32.8,33.6,32.8,33.6,32.8z"/>
<path d="M7.8,7C8.4,7.2,8.4,7.2,8,7.7C7.9,7.4,7.9,7.2,7.8,7z"/>
<path d="M23.3,37.3c-0.3-0.4-0.3-0.4,0.2-0.7C23.4,36.9,23.3,37.1,23.3,37.3z"/>
<path d="M24,37.1c0,0.1,0.1,0.1,0.1,0.2c-0.3-0.1-0.5-0.1-0.7-0.1C23.6,37.1,23.8,36.8,24,37.1C24,37.1,24,37.1,24,37.1z"/>
<path d="M33.9,27.7c0.1,0.1,0.2,0.2,0.3,0.2c-0.2,0.1-0.3,0.2-0.5,0.3c0,0-0.1-0.1-0.2-0.1C33.7,28,33.8,27.8,33.9,27.7
	C33.9,27.7,33.9,27.7,33.9,27.7z"/>
<path class="st0" d="M4.6,28.7c0,0.1-0.1,0.1-0.1,0.2c0,0,0,0,0,0.1c0.1,0,0.2-0.1,0.3-0.1c0,0.5-0.4,0.3-0.7,0.4
	C4.3,28.9,4.4,28.8,4.6,28.7C4.6,28.6,4.6,28.6,4.6,28.7z"/>
<path class="st0" d="M1.3,20.4c-0.2-0.1-0.4-0.2-0.6-0.3C0.8,20,1,19.9,1.1,19.8C1.1,20,1.2,20.2,1.3,20.4z"/>
<path class="st0" d="M8.6,32.4c0.3,0.1,0.5,0.2,0.8,0.3c0,0.1,0,0.1-0.1,0.2c-0.1-0.1-0.2-0.1-0.3-0.2c-0.1,0-0.1-0.1-0.2-0.1
	c0,0-0.1,0.1-0.1,0.1C8.6,32.6,8.6,32.5,8.6,32.4C8.6,32.4,8.6,32.4,8.6,32.4z"/>
<path class="st0" d="M30.9,7.7c0-0.3,0.1-0.7,0.1-1c0,0,0.1,0,0.2-0.1c0.1,0.1,0.3,0.2,0.3,0.3C31.3,7.1,31.1,7.4,30.9,7.7z"/>
<path class="st0" d="M29,6.1c0,0.1,0,0.2,0,0.3c0,0,0,0,0.1,0c0.1-0.1,0.2-0.2,0.3-0.4c0,0.3,0,0.5-0.1,0.7c-0.2,0-0.3,0-0.5,0
	C28.8,6.5,28.9,6.3,29,6.1C29,6.1,29,6.1,29,6.1z"/>
<path class="st0" d="M30.2,6.5c0.1-0.5,0.3-0.5,0.7-0.5c0,0.1,0,0.2-0.1,0.5C30.6,6,30.4,6.6,30.2,6.5z"/>
<path class="st0" d="M13.5,38.5c0,0.1-0.1,0.3-0.1,0.5c-0.2-0.1-0.4-0.3-0.6-0.4c0,0,0,0,0-0.1c0.1,0.1,0.2,0.1,0.2,0.1
	C13.2,38.6,13.4,38.6,13.5,38.5C13.5,38.5,13.5,38.5,13.5,38.5z"/>
<path class="st0" d="M14.4,2c0,0.1,0.1,0.1,0.1,0.2c0,0,0,0,0.1,0c0-0.1,0-0.1,0-0.2c0-0.1,0-0.1,0-0.3c0.1,0.1,0.1,0.1,0.1,0.2
	c0.3,0.3,0.3,0.6,0,0.9c-0.1,0.1-0.2,0.3-0.2,0.4c-0.1-0.1-0.1-0.3-0.2-0.4c0.1-0.1,0.3-0.2,0.4-0.3c-0.1-0.1-0.2-0.3-0.3-0.4
	C14.3,2,14.3,2,14.4,2z"/>
</svg>
